<svg width="60" height="60" viewBox="0 0 60 60" fill="none" xmlns="http://www.w3.org/2000/svg">
<g clip-path="url(#clip0_387_12334)">
<path d="M30.1727 56.9997C44.0367 56.9997 55.2756 45.7608 55.2756 31.8968C55.2756 18.0329 44.0367 6.79395 30.1727 6.79395C16.3088 6.79395 5.06982 18.0329 5.06982 31.8968C5.06982 45.7608 16.3088 56.9997 30.1727 56.9997Z" fill="url(#paint0_linear_387_12334)"/>
<ellipse cx="16.8801" cy="31.3415" rx="3.38889" ry="2.42063" fill="#FF5E53" fill-opacity="0.7"/>
<ellipse cx="43.0229" cy="31.3415" rx="3.38889" ry="2.42063" fill="#FF5E53" fill-opacity="0.7"/>
<path fill-rule="evenodd" clip-rule="evenodd" d="M19.8229 22.2329C19.0537 21.8405 18.1117 22.1544 17.7193 22.9394C17.3268 23.7086 17.6408 24.6505 18.4257 25.043L21.8951 26.7856L18.4257 28.5282C17.6565 28.9206 17.3425 29.8626 17.7193 30.6318C18.1117 31.401 19.0537 31.715 19.8229 31.3382L26.1024 28.1985C26.6362 27.9316 26.9659 27.3821 26.9659 26.8013C26.9659 26.2204 26.6362 25.6553 26.1024 25.4041L19.8229 22.2643V22.2329ZM40.3883 22.2329C41.1576 21.8405 42.0995 22.1544 42.492 22.9394C42.8845 23.7086 42.5705 24.6505 41.7855 25.043L38.3161 26.7856L41.7855 28.5282C42.5548 28.9206 42.8688 29.8626 42.492 30.6318C42.0995 31.401 41.1576 31.715 40.3883 31.3382L34.1088 28.1985C33.5751 27.9316 33.2454 27.3821 33.2454 26.8013C33.2454 26.2204 33.5751 25.6553 34.1088 25.4041L40.3883 22.2643V22.2329Z" fill="#4D4947"/>
<path fill-rule="evenodd" clip-rule="evenodd" d="M16.1655 36.9739C16.7464 40.4433 18.5988 43.4889 21.2205 45.6239C23.6538 47.5863 26.7308 48.7637 30.1061 48.7637C33.4813 48.7637 36.5583 47.5863 38.9916 45.6239C41.6133 43.5046 43.4657 40.459 44.0466 36.9739C44.2664 35.6866 43.1832 34.6348 41.8802 34.6348H18.3319C17.0289 34.6348 15.9614 35.7023 16.1655 36.9739Z" fill="#5D4D41"/>
<path d="M9.03103 34.1185C7.21466 37.0065 4.1487 38.841 0.843349 38.9872L-0.519108 39.0411L3.81863 45.6518L5.33258 45.2899C7.92486 44.6884 10.1826 43.0781 11.6669 40.7773L12.536 39.4296L9.02477 34.0772L9.03103 34.1185Z" fill="#00C1AA"/>
<path d="M55.1365 17.5781C53.1444 19.0223 50.5612 19.3941 48.2226 18.5761L47.2681 18.2377L48.5621 23.9225L49.7002 24.106C51.6354 24.4224 53.6275 23.9613 55.2428 22.8393L56.1949 22.1725L55.1365 17.5781Z" fill="#CF4BFF"/>
<path d="M10.3502 2.29639C11.041 4.65135 12.9305 6.54304 15.3686 7.35377L16.3642 7.68192L11.5895 11.2916L10.533 10.7318C8.74506 9.78594 7.4041 8.18379 6.81488 6.31141L6.46948 5.21114L10.3298 2.29639H10.3502Z" fill="#FF6157"/>
<path d="M50.7046 41.5455C51.6559 44.8397 54.2185 47.4938 57.5577 48.6045L58.9361 49.0562L52.413 54.1011L50.9764 53.3105C48.5108 51.974 46.7053 49.7716 45.9093 47.1362L45.4434 45.5926L50.724 41.5078L50.7046 41.5455Z" fill="#FF6157"/>
<path d="M37.608 5.01649C39.434 7.68833 42.4144 9.29143 45.6257 9.29143H46.948L42.8972 15.7893L41.4279 15.5115C38.9303 15.0412 36.6845 13.6091 35.2153 11.493L34.3547 10.2533L37.629 4.99512L37.608 5.01649Z" fill="#00C1AA"/>
<mask id="mask0_387_12334" style="mask-type:alpha" maskUnits="userSpaceOnUse" x="16" y="34" width="29" height="15">
<path fill-rule="evenodd" clip-rule="evenodd" d="M16.1655 36.9739C16.7464 40.4433 18.5988 43.4889 21.2205 45.6239C23.6538 47.5863 26.7308 48.7637 30.1061 48.7637C33.4813 48.7637 36.5583 47.5863 38.9916 45.6239C41.6133 43.5046 43.4657 40.459 44.0466 36.9739C44.2664 35.6866 43.1832 34.6348 41.8802 34.6348H18.3319C17.0289 34.6348 15.9614 35.7023 16.1655 36.9739Z" fill="#5D4D41"/>
</mask>
<g mask="url(#mask0_387_12334)">
<rect x="14.4595" y="33.7622" width="30.0159" height="3.87302" fill="#F0F3F9"/>
</g>
</g>
<defs>
<linearGradient id="paint0_linear_387_12334" x1="30.1727" y1="10.2809" x2="30.1727" y2="56.9997" gradientUnits="userSpaceOnUse">
<stop stop-color="#FFDA16"/>
<stop offset="1" stop-color="#FFAD0E"/>
</linearGradient>
<clipPath id="clip0_387_12334">
<rect width="60" height="60" fill="white"/>
</clipPath>
</defs>
</svg>
