<svg width="60" height="60" viewBox="0 0 60 60" fill="none" xmlns="http://www.w3.org/2000/svg">
<g clip-path="url(#clip0_387_12337)">
<path d="M30.2058 54.8833C43.8986 54.8833 54.9987 43.7831 54.9987 30.0903C54.9987 16.3975 43.8986 5.29736 30.2058 5.29736C16.513 5.29736 5.41284 16.3975 5.41284 30.0903C5.41284 43.7831 16.513 54.8833 30.2058 54.8833Z" fill="url(#paint0_linear_387_12337)"/>
<path d="M15.6299 34.2093C18.4738 35.7803 22.4459 34.0385 24.5002 30.3196C26.5546 26.6006 25.9144 22.3109 23.0705 20.74C20.2266 19.169 16.2545 20.9108 14.2001 24.6297C12.1457 28.3486 12.786 32.6383 15.6299 34.2093Z" fill="#E2AC3B"/>
<path d="M44.1607 34.2093C41.3168 35.7803 37.3447 34.0385 35.2903 30.3196C33.2359 26.6006 33.8762 22.3109 36.7201 20.74C39.5639 19.169 43.536 20.9108 45.5904 24.6297C47.6448 28.3486 47.0045 32.6383 44.1607 34.2093Z" fill="#E2AC3B"/>
<path d="M6.2793 23.5986H54.1352C51.283 13.0564 41.6524 5.29736 30.2055 5.29736C18.7586 5.29736 9.13152 13.0564 6.2793 23.5986Z" fill="url(#paint1_linear_387_12337)"/>
<path d="M20.8307 31.2717C25.0676 31.2717 28.5033 27.8359 28.5033 23.599C28.5033 19.3621 25.0676 15.9263 20.8307 15.9263C16.5938 15.9263 13.158 19.3621 13.158 23.599C13.158 27.8359 16.5938 31.2717 20.8307 31.2717Z" fill="url(#paint2_linear_387_12337)"/>
<path d="M39.5841 31.2717C43.821 31.2717 47.2568 27.8359 47.2568 23.599C47.2568 19.3621 43.821 15.9263 39.5841 15.9263C35.3472 15.9263 31.9114 19.3621 31.9114 23.599C31.9114 27.8359 35.3472 31.2717 39.5841 31.2717Z" fill="url(#paint3_linear_387_12337)"/>
<path d="M25.0918 39.7971C25.0918 36.9725 27.3812 34.6831 30.2058 34.6831C33.0304 34.6831 35.3197 36.9725 35.3197 39.7971V44.9111C35.3197 47.7357 33.0304 50.025 30.2058 50.025C27.3812 50.025 25.0918 47.7357 25.0918 44.9111V39.7971Z" fill="#5D4D41"/>
<path d="M19.2699 52.2765V50.8953C19.2699 44.7109 16.2174 38.9235 11.1138 35.4325C9.59447 34.3931 7.58134 34.4415 6.11379 35.5499C4.57373 36.7136 4.00397 38.7681 4.72221 40.5603C5.9584 43.6404 6.51434 46.9519 6.3555 50.2668L6.27608 51.9139C6.13451 54.7903 7.92664 57.4077 10.658 58.3228L10.8065 58.3711C12.1843 58.8304 13.676 58.8131 15.0434 58.3159C17.5814 57.3905 19.2734 54.9768 19.2734 52.2765H19.2699Z" fill="url(#paint4_linear_387_12337)"/>
<path d="M41.1451 52.2765V50.8953C41.1451 44.7109 44.1976 38.9235 49.3012 35.4325C50.8205 34.3931 52.8337 34.4415 54.3012 35.5499C55.8413 36.7136 56.411 38.7681 55.6928 40.5603C54.4566 43.6404 53.9006 46.9519 54.0595 50.2668L54.1389 51.9139C54.2805 54.7903 52.4883 57.4077 49.757 58.3228L49.6085 58.3711C48.2307 58.8304 46.739 58.8131 45.3716 58.3159C42.8336 57.3905 41.1416 54.9768 41.1416 52.2765H41.1451Z" fill="url(#paint5_linear_387_12337)"/>
</g>
<defs>
<linearGradient id="paint0_linear_387_12337" x1="30.2058" y1="22.2173" x2="30.2058" y2="54.8833" gradientUnits="userSpaceOnUse">
<stop stop-color="#FFDA16"/>
<stop offset="1" stop-color="#FFAD0E"/>
</linearGradient>
<linearGradient id="paint1_linear_387_12337" x1="30.2073" y1="5.29736" x2="30.2073" y2="23.5986" gradientUnits="userSpaceOnUse">
<stop offset="0.270678" stop-color="#4E91F2"/>
<stop offset="1" stop-color="#4E91F2" stop-opacity="0"/>
</linearGradient>
<linearGradient id="paint2_linear_387_12337" x1="20.8307" y1="15.9263" x2="20.8307" y2="31.2717" gradientUnits="userSpaceOnUse">
<stop stop-color="white"/>
<stop offset="1" stop-color="#E7E7E7"/>
</linearGradient>
<linearGradient id="paint3_linear_387_12337" x1="39.5841" y1="15.9263" x2="39.5841" y2="31.2717" gradientUnits="userSpaceOnUse">
<stop stop-color="white"/>
<stop offset="1" stop-color="#E7E7E7"/>
</linearGradient>
<linearGradient id="paint4_linear_387_12337" x1="12.0235" y1="40.0009" x2="9.88585" y2="58.4762" gradientUnits="userSpaceOnUse">
<stop stop-color="#FFA800"/>
<stop offset="1" stop-color="#FF7A00"/>
</linearGradient>
<linearGradient id="paint5_linear_387_12337" x1="48.7505" y1="40.0009" x2="46.6129" y2="58.4762" gradientUnits="userSpaceOnUse">
<stop stop-color="#FFA800"/>
<stop offset="1" stop-color="#FF7A00"/>
</linearGradient>
<clipPath id="clip0_387_12337">
<rect width="51.5852" height="53.405" fill="white" transform="translate(4.41479 5.29736)"/>
</clipPath>
</defs>
</svg>
