<svg width="60" height="60" viewBox="0 0 60 60" fill="none" xmlns="http://www.w3.org/2000/svg">
<path d="M20.4877 14.1547C20.5703 13.8279 20.5723 7.75016 20.4877 7.42522C20.3781 7.00607 19.7955 6.71574 19.3821 6.80034C19.1321 6.85225 18.7149 7.36369 18.6611 7.61749C18.5938 7.93281 18.5823 13.7471 18.6611 14.0586C18.863 14.8565 20.2627 15.0411 20.4877 14.1547Z" fill="url(#paint0_linear_387_12342)"/>
<path d="M54.3642 28C53.4032 30.1805 51.5459 32.4422 52.1018 34.9476C52.9163 38.6245 61.0911 37.9575 54.3642 28Z" fill="url(#paint1_linear_387_12342)"/>
<path d="M7.41852 16C6.84194 17.4537 5.72755 18.9615 6.06109 20.6317C6.54977 23.083 11.4546 22.6384 7.41852 16Z" fill="url(#paint2_linear_387_12342)"/>
<path d="M13.7749 19.1873C14.4825 19.0219 14.2498 17.7818 13.3903 18.0336C12.8366 18.1971 12.7943 19.4161 13.7749 19.1873Z" fill="url(#paint3_linear_387_12342)"/>
<path d="M49.393 35.5542C49.2121 35.6161 49.081 35.7725 49.0443 35.9601C48.5167 38.6622 46.8384 41.6494 43.9097 41.5308L43.2827 40.5766L44.8576 37.931C52.4521 32.3157 53.0756 20.6379 47.4787 13.0947C46.6214 13.2218 49.7367 19.4586 44.0434 24.2721C44.0414 24.268 44.0373 24.2598 44.0311 24.2515C43.1226 22.8467 42.7001 21.1937 42.8232 19.5242C43.4282 11.3125 36.6253 6.02278 30.2512 1.58464C28.7728 0.555218 28.3946 1.03572 28.9275 2.75656C29.0196 3.05387 29.104 3.36567 29.1744 3.68681C29.8082 6.56831 29.1744 9.83607 27.2281 11.3658C27.2281 11.3658 27.4661 10.9884 27.3286 11.3494C27.2979 11.3555 27.2281 11.3658 27.2281 11.3658C24.6543 11.7226 22.4434 13.3757 21.4692 15.7875C20.9237 17.137 20.5279 18.5296 20.4581 19.8114C20.4233 20.4759 20.4581 22.825 20.9924 23.9635L21.9939 26.5374C21.8442 26.3467 21.6616 26.1478 21.4586 25.9427C20.5603 25.0362 19.2682 24.0374 18.7371 23.457C15.4126 25.836 15.1685 27.3598 16.2247 30.6146C16.4011 31.1622 15.6935 31.6319 15.1439 31.8041L15.0947 31.8185C14.4548 32.0195 13.7534 31.8164 13.3289 31.2976C10.7263 28.1207 12.0532 25.9857 12.5844 21.4061C8.64461 25.914 6.59307 33.4176 7.04051 38.7868C6.95848 39.0986 7.04051 38.473 7.04051 38.7868C7.65677 46.1818 15.1767 59.2984 27.601 59.9568C43.475 60.7976 50.5444 49.1704 50.5444 42.7327C50.8689 40.709 50.735 38.4373 50.0536 35.9008C49.9769 35.6151 49.6729 35.4582 49.393 35.5542Z" fill="url(#paint4_linear_387_12342)"/>
<path d="M29.3615 14.7539C19.8766 14.7539 12.1851 22.4433 12.1851 31.9303V40.408C12.1851 41.5427 12.7545 42.6029 13.7 43.2297L18.5423 46.4381V50.3603C18.5423 50.8129 18.9099 51.1805 19.3624 51.1805H22.0609C22.5134 51.1805 22.881 50.8129 22.881 50.3603V47.0415H27.1921V50.3603C27.1921 50.8129 27.5597 51.1805 28.0123 51.1805H30.7107C31.1633 51.1805 31.5308 50.8129 31.5308 50.3603V47.0415H35.7867V50.3603C35.7867 50.8129 36.1543 51.1805 36.6069 51.1805H39.6474C40.0999 51.1805 40.4675 50.8129 40.4675 50.3603V46.6399L45.142 43.2403C46.0173 42.6029 46.5358 41.5852 46.5358 40.5037V31.9325C46.5358 22.4455 38.8463 14.756 29.3594 14.756L29.3615 14.7539ZM20.735 41.0561C18.1343 41.0561 16.0266 38.9484 16.0266 36.3477C16.0266 33.747 18.1343 31.6392 20.735 31.6392C23.3357 31.6392 25.4435 33.747 25.4435 36.3477C25.4435 38.9484 23.3357 41.0561 20.735 41.0561ZM37.9879 41.0561C35.3873 41.0561 33.2795 38.9484 33.2795 36.3477C33.2795 33.747 35.3873 31.6392 37.9879 31.6392C40.5886 31.6392 42.6964 33.747 42.6964 36.3477C42.6964 38.9484 40.5886 41.0561 37.9879 41.0561Z" fill="url(#paint5_linear_387_12342)"/>
<path d="M23.9007 52.9233H35.2086C36.0968 52.9233 36.4728 54.0558 35.7611 54.587L34.5712 55.4752C31.843 57.5128 28.1396 57.6488 25.2691 55.8172L23.4035 54.6253C22.6259 54.1281 22.9765 52.9233 23.9007 52.9233Z" fill="url(#paint6_linear_387_12342)"/>
<defs>
<linearGradient id="paint0_linear_387_12342" x1="19.5783" y1="6.78564" x2="19.5783" y2="14.7426" gradientUnits="userSpaceOnUse">
<stop stop-color="#9D3BFF"/>
<stop offset="1" stop-color="#BB2CFF"/>
</linearGradient>
<linearGradient id="paint1_linear_387_12342" x1="54.5" y1="28" x2="54.5" y2="37" gradientUnits="userSpaceOnUse">
<stop stop-color="#9D3BFF"/>
<stop offset="1" stop-color="#BB2CFF"/>
</linearGradient>
<linearGradient id="paint2_linear_387_12342" x1="7.5" y1="16" x2="7.5" y2="22" gradientUnits="userSpaceOnUse">
<stop stop-color="#9D3BFF"/>
<stop offset="1" stop-color="#BB2CFF"/>
</linearGradient>
<linearGradient id="paint3_linear_387_12342" x1="13.5964" y1="18" x2="13.5964" y2="19.2158" gradientUnits="userSpaceOnUse">
<stop stop-color="#9D3BFF"/>
<stop offset="1" stop-color="#BB2CFF"/>
</linearGradient>
<linearGradient id="paint4_linear_387_12342" x1="29.3389" y1="-2.95082" x2="29.3389" y2="60.0034" gradientUnits="userSpaceOnUse">
<stop stop-color="#9D3BFF"/>
<stop offset="1" stop-color="#BB2CFF"/>
</linearGradient>
<linearGradient id="paint5_linear_387_12342" x1="29.3604" y1="14.7539" x2="29.3604" y2="51.1805" gradientUnits="userSpaceOnUse">
<stop stop-color="white"/>
<stop offset="1" stop-color="#F3DFFF"/>
</linearGradient>
<linearGradient id="paint6_linear_387_12342" x1="29.5545" y1="52.9233" x2="29.5545" y2="57.1027" gradientUnits="userSpaceOnUse">
<stop stop-color="white"/>
<stop offset="1" stop-color="#F3DFFF"/>
</linearGradient>
</defs>
</svg>
