<svg width="60" height="60" viewBox="0 0 60 60" fill="none" xmlns="http://www.w3.org/2000/svg">
<path d="M29.5343 1C40.1856 1 48.8362 9.65055 48.8362 20.3019V41.08H10.2324V20.3019C10.2324 9.65055 18.883 1 29.5343 1Z" fill="url(#paint0_linear_387_12343)"/>
<path d="M10.0382 41.0801H49.0369C49.7815 41.0801 50.3772 41.6822 50.3772 42.4204V47.037H8.69141V42.4204C8.69141 41.6758 9.29358 41.0801 10.0317 41.0801H10.0382Z" fill="url(#paint1_linear_387_12343)"/>
<path d="M50.5323 47.043H8.53569C8.00644 47.043 7.57739 47.472 7.57739 48.0013V52.0416C7.57739 52.5709 8.00644 52.9999 8.53569 52.9999H50.5323C51.0616 52.9999 51.4906 52.5709 51.4906 52.0416V48.0013C51.4906 47.472 51.0616 47.043 50.5323 47.043Z" fill="#6E7E87"/>
<ellipse cx="20.2176" cy="13.0903" rx="3.847" ry="5.49571" transform="rotate(23.4724 20.2176 13.0903)" fill="#FF8B84" fill-opacity="0.5"/>
<circle cx="15.8216" cy="21.3343" r="1.64871" fill="#FF8B84" fill-opacity="0.5"/>
<defs>
<linearGradient id="paint0_linear_387_12343" x1="26.237" y1="1" x2="44.4724" y2="37.8948" gradientUnits="userSpaceOnUse">
<stop stop-color="#FF5E48"/>
<stop offset="1" stop-color="#FF2F2F"/>
</linearGradient>
<linearGradient id="paint1_linear_387_12343" x1="24.1166" y1="40.8635" x2="43.2001" y2="46.8006" gradientUnits="userSpaceOnUse">
<stop stop-color="#CAECFF"/>
<stop offset="1" stop-color="#ABD3E9"/>
</linearGradient>
</defs>
</svg>
