<svg width="60" height="60" viewBox="0 0 60 60" fill="none" xmlns="http://www.w3.org/2000/svg">
<g clip-path="url(#clip0_387_12341)">
<path fill-rule="evenodd" clip-rule="evenodd" d="M53.3692 7.04597C54.5609 8.45769 55.5839 10.0485 56.2905 11.8079H56.2694C58.7899 18.0448 57.6826 25.0507 53.8121 29.9391C52.6732 31.0137 50.9647 29.7916 51.3971 28.2218L51.4815 27.9163C51.7662 25.0402 51.2811 22.143 50.0683 19.5724C49.3828 18.1291 48.4231 16.8964 47.263 15.9167L40.4029 40.615C40.389 40.6676 40.3749 40.72 40.3605 40.7724C40.2775 41.1432 40.1839 41.5041 40.0601 41.865V41.8755C39.7169 42.8986 39.2622 43.8757 38.7092 44.7942C35.6272 50.2877 29.7471 54 23 54C13.0589 54 5 45.9411 5 36C5 26.0589 13.0589 18 23 18C30.2919 18 36.571 22.3359 39.3999 28.5702L47.59 4.24359C47.9169 3.25328 48.9188 2.75812 49.8152 3.11632C50.0683 3.22167 50.3003 3.39023 50.4901 3.61147L53.3692 7.04597Z" fill="url(#paint0_linear_387_12341)"/>
<ellipse cx="14.9287" cy="28.4468" rx="3.77299" ry="5.38998" transform="rotate(23.4724 14.9287 28.4468)" fill="white" fill-opacity="0.5"/>
<circle cx="10.617" cy="36.532" r="1.617" fill="white" fill-opacity="0.5"/>
<path d="M32.1656 0.866675C31.9316 0.304374 31.1064 0.404078 31.013 1.00594L30.9508 1.40705C30.4724 4.49057 28.7154 7.22922 26.112 8.94944C25.7292 9.20241 25.7994 9.78389 26.2315 9.93839C29.1697 10.989 31.5284 13.2303 32.7275 16.1112L32.8835 16.4859C33.1175 17.0482 33.9427 16.9485 34.0361 16.3467L34.0983 15.9456C34.5767 12.862 36.3337 10.1234 38.9371 8.40316C39.32 8.15019 39.2497 7.56871 38.8176 7.41421C35.8794 6.3636 33.5207 4.12225 32.3216 1.24142L32.1656 0.866675Z" fill="url(#paint1_linear_387_12341)"/>
<path d="M20.0096 2.52925C19.8796 2.21676 19.421 2.27217 19.3691 2.60665L19.3483 2.74082C19.126 4.17359 18.3096 5.44612 17.0999 6.24542C16.8825 6.38908 16.9224 6.71931 17.1678 6.80705C18.533 7.29523 19.629 8.33668 20.1862 9.67527L20.2384 9.80062C20.3684 10.1131 20.827 10.0577 20.8789 9.72323L20.8997 9.58905C21.122 8.15628 21.9384 6.88376 23.1481 6.08445C23.3655 5.94079 23.3256 5.61056 23.0802 5.52282C21.7149 5.03465 20.619 3.9932 20.0618 2.65461L20.0096 2.52925Z" fill="url(#paint2_linear_387_12341)"/>
</g>
<defs>
<linearGradient id="paint0_linear_387_12341" x1="40" y1="5.5" x2="24.5" y2="44" gradientUnits="userSpaceOnUse">
<stop stop-color="#B3FF53"/>
<stop offset="1" stop-color="#DDFF57"/>
</linearGradient>
<linearGradient id="paint1_linear_387_12341" x1="31.3417" y1="-1.11269" x2="33.7074" y2="18.4653" gradientUnits="userSpaceOnUse">
<stop stop-color="#EEFFD7"/>
<stop offset="1" stop-color="#C1FF6E"/>
</linearGradient>
<linearGradient id="paint2_linear_387_12341" x1="19.5518" y1="1.42924" x2="20.6962" y2="10.9006" gradientUnits="userSpaceOnUse">
<stop stop-color="#EEFFD7"/>
<stop offset="1" stop-color="#C1FF6E"/>
</linearGradient>
<clipPath id="clip0_387_12341">
<rect width="60" height="60" fill="white"/>
</clipPath>
</defs>
</svg>
