<svg width="60" height="60" viewBox="0 0 60 60" fill="none" xmlns="http://www.w3.org/2000/svg">
<path d="M15.6743 9.46102C15.9667 9.17171 16.1959 8.82497 16.3476 8.44265C16.4993 8.06034 16.5701 7.65074 16.5556 7.23969C16.5411 6.82864 16.4416 6.42506 16.2633 6.05438C16.0851 5.68371 15.832 5.35398 15.5199 5.086C13.9497 3.74591 11.9548 3.0067 9.89053 3L9.43578 3.01252H9.36903C4.66164 3.29899 0.990285 7.38754 1.00002 12.3174C1.00002 14.9597 2.11255 16.3587 2.99145 17.4782C3.23808 17.7912 3.54725 18.0493 3.89924 18.2361C4.25123 18.4228 4.63829 18.5341 5.03572 18.5629C5.07188 18.5629 5.13307 18.5699 5.31386 18.5699C5.67135 18.5693 6.02504 18.4965 6.35365 18.3557C6.68226 18.215 6.979 18.0092 7.22602 17.7508L15.6743 9.46102ZM50.4687 3.0153L50.014 3.00139H49.9416C47.8754 3.00677 45.8783 3.74607 44.3067 5.08739C43.9951 5.35535 43.7424 5.68492 43.5644 6.05534C43.3864 6.42577 43.287 6.82902 43.2725 7.23972C43.258 7.65043 43.3287 8.05969 43.4801 8.44174C43.6315 8.82379 43.8604 9.17036 44.1523 9.45963L52.6034 17.7549C52.8509 18.0143 53.1485 18.2207 53.4781 18.3618C53.8078 18.5028 54.1626 18.5755 54.5211 18.5754C54.6991 18.5754 54.7603 18.5754 54.7992 18.5685C55.1964 18.5395 55.5832 18.4281 55.9349 18.2413C56.2867 18.0546 56.5956 17.7966 56.8421 17.4838C57.7266 16.3643 58.828 14.9694 58.8335 12.323C58.8419 7.38754 55.1705 3.29899 50.4687 3.0153Z" fill="url(#paint0_linear_387_12338)"/>
<path d="M54.7289 32.9373C54.7289 46.6411 43.6198 57.7501 29.9161 57.7501C16.2123 57.7501 5.10327 46.6411 5.10327 32.9373C5.10327 19.2336 16.2123 8.12451 29.9161 8.12451C43.6198 8.12451 54.7289 19.2336 54.7289 32.9373Z" fill="url(#paint1_linear_387_12338)"/>
<path fill-rule="evenodd" clip-rule="evenodd" d="M29.9161 53.4349C41.2366 53.4349 50.4136 44.2578 50.4136 32.9373C50.4136 21.6168 41.2366 12.4398 29.9161 12.4398C18.5956 12.4398 9.41854 21.6168 9.41854 32.9373C9.41854 44.2578 18.5956 53.4349 29.9161 53.4349ZM29.9161 57.7501C43.6198 57.7501 54.7289 46.6411 54.7289 32.9373C54.7289 19.2336 43.6198 8.12451 29.9161 8.12451C16.2123 8.12451 5.10327 19.2336 5.10327 32.9373C5.10327 46.6411 16.2123 57.7501 29.9161 57.7501Z" fill="url(#paint2_linear_387_12338)"/>
<path d="M41.0739 28.1408H33.5306L40.3137 19.3682C40.4541 19.1825 40.3274 18.9126 40.098 18.9126H26.9666C26.8708 18.9126 26.7783 18.9652 26.7304 19.0528L17.8585 34.7368C17.7524 34.9226 17.8825 35.1574 18.0948 35.1574H24.0664L21.0053 47.6907C20.9402 47.964 21.2621 48.1568 21.4607 47.9605L41.2622 28.6209C41.4403 28.4492 41.3204 28.1408 41.0739 28.1408Z" fill="url(#paint3_linear_387_12338)"/>
<defs>
<linearGradient id="paint0_linear_387_12338" x1="29.9168" y1="3" x2="29.9168" y2="18.5754" gradientUnits="userSpaceOnUse">
<stop stop-color="#FF5E53"/>
<stop offset="1" stop-color="#F24A3F"/>
</linearGradient>
<linearGradient id="paint1_linear_387_12338" x1="18.0491" y1="14.058" x2="46.6377" y2="48.5802" gradientUnits="userSpaceOnUse">
<stop offset="0.256752" stop-color="white"/>
<stop offset="1" stop-color="#EAEAEA"/>
</linearGradient>
<linearGradient id="paint2_linear_387_12338" x1="29.9161" y1="8.12451" x2="29.9161" y2="57.7501" gradientUnits="userSpaceOnUse">
<stop stop-color="#FF5E53"/>
<stop offset="1" stop-color="#F24A3F"/>
</linearGradient>
<linearGradient id="paint3_linear_387_12338" x1="29.5841" y1="18.9126" x2="29.5841" y2="48.0407" gradientUnits="userSpaceOnUse">
<stop stop-color="#FFD600"/>
<stop offset="0.623942" stop-color="#FFB800"/>
</linearGradient>
</defs>
</svg>
