<svg width="60" height="60" viewBox="0 0 60 60" fill="none" xmlns="http://www.w3.org/2000/svg">
<path d="M17.6514 8.71289L6.19297 10.5693C3.26401 11.0334 1.87162 12.8898 4.09722 19.0063L6.19293 23.5643L17.6514 8.71289Z" fill="#FF8D88"/>
<path d="M43.841 8.71289L55.2995 10.5693C58.2284 11.0334 59.6208 12.8898 57.3952 19.0063L55.2995 23.5643L43.841 8.71289Z" fill="#FF8D88"/>
<path d="M56.3763 30.86C56.3763 45.1359 44.8014 56.72 30.5163 56.72C16.2311 56.72 4.65625 45.1359 4.65625 30.86C4.65625 16.5841 16.2311 5 30.5163 5C44.8014 5 56.3763 16.5748 56.3763 30.86Z" fill="url(#paint0_linear_387_12340)"/>
<path d="M42.1188 37.8401C42.1188 42.8339 37.0601 46.8809 30.8132 46.8809C24.5663 46.8809 19.5076 42.8339 19.5076 37.8401C19.5076 32.8463 24.5756 28.7993 30.8132 28.7993C37.0508 28.7993 42.1188 32.8463 42.1188 37.8401Z" fill="url(#paint1_linear_387_12340)"/>
<path d="M28.5299 37.8404C28.5299 38.9171 27.7594 39.7989 26.8034 39.7989C25.8473 39.7989 25.0769 38.9264 25.0769 37.8404C25.0769 36.7544 25.8566 35.8818 26.8034 35.8818C27.7502 35.8818 28.5299 36.7544 28.5299 37.8404Z" fill="#6C4543"/>
<path d="M37.5242 37.8404C37.5242 38.9171 36.7538 39.7989 35.7978 39.7989C34.8417 39.7989 34.0713 38.9264 34.0713 37.8404C34.0713 36.7544 34.851 35.8818 35.7978 35.8818C36.7445 35.8818 37.5242 36.7544 37.5242 37.8404Z" fill="#6C4543"/>
<path d="M22.2922 24.9568C22.2922 26.7495 21.0497 28.2055 19.5075 28.2055C17.9654 28.2055 16.7229 26.7495 16.7229 24.9568C16.7229 23.164 17.9742 21.708 19.5075 21.708C21.0409 21.708 22.2922 23.164 22.2922 24.9568Z" fill="#43403E"/>
<path d="M45.4975 24.9568C45.4975 26.7495 44.255 28.2055 42.7129 28.2055C41.1707 28.2055 39.9282 26.7495 39.9282 24.9568C39.9282 23.164 41.1795 21.708 42.7129 21.708C44.2462 21.708 45.4975 23.164 45.4975 24.9568Z" fill="#43403E"/>
<defs>
<linearGradient id="paint0_linear_387_12340" x1="20.0554" y1="10.1052" x2="42.7966" y2="53.7312" gradientUnits="userSpaceOnUse">
<stop offset="0.427403" stop-color="#FFBAB7"/>
<stop offset="1" stop-color="#FF908A"/>
</linearGradient>
<linearGradient id="paint1_linear_387_12340" x1="28.242" y1="30.0618" x2="36.1318" y2="44.4491" gradientUnits="userSpaceOnUse">
<stop stop-color="#FF9A96"/>
<stop offset="1" stop-color="#FF7871"/>
</linearGradient>
</defs>
</svg>
