<svg width="20" height="20" viewBox="0 0 20 20" fill="none" xmlns="http://www.w3.org/2000/svg">
<g id="heroicons:fire-solid">
<path id="Vector" fill-rule="evenodd" clip-rule="evenodd" d="M10.8024 1.90503C10.7522 1.83773 10.689 1.78124 10.6164 1.73893C10.5439 1.69662 10.4636 1.66937 10.3803 1.65879C10.297 1.64821 10.2124 1.65453 10.1316 1.67736C10.0508 1.7002 9.9754 1.73908 9.90995 1.79169C8.3129 3.07384 7.25946 4.91222 6.96078 6.93836C6.41343 6.54144 5.93366 6.05886 5.53995 5.50919C5.48647 5.43444 5.41717 5.37241 5.33698 5.32751C5.25679 5.28261 5.16768 5.25594 5.07601 5.24942C4.98433 5.24289 4.89235 5.25666 4.80661 5.28975C4.72086 5.32285 4.64347 5.37444 4.57995 5.44086C3.47938 6.59216 2.7739 8.06393 2.56571 9.64297C2.35751 11.222 2.6574 12.8264 3.42194 14.2236C4.18649 15.6208 5.37598 16.7383 6.81812 17.4143C8.26026 18.0903 9.88016 18.2897 11.4432 17.9835C13.0062 17.6773 14.4311 16.8815 15.5116 15.7113C16.5921 14.5411 17.272 13.0574 17.4528 11.475C17.6337 9.89256 17.3061 8.29366 16.5175 6.90988C15.7289 5.5261 14.5202 4.4293 13.0666 3.77836C12.173 3.34383 11.3966 2.70144 10.8024 1.90503ZM13.1249 11.875C13.1246 12.3271 13.0263 12.7736 12.8366 13.1839C12.647 13.5943 12.3706 13.9586 12.0265 14.2517C11.6824 14.5448 11.2788 14.7598 10.8435 14.8818C10.4083 15.0039 9.95177 15.03 9.50544 14.9585C9.05911 14.887 8.63361 14.7195 8.2583 14.4675C7.88298 14.2156 7.56679 13.8853 7.33153 13.4993C7.09628 13.1133 6.94756 12.6809 6.89564 12.2318C6.84371 11.7828 6.88982 11.3278 7.03078 10.8984C7.55412 11.2859 8.15578 11.5734 8.80828 11.7317C8.98519 10.5908 9.55209 9.54654 10.4124 8.77669C11.1633 8.87668 11.8523 9.24597 12.3512 9.81589C12.8502 10.3858 13.1251 11.1176 13.1249 11.875Z" fill="#FF88B3"/>
</g>
</svg>
