<svg width="1728" height="1117" viewBox="0 0 1728 1117" fill="none" xmlns="http://www.w3.org/2000/svg">
<g clip-path="url(#clip0_146_1566)">
<rect width="1728" height="1117" fill="#11141A"/>
<path d="M810.5 -12V107.052C810.5 116.238 814.447 124.98 821.337 131.055L932.43 229.003C938.275 234.156 945.8 237 953.592 237H1125.5C1143.17 237 1157.5 222.673 1157.5 205V-34.5" stroke="#171C25" stroke-width="8"/>
<rect x="-142" y="-60" width="1105" height="618" rx="50" stroke="#171C25" stroke-width="8"/>
<rect x="-142" y="-60" width="1105" height="618" rx="50" stroke="#171C25" stroke-width="8"/>
<path d="M864 -60V196C864 223.614 841.614 246 814 246H449C407.579 246 374 279.579 374 321V321C374 362.421 407.579 396 449 396H724.93C733.143 396 741.19 398.317 748.145 402.686L938.593 522.299C953.159 531.447 962 547.44 962 564.641V1137" stroke="#171C25" stroke-width="8"/>
<path d="M-142 644H1072.04C1081.23 644 1089.98 640.049 1096.06 633.153L1169.44 549.847C1175.52 542.951 1184.27 539 1193.46 539H1241.35C1252.34 539 1262.55 544.637 1268.42 553.931L1369.08 713.569C1374.95 722.863 1385.16 728.5 1396.15 728.5H1746" stroke="#171C25" stroke-width="8"/>
<path d="M277 1148.5V515C277 495.118 293.118 479 313 479H338C357.882 479 374 462.882 374 443V-61.5" stroke="#171C25" stroke-width="8"/>
<path d="M437 1130V1066.28C437 1048.6 422.673 1034.28 405 1034.28H309C291.327 1034.28 277 1019.95 277 1002.28V957" stroke="#171C25" stroke-width="8"/>
<path d="M1256 1149V431.5C1256 411.618 1239.88 395.5 1220 395.5H704C684.118 395.5 668 379.382 668 359.5V-61" stroke="#171C25" stroke-width="8"/>
<path d="M1354 1378.5V922" stroke="#171C25" stroke-width="8"/>
<path d="M1255.5 -262V229C1255.5 248.882 1271.62 265 1291.5 265H1300C1319.88 265 1336 281.118 1336 301V798.5C1336 818.382 1352.12 834.5 1372 834.5H1439.24C1448.99 834.5 1458.33 838.458 1465.11 845.467L1738 1127.5" stroke="#171C25" stroke-width="8"/>
<path d="M-45 1164.5H324C351.614 1164.5 374 1142.11 374 1114.5V833.5C374 805.886 396.386 783.5 424 783.5H1033.81C1048.8 783.5 1063.01 776.77 1072.5 765.164L1773.5 -91.5" stroke="#171C25" stroke-width="8"/>
<rect x="209" y="168" width="1309" height="754" rx="45" stroke="#203A40" stroke-width="10"/>
<circle cx="293.5" cy="167" r="10.5" fill="#128B76" stroke="#11141A" stroke-width="5"/>
<path d="M287.857 193.688V194.426H283.557V195.486C285.537 195.562 286.686 196.16 286.697 197.203C286.686 198.322 285.367 198.926 283.111 198.926C280.844 198.926 279.508 198.322 279.514 197.203C279.508 196.16 280.668 195.568 282.654 195.486V194.426H278.365V193.688H287.857ZM278.916 192.41C280.855 192.229 282.496 191.455 282.602 190.301H279.35V189.551H282.654V188.508H283.557V189.551H286.896V190.301H283.621C283.715 191.455 285.361 192.229 287.295 192.41L287.014 193.125C285.291 192.949 283.744 192.328 283.111 191.273C282.473 192.328 280.932 192.949 279.209 193.125L278.916 192.41ZM280.451 197.203C280.439 197.859 281.424 198.223 283.111 198.211C284.781 198.223 285.766 197.859 285.771 197.203C285.766 196.547 284.781 196.178 283.111 196.172C281.424 196.178 280.439 196.547 280.451 197.203ZM297.373 188.531V194.742H296.447V192.012H294.35V191.25H296.447V188.531H297.373ZM288.783 193.91C290.33 193.354 291.432 191.941 291.432 190.453V190.066H289.076V189.293H294.689V190.066H292.357V190.441C292.357 191.801 293.4 193.096 294.924 193.617L294.443 194.355C293.277 193.934 292.369 193.055 291.918 191.982C291.473 193.201 290.506 194.174 289.264 194.648L288.783 193.91ZM290.424 197.004C290.418 195.779 291.748 195.064 293.916 195.07C296.078 195.064 297.408 195.779 297.408 197.004C297.408 198.234 296.078 198.938 293.916 198.949C291.748 198.938 290.418 198.234 290.424 197.004ZM291.338 197.004C291.332 197.76 292.316 198.217 293.916 198.211C295.51 198.217 296.494 197.76 296.494 197.004C296.494 196.242 295.51 195.785 293.916 195.785C292.316 195.785 291.332 196.242 291.338 197.004ZM308.646 196.887V197.66H299.107V196.887H303.396V194.918H300.303V191.707H306.537V190.066H300.279V189.305H307.439V192.457H301.217V194.156H307.686V194.918H304.299V196.887H308.646Z" fill="#9AA1B3"/>
<circle cx="388.5" cy="167" r="10.5" fill="#128B76" stroke="#11141A" stroke-width="5"/>
<path d="M382.254 191.332C382.248 193.236 383.543 195.146 385.078 195.844L384.516 196.57C383.326 195.996 382.301 194.76 381.803 193.277C381.322 194.848 380.297 196.166 379.078 196.781L378.492 196.008C380.045 195.299 381.328 193.307 381.34 191.332V189.434H382.254V191.332ZM386.215 198.973V188.531H387.141V198.973H386.215ZM392.473 190.77C392.479 192.064 393.598 193.236 395.133 193.688L394.688 194.402C393.48 194.039 392.52 193.254 392.045 192.229C391.6 193.365 390.645 194.262 389.402 194.672L388.957 193.969C390.486 193.453 391.564 192.182 391.57 190.77V190.547H389.215V189.809H391.57V188.484H392.496V189.809H394.828V190.547H392.473V190.77ZM390.609 197.027C390.604 195.814 391.934 195.123 394.102 195.129C396.264 195.123 397.594 195.814 397.594 197.027C397.594 198.234 396.264 198.926 394.102 198.926C391.934 198.926 390.604 198.234 390.609 197.027ZM391.523 197.027C391.518 197.754 392.502 198.199 394.102 198.199C395.701 198.199 396.68 197.754 396.68 197.027C396.68 196.283 395.701 195.855 394.102 195.844C392.502 195.855 391.518 196.283 391.523 197.027ZM394.5 192.281V191.52H396.633V188.531H397.559V194.848H396.633V192.281H394.5Z" fill="#9AA1B3"/>
<circle cx="483.5" cy="167" r="10.5" fill="#128B76" stroke="#11141A" stroke-width="5"/>
<path d="M462.74 188.719C465.055 188.719 466.414 189.357 466.42 190.512C466.414 191.695 465.055 192.334 462.74 192.34C460.414 192.334 459.049 191.695 459.049 190.512C459.049 189.357 460.414 188.719 462.74 188.719ZM457.994 193.793V193.043H467.486V193.793H457.994ZM459.143 195.398V194.695H466.268V197.027H460.08V198.105H466.584V198.832H459.166V196.348H465.365V195.398H459.143ZM460.01 190.512C459.998 191.238 461.012 191.637 462.74 191.637C464.469 191.637 465.477 191.238 465.482 190.512C465.477 189.826 464.469 189.416 462.74 189.41C461.012 189.416 459.998 189.826 460.01 190.512ZM472.092 191.73C472.098 193.5 473.381 195.299 474.916 195.961L474.4 196.688C473.182 196.137 472.133 194.936 471.646 193.494C471.16 195.023 470.105 196.348 468.916 196.945L468.365 196.219C469.859 195.504 471.16 193.535 471.166 191.73V190.371H468.705V189.609H474.576V190.371H472.092V191.73ZM476.029 198.949V188.531H476.955V198.949H476.029ZM488.275 196.887V197.66H478.736V196.887H483.025V194.918H479.932V191.707H486.166V190.066H479.908V189.305H487.068V192.457H480.846V194.156H487.314V194.918H483.928V196.887H488.275ZM497.709 188.531V194.121H496.795V188.531H497.709ZM489.354 191.438C489.348 190.014 490.502 189.035 492.084 189.047C493.666 189.035 494.809 190.014 494.814 191.438C494.809 192.855 493.666 193.834 492.084 193.828C490.502 193.834 489.348 192.855 489.354 191.438ZM490.256 191.438C490.244 192.387 491.012 193.061 492.084 193.066C493.145 193.061 493.912 192.387 493.912 191.438C493.912 190.482 493.145 189.814 492.084 189.82C491.012 189.814 490.244 190.482 490.256 191.438ZM490.959 198.809V194.648H491.873V195.914H496.795V194.648H497.709V198.809H490.959ZM491.873 198.059H496.795V196.652H491.873V198.059ZM507.717 189.211V190.125C507.717 191.109 507.717 192.193 507.418 193.688H508.971V194.449H504.67V198.973H503.744V194.449H499.479V193.688H506.486C506.803 192.188 506.803 191.098 506.803 190.125V189.973H500.674V189.211H507.717Z" fill="#9AA1B3"/>
<circle cx="578.5" cy="167" r="10.5" fill="#128B76" stroke="#11141A" stroke-width="5"/>
<path d="M559.223 188.719C561.537 188.719 562.896 189.357 562.902 190.512C562.896 191.695 561.537 192.334 559.223 192.34C556.896 192.334 555.531 191.695 555.531 190.512C555.531 189.357 556.896 188.719 559.223 188.719ZM554.477 193.793V193.043H563.969V193.793H554.477ZM555.625 195.398V194.695H562.75V197.027H556.562V198.105H563.066V198.832H555.648V196.348H561.848V195.398H555.625ZM556.492 190.512C556.48 191.238 557.494 191.637 559.223 191.637C560.951 191.637 561.959 191.238 561.965 190.512C561.959 189.826 560.951 189.416 559.223 189.41C557.494 189.416 556.48 189.826 556.492 190.512ZM568.574 191.73C568.58 193.5 569.863 195.299 571.398 195.961L570.883 196.688C569.664 196.137 568.615 194.936 568.129 193.494C567.643 195.023 566.588 196.348 565.398 196.945L564.848 196.219C566.342 195.504 567.643 193.535 567.648 191.73V190.371H565.188V189.609H571.059V190.371H568.574V191.73ZM572.512 198.949V188.531H573.438V198.949H572.512ZM584.758 196.887V197.66H575.219V196.887H579.508V194.918H576.414V191.707H582.648V190.066H576.391V189.305H583.551V192.457H577.328V194.156H583.797V194.918H580.41V196.887H584.758ZM588.895 198.117C587.207 198.117 585.994 197.215 585.941 195.867H587.008C587.066 196.676 587.869 197.18 588.883 197.18C590.002 197.18 590.811 196.576 590.816 195.691C590.811 194.766 590.072 194.115 588.754 194.109H588.062V193.184H588.754C589.785 193.184 590.506 192.604 590.5 191.73C590.506 190.881 589.885 190.318 588.918 190.312C588.01 190.318 587.184 190.816 587.137 191.648H586.117C586.17 190.301 587.424 189.398 588.93 189.398C590.547 189.398 591.531 190.459 591.52 191.672C591.531 192.639 590.969 193.342 590.078 193.594V193.652C591.186 193.822 591.854 194.613 591.848 195.691C591.854 197.086 590.588 198.117 588.895 198.117ZM601.059 188.531V192.773H602.746V193.547H601.059V198.949H600.145V188.531H601.059ZM593.066 196.242C595.756 194.906 597.221 192.896 597.432 190.43H593.547V189.656H598.363C598.357 192.604 596.975 195.293 593.582 196.969L593.066 196.242Z" fill="#9AA1B3"/>
<circle cx="673.5" cy="167" r="10.5" fill="#128B76" stroke="#11141A" stroke-width="5"/>
<path d="M654.182 188.719C656.496 188.719 657.855 189.357 657.861 190.512C657.855 191.695 656.496 192.334 654.182 192.34C651.855 192.334 650.49 191.695 650.49 190.512C650.49 189.357 651.855 188.719 654.182 188.719ZM649.436 193.793V193.043H658.928V193.793H649.436ZM650.584 195.398V194.695H657.709V197.027H651.521V198.105H658.025V198.832H650.607V196.348H656.807V195.398H650.584ZM651.451 190.512C651.439 191.238 652.453 191.637 654.182 191.637C655.91 191.637 656.918 191.238 656.924 190.512C656.918 189.826 655.91 189.416 654.182 189.41C652.453 189.416 651.439 189.826 651.451 190.512ZM663.533 191.73C663.539 193.5 664.822 195.299 666.357 195.961L665.842 196.688C664.623 196.137 663.574 194.936 663.088 193.494C662.602 195.023 661.547 196.348 660.357 196.945L659.807 196.219C661.301 195.504 662.602 193.535 662.607 191.73V190.371H660.146V189.609H666.018V190.371H663.533V191.73ZM667.471 198.949V188.531H668.396V198.949H667.471ZM679.717 196.887V197.66H670.178V196.887H674.467V194.918H671.373V191.707H677.607V190.066H671.35V189.305H678.51V192.457H672.287V194.156H678.756V194.918H675.369V196.887H679.717ZM680.713 196.266V195.398L684.533 189.516H685.834V195.34H687.018V196.266H685.834V198H684.826V196.266H680.713ZM681.85 195.34H684.826V190.852H684.721L681.85 195.27V195.34ZM696.1 188.531V192.773H697.787V193.547H696.1V198.949H695.186V188.531H696.1ZM688.107 196.242C690.797 194.906 692.262 192.896 692.473 190.43H688.588V189.656H693.404C693.398 192.604 692.016 195.293 688.623 196.969L688.107 196.242Z" fill="#9AA1B3"/>
<circle cx="768.5" cy="167" r="10.5" fill="#128B76" stroke="#11141A" stroke-width="5"/>
<path d="M752.498 193.688V194.426H742.994V193.688H747.295V192.469H744.201V189.023H751.314V189.762H745.104V191.719H751.385V192.469H748.186V193.688H752.498ZM744.143 197.062C744.137 195.873 745.49 195.193 747.74 195.188C749.973 195.193 751.314 195.873 751.326 197.062C751.314 198.264 749.973 198.938 747.74 198.949C745.49 198.938 744.137 198.264 744.143 197.062ZM745.08 197.062C745.068 197.795 746.07 198.217 747.74 198.211C749.393 198.217 750.395 197.795 750.4 197.062C750.395 196.342 749.393 195.914 747.74 195.914C746.07 195.914 745.068 196.342 745.08 197.062ZM762.271 188.531V198.949H761.393V193.488H759.857V198.41H759.014V188.766H759.857V192.727H761.393V188.531H762.271ZM753.752 196.371V189.809H757.654V190.57H754.666V195.586C756.102 195.58 757.092 195.527 758.252 195.293L758.334 196.066C757.08 196.324 756.02 196.365 754.42 196.371H753.752ZM773.264 193.863V194.625H769.021V196.758H768.107V194.625H763.725V193.863H773.264ZM764.943 198.727V195.727H765.869V197.953H772.197V198.727H764.943ZM764.967 192.668V189.047H772.021V192.668H764.967ZM765.869 191.93H771.107V189.773H765.869V191.93ZM782.744 195.246V198.949H781.818V195.984H775.736V195.246H782.744ZM774.271 191.613C774.266 190.16 775.42 189.123 776.979 189.129C777.881 189.123 778.648 189.48 779.129 190.066H781.818V188.531H782.744V194.672H781.818V193.172H779.135C778.654 193.764 777.887 194.115 776.979 194.109C775.42 194.121 774.266 193.096 774.271 191.613ZM775.15 191.613C775.15 192.627 775.912 193.336 776.979 193.336C778.004 193.336 778.783 192.627 778.783 191.613C778.783 190.635 778.004 189.914 776.979 189.914C775.912 189.914 775.15 190.635 775.15 191.613ZM779.551 192.41H781.818V190.828H779.545C779.627 191.074 779.674 191.332 779.674 191.613C779.674 191.895 779.627 192.164 779.551 192.41ZM787.971 191.332C787.971 193.166 789.184 195.059 790.666 195.785L790.104 196.523C788.955 195.926 787.994 194.689 787.531 193.242C787.068 194.777 786.084 196.096 784.912 196.723L784.326 195.984C785.85 195.234 787.057 193.236 787.068 191.332V189.434H787.971V191.332ZM791.627 198.949V188.531H792.541V192.762H794.287V193.559H792.541V198.949H791.627ZM757.707 211.863V212.625H753.465V214.758H752.551V212.625H748.168V211.863H757.707ZM749.387 216.727V213.727H750.312V215.953H756.641V216.727H749.387ZM749.41 210.668V207.047H756.465V210.668H749.41ZM750.312 209.93H755.551V207.773H750.312V209.93ZM766.637 206.531V210.973H768.301V211.746H766.637V216.949H765.711V206.531H766.637ZM758.422 214.172C759.271 214.172 760.262 214.166 761.293 214.137V212.988C760.08 212.848 759.289 212.133 759.301 211.102C759.289 209.924 760.285 209.162 761.762 209.168C763.215 209.162 764.229 209.924 764.234 211.102C764.229 212.139 763.426 212.848 762.219 212.988V214.102C763.186 214.055 764.17 213.973 765.078 213.844L765.137 214.547C762.863 214.934 760.402 214.957 758.574 214.957L758.422 214.172ZM758.609 208.559V207.809H761.293V206.555H762.219V207.809H764.891V208.559H758.609ZM760.156 211.102C760.162 211.822 760.795 212.297 761.762 212.285C762.711 212.297 763.35 211.822 763.355 211.102C763.35 210.375 762.711 209.883 761.762 209.883C760.795 209.883 760.162 210.375 760.156 211.102ZM773.633 213.117C775.865 213.117 777.283 213.82 777.289 215.027C777.283 216.223 775.865 216.926 773.633 216.926C771.4 216.926 769.982 216.223 769.988 215.027C769.982 213.82 771.4 213.117 773.633 213.117ZM768.934 212.145V211.395H772.859V209.379H773.762V211.395H778.414V212.145H768.934ZM770.059 207.82V207.07H777.207V207.949C777.201 208.793 777.201 209.637 776.914 210.715L776.012 210.609C776.293 209.537 776.293 208.764 776.293 207.949V207.82H770.059ZM770.902 215.027C770.896 215.754 771.975 216.199 773.633 216.199C775.297 216.199 776.363 215.754 776.375 215.027C776.363 214.283 775.297 213.826 773.633 213.82C771.975 213.826 770.896 214.283 770.902 215.027ZM787.883 206.543V214.453H786.957V213.375H784.801V212.707H786.957V206.543H787.883ZM779.234 211.371C781.174 211.359 783.787 211.342 786.02 211.066L786.078 211.734C785.152 211.881 784.174 211.975 783.219 212.033V214.09H782.293V212.08C781.238 212.121 780.236 212.121 779.363 212.121L779.234 211.371ZM780.078 208.781C780.072 207.686 781.115 206.965 782.656 206.965C784.186 206.965 785.229 207.686 785.234 208.781C785.229 209.895 784.186 210.586 782.656 210.586C781.115 210.586 780.072 209.895 780.078 208.781ZM780.734 216.727V213.68H781.66V215.953H788.141V216.727H780.734ZM780.957 208.781C780.945 209.461 781.637 209.9 782.656 209.906C783.646 209.9 784.35 209.461 784.355 208.781C784.35 208.113 783.646 207.656 782.656 207.668C781.637 207.656 780.945 208.113 780.957 208.781Z" fill="#9AA1B3"/>
<circle cx="863.5" cy="167" r="10.5" fill="#128B76" stroke="#11141A" stroke-width="5"/>
<path d="M862.152 188.543V196.184H861.238V188.543H862.152ZM853.656 193.957C855.232 193.342 856.305 191.818 856.305 190.172V189.129H857.242V190.172C857.23 191.76 858.314 193.184 859.867 193.746L859.387 194.484C858.18 194.021 857.242 193.084 856.779 191.883C856.328 193.16 855.379 194.186 854.16 194.672L853.656 193.957ZM855.426 198.727V195.48H856.34V197.953H862.48V198.727H855.426ZM872.078 188.531V191.25H873.637V192.023H872.078V194.754H871.152V188.531H872.078ZM864.402 193.898V189.328H869.031V190.09H865.305V193.148C867.414 193.137 868.627 193.072 870.027 192.785L870.121 193.547C868.662 193.84 867.414 193.898 865.211 193.898H864.402ZM865.27 196.934C865.275 195.686 866.6 194.959 868.727 194.953C870.854 194.959 872.16 195.686 872.16 196.934C872.16 198.199 870.854 198.926 868.727 198.926C866.6 198.926 865.275 198.199 865.27 196.934ZM866.172 196.934C866.178 197.707 867.156 198.182 868.727 198.188C870.285 198.182 871.275 197.707 871.27 196.934C871.275 196.166 870.285 195.703 868.727 195.715C867.156 195.703 866.178 196.166 866.172 196.934Z" fill="#9AA1B3"/>
<circle cx="958.5" cy="167" r="10.5" fill="#128B76" stroke="#11141A" stroke-width="5"/>
<path d="M941.66 190.219C941.66 191.637 942.738 192.938 944.25 193.453L943.746 194.18C942.598 193.758 941.689 192.896 941.232 191.807C940.787 193.043 939.855 193.998 938.637 194.473L938.145 193.734C939.703 193.154 940.752 191.76 940.758 190.148V189.07H941.66V190.219ZM939.527 197.027C939.533 195.838 940.84 195.141 942.984 195.141C945.123 195.141 946.418 195.838 946.418 197.027C946.418 198.24 945.123 198.926 942.984 198.926C940.84 198.926 939.533 198.24 939.527 197.027ZM940.453 197.027C940.441 197.766 941.414 198.193 942.984 198.199C944.561 198.193 945.521 197.766 945.527 197.027C945.521 196.318 944.561 195.879 942.984 195.879C941.414 195.879 940.441 196.318 940.453 197.027ZM945.41 194.871V188.531H946.324V191.25H947.895V192.023H946.324V194.871H945.41ZM956.684 188.543V191.461H958.242V192.246H956.684V195.199H955.758V188.543H956.684ZM948.539 193.746C949.354 193.746 950.303 193.74 951.293 193.705V192.732C949.992 192.604 949.143 191.883 949.148 190.828C949.143 189.686 950.186 188.936 951.727 188.93C953.256 188.936 954.311 189.686 954.316 190.828C954.311 191.865 953.479 192.58 952.219 192.727V193.67C953.191 193.617 954.182 193.541 955.09 193.406L955.16 194.074C952.951 194.455 950.467 194.484 948.656 194.484L948.539 193.746ZM949.898 197.109C949.893 195.955 951.188 195.299 953.32 195.293C955.453 195.299 956.748 195.955 956.754 197.109C956.748 198.258 955.453 198.926 953.32 198.926C951.188 198.926 949.893 198.258 949.898 197.109ZM950.016 190.828C950.004 191.566 950.695 192.064 951.727 192.07C952.746 192.064 953.443 191.566 953.449 190.828C953.443 190.113 952.746 189.639 951.727 189.633C950.695 189.639 950.004 190.113 950.016 190.828ZM950.801 197.109C950.789 197.795 951.75 198.199 953.32 198.199C954.873 198.199 955.834 197.795 955.84 197.109C955.834 196.418 954.873 196.014 953.32 196.008C951.75 196.014 950.789 196.418 950.801 197.109ZM962.613 189.867C962.602 191.303 963.727 192.604 965.273 193.113L964.828 193.828C963.604 193.406 962.631 192.539 962.156 191.426C961.688 192.627 960.703 193.582 959.461 194.027L958.992 193.289C960.562 192.744 961.676 191.373 961.676 189.867V188.883H962.613V189.867ZM960.773 198.809V194.648H961.688V195.914H966.609V194.648H967.523V198.809H960.773ZM961.688 198.059H966.609V196.652H961.688V198.059ZM966.609 194.121V188.531H967.523V194.121H966.609ZM977.895 188.531V198.973H976.98V188.531H977.895ZM969.879 190.266V189.504H974.73V193.207H970.84V195.668C972.568 195.674 974.109 195.592 975.973 195.293L976.066 196.066C974.15 196.365 972.568 196.441 970.77 196.441H969.902V192.457H973.805V190.266H969.879Z" fill="#9AA1B3"/>
<circle cx="1053.5" cy="167" r="10.5" fill="#128B76" stroke="#11141A" stroke-width="5"/>
<path d="M1046.5 188.543V191.461H1048.06V192.246H1046.5V195.199H1045.57V188.543H1046.5ZM1038.35 193.746C1039.17 193.746 1040.12 193.74 1041.11 193.705V192.732C1039.81 192.604 1038.96 191.883 1038.96 190.828C1038.96 189.686 1040 188.936 1041.54 188.93C1043.07 188.936 1044.12 189.686 1044.13 190.828C1044.12 191.865 1043.29 192.58 1042.03 192.727V193.67C1043.01 193.617 1044 193.541 1044.9 193.406L1044.97 194.074C1042.77 194.455 1040.28 194.484 1038.47 194.484L1038.35 193.746ZM1039.71 197.109C1039.71 195.955 1041 195.299 1043.13 195.293C1045.27 195.299 1046.56 195.955 1046.57 197.109C1046.56 198.258 1045.27 198.926 1043.13 198.926C1041 198.926 1039.71 198.258 1039.71 197.109ZM1039.83 190.828C1039.82 191.566 1040.51 192.064 1041.54 192.07C1042.56 192.064 1043.26 191.566 1043.26 190.828C1043.26 190.113 1042.56 189.639 1041.54 189.633C1040.51 189.639 1039.82 190.113 1039.83 190.828ZM1040.62 197.109C1040.6 197.795 1041.56 198.199 1043.13 198.199C1044.69 198.199 1045.65 197.795 1045.65 197.109C1045.65 196.418 1044.69 196.014 1043.13 196.008C1041.56 196.014 1040.6 196.418 1040.62 197.109ZM1052.43 189.867C1052.42 191.303 1053.54 192.604 1055.09 193.113L1054.64 193.828C1053.42 193.406 1052.45 192.539 1051.97 191.426C1051.5 192.627 1050.52 193.582 1049.28 194.027L1048.81 193.289C1050.38 192.744 1051.49 191.373 1051.49 189.867V188.883H1052.43V189.867ZM1050.59 198.809V194.648H1051.5V195.914H1056.42V194.648H1057.34V198.809H1050.59ZM1051.5 198.059H1056.42V196.652H1051.5V198.059ZM1056.42 194.121V188.531H1057.34V194.121H1056.42ZM1067.71 188.531V198.973H1066.79V188.531H1067.71ZM1059.69 190.266V189.504H1064.54V193.207H1060.65V195.668C1062.38 195.674 1063.92 195.592 1065.79 195.293L1065.88 196.066C1063.96 196.365 1062.38 196.441 1060.58 196.441H1059.72V192.457H1063.62V190.266H1059.69Z" fill="#9AA1B3"/>
<circle cx="1148.5" cy="167" r="10.5" fill="#128B76" stroke="#11141A" stroke-width="5"/>
<path d="M1141.51 188.543V191.977H1143.08V192.75H1141.51V196.348H1140.6V188.543H1141.51ZM1133.39 190.57V189.82H1136.04V188.543H1136.95V189.82H1139.6V190.57H1133.39ZM1133.99 193.09C1133.98 191.906 1134.99 191.145 1136.49 191.145C1137.98 191.145 1138.99 191.906 1139 193.09C1138.99 194.262 1137.98 195.018 1136.49 195.012C1134.99 195.018 1133.98 194.262 1133.99 193.09ZM1134.87 193.09C1134.86 193.822 1135.51 194.297 1136.49 194.285C1137.47 194.297 1138.12 193.822 1138.13 193.09C1138.12 192.346 1137.47 191.865 1136.49 191.871C1135.51 191.865 1134.86 192.346 1134.87 193.09ZM1134.99 198.727V195.727H1135.9V197.953H1141.99V198.727H1134.99ZM1153.43 190.113V190.875H1151.88V192.328H1153.43V193.102H1151.88V194.719H1150.97V188.531H1151.88V190.113H1153.43ZM1143.94 191.613C1143.93 190.16 1145.09 189.158 1146.67 189.164C1148.25 189.158 1149.4 190.16 1149.41 191.613C1149.4 193.061 1148.25 194.057 1146.67 194.062C1145.09 194.057 1143.93 193.061 1143.94 191.613ZM1144.84 191.613C1144.83 192.598 1145.61 193.277 1146.67 193.289C1147.73 193.277 1148.5 192.598 1148.51 191.613C1148.5 190.635 1147.73 189.938 1146.67 189.949C1145.61 189.938 1144.83 190.635 1144.84 191.613ZM1145.08 196.992C1145.09 195.756 1146.41 195.041 1148.54 195.035C1150.67 195.041 1151.97 195.756 1151.97 196.992C1151.97 198.205 1150.67 198.926 1148.54 198.926C1146.41 198.926 1145.09 198.205 1145.08 196.992ZM1146.01 196.992C1146 197.742 1146.97 198.182 1148.54 198.188C1150.12 198.182 1151.08 197.742 1151.08 196.992C1151.08 196.236 1150.12 195.785 1148.54 195.785C1146.97 195.785 1146 196.236 1146.01 196.992ZM1163.01 188.531V198.949H1162.13V193.488H1160.6V198.41H1159.76V188.766H1160.6V192.727H1162.13V188.531H1163.01ZM1154.49 196.371V189.809H1158.4V190.57H1155.41V195.586C1156.84 195.58 1157.83 195.527 1158.99 195.293L1159.08 196.066C1157.82 196.324 1156.76 196.365 1155.16 196.371H1154.49Z" fill="#9AA1B3"/>
<circle cx="1243.5" cy="167" r="10.5" fill="#128B76" stroke="#11141A" stroke-width="5"/>
<path d="M1243.04 193.43V194.168H1238.75V195.562H1241.84V198.949H1240.92V196.312H1234.58V195.562H1237.84V194.168H1233.55V193.43H1243.04ZM1234.44 192.445V188.93H1237.98V189.68H1235.39V191.701C1236.27 191.689 1237.14 191.625 1238.12 191.414L1238.21 192.152C1237.05 192.416 1236.06 192.445 1235.03 192.445H1234.44ZM1238.6 192.445V188.93H1242.13V189.68H1239.54V191.707H1242.2V192.445H1238.6ZM1252.56 188.531V194.543H1251.63V191.355H1249.31V190.594H1251.63V188.531H1252.56ZM1243.92 193.512C1245.5 192.979 1246.56 191.643 1246.57 190.09V188.988H1247.47V190.125C1247.46 191.502 1248.54 192.785 1250.05 193.289L1249.57 194.027C1248.4 193.6 1247.48 192.75 1247.03 191.684C1246.58 192.873 1245.64 193.793 1244.41 194.25L1243.92 193.512ZM1245.75 198.809V195.07H1252.56V198.809H1245.75ZM1246.66 198.059H1251.66V195.809H1246.66V198.059Z" fill="#9AA1B3"/>
<circle cx="1338.5" cy="167" r="10.5" fill="#128B76" stroke="#11141A" stroke-width="5"/>
<path d="M1332.14 190.172C1332.12 191.66 1333.19 192.967 1334.71 193.488L1334.2 194.203C1333.05 193.775 1332.15 192.926 1331.7 191.83C1331.25 193.078 1330.3 194.045 1329.04 194.52L1328.54 193.77C1330.14 193.207 1331.21 191.824 1331.22 190.207V189.129H1332.14V190.172ZM1330.24 196.98C1330.23 195.727 1331.56 195.006 1333.73 195.012C1335.89 195.006 1337.22 195.727 1337.22 196.98C1337.22 198.223 1335.89 198.926 1333.73 198.926C1331.56 198.926 1330.23 198.223 1330.24 196.98ZM1331.15 196.98C1331.15 197.736 1332.13 198.193 1333.73 198.188C1335.32 198.193 1336.31 197.736 1336.31 196.98C1336.31 196.201 1335.32 195.738 1333.73 195.738C1332.13 195.738 1331.15 196.201 1331.15 196.98ZM1333.94 191.531V190.77H1336.26V188.531H1337.19V194.707H1336.26V191.531H1333.94ZM1344.15 189.504C1344.15 190.975 1346.06 192.24 1347.95 192.504L1347.57 193.254C1345.95 192.984 1344.35 192.088 1343.68 190.811C1343.01 192.1 1341.41 192.984 1339.79 193.254L1339.41 192.504C1341.29 192.24 1343.2 190.998 1343.2 189.504V188.906H1344.15V189.504ZM1338.92 195.176V194.402H1348.41V195.176H1344.1V198.949H1343.2V195.176H1338.92Z" fill="#9AA1B3"/>
<circle cx="1433.5" cy="167" r="10.5" fill="#128B76" stroke="#11141A" stroke-width="5"/>
<path d="M1421.82 188.543V196.242H1420.89V192.527H1418.58V191.754H1420.89V188.543H1421.82ZM1413.34 194.285C1415.74 193.494 1417.41 191.994 1417.62 190.113H1413.87V189.34H1418.63C1418.62 192.018 1416.7 194.057 1413.74 195.023L1413.34 194.285ZM1415.18 198.727V195.457H1416.12V197.953H1422.09V198.727H1415.18ZM1432.46 188.531V198.949H1431.58V193.488H1430.04V198.41H1429.2V188.766H1430.04V192.727H1431.58V188.531H1432.46ZM1423.94 196.371V189.809H1427.84V190.57H1424.85V195.586C1426.29 195.58 1427.28 195.527 1428.44 195.293L1428.52 196.066C1427.27 196.324 1426.21 196.365 1424.61 196.371H1423.94ZM1442.52 188.531V194.121H1441.61V188.531H1442.52ZM1434.17 191.438C1434.16 190.014 1435.32 189.035 1436.9 189.047C1438.48 189.035 1439.62 190.014 1439.63 191.438C1439.62 192.855 1438.48 193.834 1436.9 193.828C1435.32 193.834 1434.16 192.855 1434.17 191.438ZM1435.07 191.438C1435.06 192.387 1435.83 193.061 1436.9 193.066C1437.96 193.061 1438.73 192.387 1438.73 191.438C1438.73 190.482 1437.96 189.814 1436.9 189.82C1435.83 189.814 1435.06 190.482 1435.07 191.438ZM1435.77 198.809V194.648H1436.69V195.914H1441.61V194.648H1442.52V198.809H1435.77ZM1436.69 198.059H1441.61V196.652H1436.69V198.059ZM1452.53 189.211V190.125C1452.53 191.109 1452.53 192.193 1452.23 193.688H1453.79V194.449H1449.48V198.973H1448.56V194.449H1444.29V193.688H1451.3C1451.62 192.188 1451.62 191.098 1451.62 190.125V189.973H1445.49V189.211H1452.53Z" fill="#9AA1B3"/>
<path d="M173.469 214.34C175.004 214.346 176.094 215.758 176.105 217.973C176.094 220.193 175.004 221.6 173.469 221.594C171.922 221.6 170.838 220.193 170.844 217.973C170.838 215.758 171.922 214.346 173.469 214.34ZM171.711 217.973C171.717 219.666 172.438 220.779 173.469 220.773C174.512 220.779 175.215 219.666 175.215 217.973C175.215 216.279 174.512 215.166 173.469 215.16C172.438 215.166 171.717 216.279 171.711 217.973ZM177.828 223.949V213.531H178.742V217.691H180.488V218.488H178.742V223.949H177.828ZM189.688 213.543V221.488H188.762V219.25H186.957V218.5H188.762V217.082H186.957V216.32H188.762V213.543H189.688ZM181.062 215.57V214.82H183.594V213.531H184.508V214.82H186.957V215.57H181.062ZM181.684 218.137C181.672 216.941 182.645 216.145 184.039 216.145C185.434 216.145 186.412 216.941 186.418 218.137C186.412 219.32 185.434 220.123 184.039 220.129C182.645 220.123 181.672 219.32 181.684 218.137ZM182.539 218.137C182.533 218.887 183.148 219.396 184.039 219.391C184.93 219.396 185.545 218.887 185.551 218.137C185.545 217.387 184.93 216.883 184.039 216.871C183.148 216.883 182.533 217.387 182.539 218.137ZM182.949 223.727V220.785H183.875V222.953H189.922V223.727H182.949Z" fill="#9AA1B3"/>
<circle cx="209" cy="218" r="10.5" fill="#128B76" stroke="#11141A" stroke-width="5"/>
<path d="M179.27 298.531V308.973H178.344V298.531H179.27ZM171.066 302.973C171.072 300.758 172.174 299.346 173.727 299.34C175.273 299.346 176.393 300.758 176.387 302.973C176.393 305.193 175.273 306.6 173.727 306.594C172.174 306.6 171.072 305.193 171.066 302.973ZM171.957 302.973C171.957 304.666 172.684 305.779 173.727 305.773C174.775 305.779 175.496 304.666 175.496 302.973C175.496 301.279 174.775 300.166 173.727 300.16C172.684 300.166 171.957 301.279 171.957 302.973ZM189.957 298.531V308.949H189.078V303.488H187.543V308.41H186.699V298.766H187.543V302.727H189.078V298.531H189.957ZM181.438 306.371V299.809H185.34V300.57H182.352V305.586C183.787 305.58 184.777 305.527 185.938 305.293L186.02 306.066C184.766 306.324 183.705 306.365 182.105 306.371H181.438Z" fill="#9AA1B3"/>
<circle cx="209" cy="303" r="10.5" fill="#128B76" stroke="#11141A" stroke-width="5"/>
<path d="M179.281 383.543V391.184H178.367V383.543H179.281ZM170.785 388.957C172.361 388.342 173.434 386.818 173.434 385.172V384.129H174.371V385.172C174.359 386.76 175.443 388.184 176.996 388.746L176.516 389.484C175.309 389.021 174.371 388.084 173.908 386.883C173.457 388.16 172.508 389.186 171.289 389.672L170.785 388.957ZM172.555 393.727V390.48H173.469V392.953H179.609V393.727H172.555ZM190.543 389.285V390.047H181.051V389.285H185.34V387.914H186.242V389.285H190.543ZM181.637 387.715C183.582 387.492 185.223 386.637 185.293 385.406H182.035V384.668H185.34V383.52H186.242V384.668H189.582V385.406H186.301C186.359 386.637 188.006 387.492 189.957 387.715L189.652 388.43C187.953 388.219 186.424 387.557 185.797 386.461C185.164 387.557 183.641 388.219 181.941 388.43L181.637 387.715ZM182.281 393.727V390.867H183.207V392.953H189.488V393.727H182.281Z" fill="#9AA1B3"/>
<circle cx="209" cy="388" r="10.5" fill="#128B76" stroke="#11141A" stroke-width="5"/>
<path d="M154.684 475.75C156.969 475.744 158.258 476.301 158.27 477.355C158.258 478.387 156.969 478.926 154.684 478.926C152.375 478.926 151.08 478.387 151.086 477.355C151.08 476.301 152.375 475.744 154.684 475.75ZM149.938 475.094V474.355H154.227V473.541C152.352 473.471 151.297 472.967 151.297 472.07C151.297 471.08 152.521 470.576 154.684 470.57C156.84 470.576 158.059 471.08 158.059 472.07C158.059 472.967 157.01 473.471 155.141 473.541V474.355H159.43V475.094H149.938ZM150.43 470.148V469.41H154.227V468.391H155.141V469.41H158.879V470.148H150.43ZM152.023 477.355C152.029 477.924 152.99 478.24 154.684 478.234C156.371 478.24 157.332 477.924 157.332 477.355C157.332 476.764 156.371 476.441 154.684 476.441C152.99 476.441 152.029 476.764 152.023 477.355ZM152.281 472.07C152.275 472.586 153.154 472.885 154.684 472.891C156.213 472.885 157.08 472.586 157.086 472.07C157.08 471.52 156.213 471.221 154.684 471.227C153.154 471.221 152.275 471.52 152.281 472.07ZM169.215 468.531V478.949H168.336V473.488H166.801V478.41H165.957V468.766H166.801V472.727H168.336V468.531H169.215ZM160.695 476.371V469.809H164.598V470.57H161.609V475.586C163.045 475.58 164.035 475.527 165.195 475.293L165.277 476.066C164.023 476.324 162.963 476.365 161.363 476.371H160.695ZM179.281 468.531V474.121H178.367V468.531H179.281ZM170.926 471.438C170.92 470.014 172.074 469.035 173.656 469.047C175.238 469.035 176.381 470.014 176.387 471.438C176.381 472.855 175.238 473.834 173.656 473.828C172.074 473.834 170.92 472.855 170.926 471.438ZM171.828 471.438C171.816 472.387 172.584 473.061 173.656 473.066C174.717 473.061 175.484 472.387 175.484 471.438C175.484 470.482 174.717 469.814 173.656 469.82C172.584 469.814 171.816 470.482 171.828 471.438ZM172.531 478.809V474.648H173.445V475.914H178.367V474.648H179.281V478.809H172.531ZM173.445 478.059H178.367V476.652H173.445V478.059ZM189.289 469.211V470.125C189.289 471.109 189.289 472.193 188.99 473.688H190.543V474.449H186.242V478.973H185.316V474.449H181.051V473.688H188.059C188.375 472.188 188.375 471.098 188.375 470.125V469.973H182.246V469.211H189.289Z" fill="#9AA1B3"/>
<circle cx="209" cy="473" r="10.5" fill="#128B76" stroke="#11141A" stroke-width="5"/>
<path d="M178.824 553.531V556.203H180.395V556.988H178.824V559.59H177.91V553.531H178.824ZM170.703 555.371V554.609H173.352V553.438H174.266V554.609H176.914V555.371H170.703ZM171.301 557.68C171.295 556.566 172.297 555.857 173.809 555.852C175.303 555.857 176.305 556.566 176.316 557.68C176.305 558.793 175.303 559.514 173.809 559.508C172.297 559.514 171.295 558.793 171.301 557.68ZM172.18 557.68C172.174 558.359 172.824 558.805 173.809 558.805C174.781 558.805 175.438 558.359 175.449 557.68C175.438 557.006 174.781 556.555 173.809 556.566C172.824 556.555 172.174 557.006 172.18 557.68ZM172.238 563.809V560.047H173.152V561.16H177.91V560.047H178.824V563.809H172.238ZM173.152 563.07H177.91V561.887H173.152V563.07ZM189.688 553.531V559.742H188.762V557.012H186.664V556.25H188.762V553.531H189.688ZM181.098 558.91C182.645 558.354 183.746 556.941 183.746 555.453V555.066H181.391V554.293H187.004V555.066H184.672V555.441C184.672 556.801 185.715 558.096 187.238 558.617L186.758 559.355C185.592 558.934 184.684 558.055 184.232 556.982C183.787 558.201 182.82 559.174 181.578 559.648L181.098 558.91ZM182.738 562.004C182.732 560.779 184.062 560.064 186.23 560.07C188.393 560.064 189.723 560.779 189.723 562.004C189.723 563.234 188.393 563.938 186.23 563.949C184.062 563.938 182.732 563.234 182.738 562.004ZM183.652 562.004C183.646 562.76 184.631 563.217 186.23 563.211C187.824 563.217 188.809 562.76 188.809 562.004C188.809 561.242 187.824 560.785 186.23 560.785C184.631 560.785 183.646 561.242 183.652 562.004Z" fill="#9AA1B3"/>
<circle cx="209" cy="558" r="10.5" fill="#128B76" stroke="#11141A" stroke-width="5"/>
<path d="M178.836 638.531V641.25H180.395V642.023H178.836V644.754H177.91V638.531H178.836ZM171.16 643.898V639.328H175.789V640.09H172.062V643.148C174.172 643.137 175.385 643.072 176.785 642.785L176.879 643.547C175.42 643.84 174.172 643.898 171.969 643.898H171.16ZM172.027 646.934C172.033 645.686 173.357 644.959 175.484 644.953C177.611 644.959 178.918 645.686 178.918 646.934C178.918 648.199 177.611 648.926 175.484 648.926C173.357 648.926 172.033 648.199 172.027 646.934ZM172.93 646.934C172.936 647.707 173.914 648.182 175.484 648.188C177.043 648.182 178.033 647.707 178.027 646.934C178.033 646.166 177.043 645.703 175.484 645.715C173.914 645.703 172.936 646.166 172.93 646.934ZM184.555 640.5C184.549 641.936 185.633 643.26 187.168 643.793L186.699 644.531C185.516 644.098 184.596 643.219 184.133 642.117C183.693 643.359 182.75 644.314 181.52 644.789L181.016 644.051C182.604 643.494 183.646 642.082 183.652 640.465V639.176H184.555V640.5ZM182.691 648.727V645.492H183.629V647.953H189.676V648.727H182.691ZM188.281 646.23V638.531H189.195V641.73H190.766V642.516H189.195V646.23H188.281Z" fill="#9AA1B3"/>
<circle cx="209" cy="643" r="10.5" fill="#128B76" stroke="#11141A" stroke-width="5"/>
<path d="M142.438 724.164C143.316 724.158 144.061 724.492 144.547 725.043H147.277V723.531H148.203V729.707H147.277V728.219H144.547C144.066 728.77 143.316 729.104 142.438 729.098C140.879 729.104 139.725 728.084 139.73 726.637C139.725 725.178 140.879 724.158 142.438 724.164ZM140.609 726.637C140.609 727.604 141.371 728.318 142.438 728.312C143.469 728.318 144.242 727.604 144.242 726.637C144.242 725.646 143.469 724.955 142.438 724.961C141.371 724.955 140.609 725.646 140.609 726.637ZM141.254 731.934C141.248 730.68 142.584 729.953 144.746 729.953C146.902 729.953 148.238 730.68 148.238 731.934C148.238 733.199 146.902 733.926 144.746 733.926C142.584 733.926 141.248 733.199 141.254 731.934ZM142.156 731.934C142.15 732.719 143.146 733.193 144.746 733.188C146.346 733.193 147.342 732.719 147.336 731.934C147.342 731.143 146.346 730.674 144.746 730.668C143.146 730.674 142.15 731.143 142.156 731.934ZM144.986 725.793C145.08 726.051 145.133 726.332 145.133 726.637C145.133 726.93 145.08 727.205 144.992 727.457H147.277V725.793H144.986ZM159.441 728.488V729.262H149.938V728.488H159.441ZM151.086 732.051C151.08 730.855 152.434 730.176 154.684 730.176C156.916 730.176 158.258 730.855 158.27 732.051C158.258 733.258 156.916 733.926 154.684 733.926C152.434 733.926 151.08 733.258 151.086 732.051ZM151.145 727.492V723.953H158.258V724.727H152.047V726.742H158.328V727.492H151.145ZM152.023 732.051C152.012 732.783 153.014 733.199 154.684 733.199C156.336 733.199 157.338 732.783 157.344 732.051C157.338 731.324 156.336 730.902 154.684 730.891C153.014 730.902 152.012 731.324 152.023 732.051ZM169.848 731.875V732.66H160.309V731.875H164.586V729.473H161.176V728.734H162.805V725.312H161.152V724.551H168.934V725.312H167.281V728.734H168.91V729.473H165.488V731.875H169.848ZM163.719 728.734H166.379V725.312H163.719V728.734ZM178.918 724.211V725.125C178.918 726.109 178.918 727.193 178.619 728.688H180.172V729.449H175.871V733.973H174.945V729.449H170.68V728.688H177.688C178.004 727.188 178.004 726.098 178.004 725.125V724.973H171.875V724.211H178.918ZM184.602 725.77C184.607 727.064 185.727 728.236 187.262 728.688L186.816 729.402C185.609 729.039 184.648 728.254 184.174 727.229C183.729 728.365 182.773 729.262 181.531 729.672L181.086 728.969C182.615 728.453 183.693 727.182 183.699 725.77V725.547H181.344V724.809H183.699V723.484H184.625V724.809H186.957V725.547H184.602V725.77ZM182.738 732.027C182.732 730.814 184.062 730.123 186.23 730.129C188.393 730.123 189.723 730.814 189.723 732.027C189.723 733.234 188.393 733.926 186.23 733.926C184.062 733.926 182.732 733.234 182.738 732.027ZM183.652 732.027C183.646 732.754 184.631 733.199 186.23 733.199C187.83 733.199 188.809 732.754 188.809 732.027C188.809 731.283 187.83 730.855 186.23 730.844C184.631 730.855 183.646 731.283 183.652 732.027ZM186.629 727.281V726.52H188.762V723.531H189.688V729.848H188.762V727.281H186.629Z" fill="#9AA1B3"/>
<circle cx="209" cy="728" r="10.5" fill="#128B76" stroke="#11141A" stroke-width="5"/>
<path d="M180.207 813.863V814.625H175.965V816.758H175.051V814.625H170.668V813.863H180.207ZM171.887 818.727V815.727H172.812V817.953H179.141V818.727H171.887ZM171.91 812.668V809.047H178.965V812.668H171.91ZM172.812 811.93H178.051V809.773H172.812V811.93ZM185.305 809.668V813.312H182.293V815.68C183.494 815.674 184.625 815.627 185.973 815.398L186.055 816.148C184.572 816.406 183.395 816.453 182.082 816.453H181.402V812.551H184.414V810.441H181.379V809.668H185.305ZM186.699 818.41V808.766H187.543V812.656H189.078V808.531H189.957V818.949H189.078V813.418H187.543V818.41H186.699Z" fill="#9AA1B3"/>
<circle cx="209" cy="813" r="10.5" fill="#128B76" stroke="#11141A" stroke-width="5"/>
<path d="M168.723 898.418V899.168H165.5V901.863H169.848V902.637H160.309V901.863H164.598V899.168H161.527V894.387H168.617V895.137H162.453V898.418H168.723ZM179.281 893.543V899.719H178.367V893.543H179.281ZM171.207 894.914V894.176H175.965V897H172.121V898.441C173.984 898.453 175.373 898.395 177.066 898.113L177.172 898.887C175.42 899.156 173.996 899.215 172.074 899.215H171.23V896.273H175.051V894.914H171.207ZM172.508 903.809V900.281H179.281V903.809H172.508ZM173.41 903.059H178.379V901.031H173.41V903.059ZM184.602 896.027C184.607 897.416 185.703 898.623 187.25 899.109L186.793 899.848C185.592 899.455 184.637 898.629 184.168 897.557C183.717 898.705 182.768 899.596 181.543 900.023L181.086 899.309C182.627 898.793 183.693 897.498 183.699 896.027V895.688H181.344V894.938H183.699V893.602H184.625V894.938H186.957V895.688H184.602V896.027ZM182.996 903.727V900.621H183.922V902.953H189.98V903.727H182.996ZM186.594 897.516V896.754H188.762V893.543H189.688V901.324H188.762V897.516H186.594Z" fill="#9AA1B3"/>
<circle cx="209" cy="898" r="10.5" fill="#128B76" stroke="#11141A" stroke-width="5"/>
<circle cx="1518" cy="218" r="10.5" fill="#128B76" stroke="#11141A" stroke-width="5"/>
<path d="M1544.66 214.211V215.125C1544.66 216.109 1544.66 217.193 1544.36 218.688H1545.91V219.449H1541.61V223.973H1540.69V219.449H1536.42V218.688H1543.43C1543.75 217.188 1543.75 216.098 1543.75 215.125V214.973H1537.62V214.211H1544.66ZM1550.2 214.293C1551.84 214.299 1553 215.295 1553 216.742C1553 218.195 1551.84 219.186 1550.2 219.191C1548.56 219.186 1547.38 218.195 1547.39 216.742C1547.38 215.295 1548.56 214.299 1550.2 214.293ZM1546.85 220.891C1548.77 220.896 1551.43 220.879 1553.73 220.539L1553.8 221.219C1551.42 221.664 1548.86 221.676 1546.98 221.676L1546.85 220.891ZM1548.29 216.742C1548.29 217.715 1549.09 218.383 1550.2 218.383C1551.3 218.383 1552.11 217.715 1552.1 216.742C1552.11 215.775 1551.3 215.102 1550.2 215.102C1549.09 215.102 1548.29 215.775 1548.29 216.742ZM1554.42 223.973V213.531H1555.34V223.973H1554.42Z" fill="#9AA1B3"/>
<circle cx="1518" cy="303" r="10.5" fill="#128B76" stroke="#11141A" stroke-width="5"/>
<path d="M1544.57 298.531V301.25H1546.14V302.012H1544.57V304.789H1543.65V298.531H1544.57ZM1536.43 304.051C1538.95 303.324 1540.55 301.877 1540.74 300.066H1536.89V299.305H1541.73C1541.72 301.959 1539.86 303.904 1536.82 304.801L1536.43 304.051ZM1537.86 306.91C1537.86 305.662 1539.2 304.9 1541.27 304.906C1543.37 304.9 1544.68 305.662 1544.68 306.91C1544.68 308.176 1543.37 308.926 1541.27 308.926C1539.2 308.926 1537.86 308.176 1537.86 306.91ZM1538.78 306.91C1538.77 307.695 1539.74 308.193 1541.27 308.188C1542.8 308.193 1543.79 307.695 1543.79 306.91C1543.79 306.125 1542.8 305.639 1541.27 305.645C1539.74 305.639 1538.77 306.125 1538.78 306.91ZM1555.43 298.543V306.254H1554.5V303.453H1552.04V304.473H1547.32V299.234H1548.23V301.086H1551.14V299.234H1552.04V300.453H1554.5V298.543H1555.43ZM1548.23 303.711H1551.14V301.812H1548.23V303.711ZM1548.69 308.727V305.492H1549.62V307.953H1555.66V308.727H1548.69ZM1552.04 302.691H1554.5V301.227H1552.04V302.691Z" fill="#9AA1B3"/>
<circle cx="1518" cy="388" r="10.5" fill="#128B76" stroke="#11141A" stroke-width="5"/>
<path d="M1539.95 385.418C1539.94 386.801 1540.96 388.043 1542.52 388.559L1542.05 389.297C1540.86 388.887 1539.94 388.037 1539.5 386.977C1539.05 388.154 1538.09 389.086 1536.86 389.543L1536.38 388.793C1537.95 388.26 1539.02 386.924 1539.02 385.43V385.02H1536.66V384.27H1542.27V385.02H1539.95V385.418ZM1537.99 393.809V390.152H1544.57V393.809H1537.99ZM1538.89 393.059H1543.65V390.891H1538.89V393.059ZM1543.65 389.672V383.531H1544.57V386.133H1546.14V386.906H1544.57V389.672H1543.65ZM1555.38 383.531V388.934H1554.48V383.531H1555.38ZM1546.86 388.102C1548.43 387.557 1549.55 386.162 1549.55 384.633V383.836H1550.48V384.633C1550.47 386.104 1551.6 387.404 1553.14 387.914L1552.69 388.629C1551.46 388.213 1550.5 387.34 1550.03 386.215C1549.56 387.428 1548.58 388.383 1547.34 388.828L1546.86 388.102ZM1548.62 390.199V389.461H1555.39V391.957H1549.55V393.082H1555.77V393.832H1548.64V391.242H1554.48V390.199H1548.62ZM1566.91 387.691V388.465H1565.23V393.949H1564.31V383.531H1565.23V387.691H1566.91ZM1557.6 391.301V384.562H1558.51V390.527C1560.04 390.527 1561.59 390.41 1563.3 390.047L1563.42 390.832C1561.62 391.195 1560.01 391.301 1558.43 391.301H1557.6ZM1575.9 383.953V386.66H1569.62V388.008H1576.12V388.77H1568.7V385.934H1574.96V384.703H1568.67V383.953H1575.9ZM1567.52 390.609V389.871H1577.06V390.609H1572.73V393.973H1571.81V390.609H1567.52Z" fill="#9AA1B3"/>
<circle cx="1518" cy="473" r="10.5" fill="#128B76" stroke="#11141A" stroke-width="5"/>
<path d="M1539.95 470.418C1539.94 471.801 1540.96 473.043 1542.52 473.559L1542.05 474.297C1540.86 473.887 1539.94 473.037 1539.5 471.977C1539.05 473.154 1538.09 474.086 1536.86 474.543L1536.38 473.793C1537.95 473.26 1539.02 471.924 1539.02 470.43V470.02H1536.66V469.27H1542.27V470.02H1539.95V470.418ZM1537.99 478.809V475.152H1544.57V478.809H1537.99ZM1538.89 478.059H1543.65V475.891H1538.89V478.059ZM1543.65 474.672V468.531H1544.57V471.133H1546.14V471.906H1544.57V474.672H1543.65ZM1555.38 468.531V473.934H1554.48V468.531H1555.38ZM1546.86 473.102C1548.43 472.557 1549.55 471.162 1549.55 469.633V468.836H1550.48V469.633C1550.47 471.104 1551.6 472.404 1553.14 472.914L1552.69 473.629C1551.46 473.213 1550.5 472.34 1550.03 471.215C1549.56 472.428 1548.58 473.383 1547.34 473.828L1546.86 473.102ZM1548.62 475.199V474.461H1555.39V476.957H1549.55V478.082H1555.77V478.832H1548.64V476.242H1554.48V475.199H1548.62Z" fill="#9AA1B3"/>
<circle cx="1518" cy="558" r="10.5" fill="#128B76" stroke="#11141A" stroke-width="5"/>
<path d="M1539.95 555.418C1539.94 556.801 1540.96 558.043 1542.52 558.559L1542.05 559.297C1540.86 558.887 1539.94 558.037 1539.5 556.977C1539.05 558.154 1538.09 559.086 1536.86 559.543L1536.38 558.793C1537.95 558.26 1539.02 556.924 1539.02 555.43V555.02H1536.66V554.27H1542.27V555.02H1539.95V555.418ZM1537.99 563.809V560.152H1544.57V563.809H1537.99ZM1538.89 563.059H1543.65V560.891H1538.89V563.059ZM1543.65 559.672V553.531H1544.57V556.133H1546.14V556.906H1544.57V559.672H1543.65ZM1555.38 553.531V558.934H1554.48V553.531H1555.38ZM1546.86 558.102C1548.43 557.557 1549.55 556.162 1549.55 554.633V553.836H1550.48V554.633C1550.47 556.104 1551.6 557.404 1553.14 557.914L1552.69 558.629C1551.46 558.213 1550.5 557.34 1550.03 556.215C1549.56 557.428 1548.58 558.383 1547.34 558.828L1546.86 558.102ZM1548.62 560.199V559.461H1555.39V561.957H1549.55V563.082H1555.77V563.832H1548.64V561.242H1554.48V560.199H1548.62ZM1560.28 556.473C1560.28 558.184 1561.11 559.953 1562.5 560.703L1561.95 561.43C1560.94 560.855 1560.22 559.789 1559.84 558.535C1559.46 559.9 1558.68 561.066 1557.64 561.688L1557.05 561.008C1558.5 560.176 1559.4 558.318 1559.39 556.531V554.516H1560.28V556.473ZM1562.88 563.422V553.754H1563.77V557.727H1565.2V553.531H1566.09V563.949H1565.2V558.488H1563.77V563.422H1562.88ZM1576.43 553.531V563.949H1575.53V558.559H1574.03V563.41H1573.16V553.766H1574.03V557.773H1575.53V553.531H1576.43ZM1568.06 561.254V554.809H1568.98V560.434C1570.01 560.428 1571.12 560.352 1572.39 560.094L1572.5 560.914C1571.05 561.178 1569.86 561.254 1568.71 561.254H1568.06Z" fill="#9AA1B3"/>
<circle cx="1518" cy="643" r="10.5" fill="#128B76" stroke="#11141A" stroke-width="5"/>
<path d="M1541.61 642.234V643.723H1545.91V644.484H1536.42V643.723H1540.71V642.234H1541.61ZM1536.95 642.023C1538.77 641.83 1540.51 640.939 1540.57 639.773H1537.29V639.023H1545.07V639.773H1541.77C1541.83 640.934 1543.57 641.83 1545.39 642.023L1545.05 642.75C1543.34 642.539 1541.74 641.795 1541.17 640.641C1540.59 641.795 1539.01 642.539 1537.29 642.75L1536.95 642.023ZM1537.57 647.133C1537.56 645.979 1538.91 645.34 1541.17 645.34C1543.41 645.34 1544.74 645.979 1544.75 647.133C1544.74 648.293 1543.41 648.926 1541.17 648.926C1538.91 648.926 1537.56 648.293 1537.57 647.133ZM1538.51 647.133C1538.5 647.818 1539.48 648.217 1541.17 648.211C1542.84 648.217 1543.82 647.818 1543.83 647.133C1543.82 646.453 1542.84 646.061 1541.17 646.066C1539.48 646.061 1538.5 646.453 1538.51 647.133ZM1554.94 638.531V641.203H1556.51V641.988H1554.94V644.59H1554.02V638.531H1554.94ZM1546.82 640.371V639.609H1549.46V638.438H1550.38V639.609H1553.03V640.371H1546.82ZM1547.41 642.68C1547.41 641.566 1548.41 640.857 1549.92 640.852C1551.42 640.857 1552.42 641.566 1552.43 642.68C1552.42 643.793 1551.42 644.514 1549.92 644.508C1548.41 644.514 1547.41 643.793 1547.41 642.68ZM1548.29 642.68C1548.29 643.359 1548.94 643.805 1549.92 643.805C1550.89 643.805 1551.55 643.359 1551.56 642.68C1551.55 642.006 1550.89 641.555 1549.92 641.566C1548.94 641.555 1548.29 642.006 1548.29 642.68ZM1548.35 648.809V645.047H1549.27V646.16H1554.02V645.047H1554.94V648.809H1548.35ZM1549.27 648.07H1554.02V646.887H1549.27V648.07ZM1566.69 643.828V644.59H1562.46V646.723H1561.54V644.59H1557.15V643.828H1566.69ZM1558.23 640.898C1558.22 639.604 1559.68 638.807 1561.91 638.801C1564.14 638.807 1565.58 639.604 1565.58 640.898C1565.58 642.182 1564.14 642.979 1561.91 642.973C1559.68 642.979 1558.22 642.182 1558.23 640.898ZM1558.38 648.727V645.68H1559.31V647.941H1565.62V648.727H1558.38ZM1559.21 640.898C1559.2 641.707 1560.29 642.223 1561.91 642.223C1563.53 642.223 1564.61 641.707 1564.61 640.898C1564.61 640.066 1563.53 639.557 1561.91 639.551C1560.29 639.557 1559.2 640.066 1559.21 640.898ZM1577.04 643.688V644.426H1567.54V643.688H1571.84V642.469H1568.74V639.023H1575.86V639.762H1569.64V641.719H1575.93V642.469H1572.73V643.688H1577.04ZM1568.68 647.062C1568.68 645.873 1570.03 645.193 1572.28 645.188C1574.51 645.193 1575.86 645.873 1575.87 647.062C1575.86 648.264 1574.51 648.938 1572.28 648.949C1570.03 648.938 1568.68 648.264 1568.68 647.062ZM1569.62 647.062C1569.61 647.795 1570.61 648.217 1572.28 648.211C1573.93 648.217 1574.94 647.795 1574.94 647.062C1574.94 646.342 1573.93 645.914 1572.28 645.914C1570.61 645.914 1569.61 646.342 1569.62 647.062ZM1581.43 640.512C1581.44 641.877 1582.46 643.096 1583.99 643.594L1583.55 644.32C1582.35 643.922 1581.45 643.096 1580.99 642.047C1580.55 643.242 1579.59 644.174 1578.34 644.625L1577.87 643.887C1579.43 643.359 1580.52 642.018 1580.53 640.512V640.066H1578.15V639.305H1583.78V640.066H1581.43V640.512ZM1579.25 647.004C1579.26 645.803 1580.57 645.105 1582.71 645.105C1584.85 645.105 1586.14 645.803 1586.14 647.004C1586.14 648.223 1584.85 648.926 1582.71 648.926C1580.57 648.926 1579.26 648.223 1579.25 647.004ZM1580.18 647.004C1580.17 647.754 1581.14 648.193 1582.71 648.188C1584.29 648.193 1585.25 647.754 1585.25 647.004C1585.25 646.277 1584.29 645.844 1582.71 645.844C1581.14 645.844 1580.17 646.277 1580.18 647.004ZM1585.14 644.824V638.531H1586.05V641.191H1587.62V641.965H1586.05V644.824H1585.14Z" fill="#9AA1B3"/>
<circle cx="1518" cy="728" r="10.5" fill="#128B76" stroke="#11141A" stroke-width="5"/>
<path d="M1539.93 725.09C1539.92 726.525 1541 727.861 1542.53 728.383L1542.01 729.109C1540.88 728.682 1539.97 727.814 1539.52 726.725C1539.07 727.967 1538.13 728.934 1536.88 729.414L1536.39 728.688C1537.96 728.102 1539.02 726.707 1539.02 725.113V724.07H1539.93V725.09ZM1537.99 733.809V730.117H1544.57V733.809H1537.99ZM1538.89 733.059H1543.65V730.867H1538.89V733.059ZM1543.65 729.637V723.531H1544.57V726.133H1546.14V726.906H1544.57V729.637H1543.65ZM1550.38 725.172C1550.37 726.66 1551.43 727.967 1552.96 728.488L1552.44 729.203C1551.29 728.775 1550.39 727.926 1549.94 726.83C1549.49 728.078 1548.54 729.045 1547.29 729.52L1546.78 728.77C1548.39 728.207 1549.45 726.824 1549.46 725.207V724.129H1550.38V725.172ZM1548.48 731.98C1548.47 730.727 1549.8 730.006 1551.97 730.012C1554.13 730.006 1555.46 730.727 1555.46 731.98C1555.46 733.223 1554.13 733.926 1551.97 733.926C1549.8 733.926 1548.47 733.223 1548.48 731.98ZM1549.39 731.98C1549.39 732.736 1550.37 733.193 1551.97 733.188C1553.57 733.193 1554.55 732.736 1554.55 731.98C1554.55 731.201 1553.57 730.738 1551.97 730.738C1550.37 730.738 1549.39 731.201 1549.39 731.98ZM1552.18 726.531V725.77H1554.5V723.531H1555.43V729.707H1554.5V726.531H1552.18Z" fill="#9AA1B3"/>
<circle cx="1518" cy="813" r="10.5" fill="#128B76" stroke="#11141A" stroke-width="5"/>
<path d="M1539.98 810.5C1539.98 811.953 1541.04 813.324 1542.56 813.875L1542.05 814.59C1540.9 814.139 1539.99 813.236 1539.54 812.1C1539.11 813.359 1538.16 814.355 1536.93 814.848L1536.43 814.098C1538 813.523 1539.08 812.064 1539.08 810.465V809.176H1539.98V810.5ZM1538.32 818.727V815.457H1539.25V817.953H1545.29V818.727H1538.32ZM1541.81 811.766V810.992H1544.13V808.543H1545.06V816.348H1544.13V811.766H1541.81ZM1556.32 814.051V814.777H1546.78V814.051H1556.32ZM1547.91 817.273C1547.89 816.166 1549.22 815.58 1551.54 815.586C1553.83 815.58 1555.15 816.166 1555.16 817.273C1555.15 818.357 1553.83 818.938 1551.54 818.949C1549.22 818.938 1547.89 818.357 1547.91 817.273ZM1547.99 809.598V808.859H1555.09V811.332H1548.94V812.41H1555.31V813.148H1548.02V810.652H1554.16V809.598H1547.99ZM1548.84 817.273C1548.83 817.895 1549.82 818.246 1551.54 818.246C1553.24 818.246 1554.22 817.895 1554.22 817.273C1554.22 816.641 1553.24 816.277 1551.54 816.277C1549.82 816.277 1548.83 816.641 1548.84 817.273Z" fill="#9AA1B3"/>
<circle cx="1518" cy="898" r="10.5" fill="#128B76" stroke="#11141A" stroke-width="5"/>
<path d="M1545.06 900.246V903.949H1544.13V900.984H1538.05V900.246H1545.06ZM1536.59 896.613C1536.58 895.16 1537.73 894.123 1539.29 894.129C1540.2 894.123 1540.96 894.48 1541.44 895.066H1544.13V893.531H1545.06V899.672H1544.13V898.172H1541.45C1540.97 898.764 1540.2 899.115 1539.29 899.109C1537.73 899.121 1536.58 898.096 1536.59 896.613ZM1537.46 896.613C1537.46 897.627 1538.23 898.336 1539.29 898.336C1540.32 898.336 1541.1 897.627 1541.1 896.613C1541.1 895.635 1540.32 894.914 1539.29 894.914C1538.23 894.914 1537.46 895.635 1537.46 896.613ZM1541.87 897.41H1544.13V895.828H1541.86C1541.94 896.074 1541.99 896.332 1541.99 896.613C1541.99 896.895 1541.94 897.164 1541.87 897.41ZM1550.3 895.09C1550.29 896.525 1551.37 897.861 1552.9 898.383L1552.38 899.109C1551.25 898.682 1550.34 897.814 1549.89 896.725C1549.44 897.967 1548.5 898.934 1547.25 899.414L1546.76 898.688C1548.33 898.102 1549.39 896.707 1549.39 895.113V894.07H1550.3V895.09ZM1548.36 903.809V900.117H1554.94V903.809H1548.36ZM1549.27 903.059H1554.02V900.867H1549.27V903.059ZM1554.02 899.637V893.531H1554.94V896.133H1556.51V896.906H1554.94V899.637H1554.02Z" fill="#9AA1B3"/>
<circle cx="293.5" cy="923" r="10.5" fill="#128B76" stroke="#11141A" stroke-width="5"/>
<path d="M286.967 944.543V952.184H286.053V944.543H286.967ZM278.471 949.957C280.047 949.342 281.119 947.818 281.119 946.172V945.129H282.057V946.172C282.045 947.76 283.129 949.184 284.682 949.746L284.201 950.484C282.994 950.021 282.057 949.084 281.594 947.883C281.143 949.16 280.193 950.186 278.975 950.672L278.471 949.957ZM280.24 954.727V951.48H281.154V953.953H287.295V954.727H280.24ZM297.15 949.418V950.168H293.928V952.863H298.275V953.637H288.736V952.863H293.025V950.168H289.955V945.387H297.045V946.137H290.881V949.418H297.15ZM307.709 944.543V950.719H306.795V944.543H307.709ZM299.635 945.914V945.176H304.393V948H300.549V949.441C302.412 949.453 303.801 949.395 305.494 949.113L305.6 949.887C303.848 950.156 302.424 950.215 300.502 950.215H299.658V947.273H303.479V945.914H299.635ZM300.936 954.809V951.281H307.709V954.809H300.936ZM301.838 954.059H306.807V952.031H301.838V954.059Z" fill="#9AA1B3"/>
<circle cx="388.5" cy="923" r="10.5" fill="#128B76" stroke="#11141A" stroke-width="5"/>
<path d="M387.457 944.531V954.949H386.578V949.488H385.043V954.41H384.199V944.766H385.043V948.727H386.578V944.531H387.457ZM378.938 952.371V945.809H382.84V946.57H379.852V951.586C381.287 951.58 382.277 951.527 383.438 951.293L383.52 952.066C382.266 952.324 381.205 952.365 379.605 952.371H378.938ZM397.523 944.543V950.719H396.609V944.543H397.523ZM389.449 945.914V945.176H394.207V948H390.363V949.441C392.227 949.453 393.615 949.395 395.309 949.113L395.414 949.887C393.662 950.156 392.238 950.215 390.316 950.215H389.473V947.273H393.293V945.914H389.449ZM390.75 954.809V951.281H397.523V954.809H390.75ZM391.652 954.059H396.621V952.031H391.652V954.059Z" fill="#9AA1B3"/>
<circle cx="483.5" cy="923" r="10.5" fill="#128B76" stroke="#11141A" stroke-width="5"/>
<path d="M466.232 945.211V946.125C466.232 947.109 466.232 948.193 465.934 949.688H467.486V950.449H463.186V954.973H462.26V950.449H457.994V949.688H465.002C465.318 948.188 465.318 947.098 465.318 946.125V945.973H459.189V945.211H466.232ZM477.904 952.887V953.66H468.365V952.887H472.654V950.918H469.561V947.707H475.795V946.066H469.537V945.305H476.697V948.457H470.475V950.156H476.943V950.918H473.557V952.887H477.904ZM487.326 944.531V954.973H486.4V944.531H487.326ZM479.416 952.383V945.527H484.373V946.301H480.342V951.586C482.369 951.586 483.699 951.527 485.264 951.246L485.357 952.02C483.74 952.307 482.369 952.377 480.26 952.383H479.416ZM492.834 947.73C492.84 949.5 494.123 951.299 495.658 951.961L495.143 952.688C493.924 952.137 492.875 950.936 492.389 949.494C491.902 951.023 490.848 952.348 489.658 952.945L489.107 952.219C490.602 951.504 491.902 949.535 491.908 947.73V946.371H489.447V945.609H495.318V946.371H492.834V947.73ZM496.771 954.949V944.531H497.697V954.949H496.771ZM504.74 945.176V945.938H500.932V947.051H504.459V947.766H500.932V949.008C502.854 949.002 503.955 948.961 505.303 948.738L505.385 949.488C503.973 949.723 502.818 949.746 500.779 949.746H500.018V945.176H504.74ZM501.354 951.375V950.637H508.104V953.051H502.291V954.094H508.502V954.832H501.377V952.348H507.189V951.375H501.354ZM505.186 947.684V946.934H507.189V944.531H508.104V950.168H507.189V947.684H505.186ZM481.695 962.531V965.637H483.277V966.41H481.695V970.078H480.781V962.531H481.695ZM474.043 968.227V963.434H478.684V964.207H474.957V967.453C477.049 967.459 478.238 967.395 479.633 967.113L479.75 967.875C478.285 968.156 477.043 968.227 474.852 968.227H474.043ZM475.18 972.727V969.316H476.082V971.953H482.176V972.727H475.18ZM487.648 965.73C487.654 967.5 488.938 969.299 490.473 969.961L489.957 970.688C488.738 970.137 487.689 968.936 487.203 967.494C486.717 969.023 485.662 970.348 484.473 970.945L483.922 970.219C485.416 969.504 486.717 967.535 486.723 965.73V964.371H484.262V963.609H490.133V964.371H487.648V965.73ZM491.586 972.949V962.531H492.512V972.949H491.586Z" fill="#9AA1B3"/>
<circle cx="578.5" cy="923" r="10.5" fill="#128B76" stroke="#11141A" stroke-width="5"/>
<path d="M571.967 944.543V952.184H571.053V944.543H571.967ZM563.471 949.957C565.047 949.342 566.119 947.818 566.119 946.172V945.129H567.057V946.172C567.045 947.76 568.129 949.184 569.682 949.746L569.201 950.484C567.994 950.021 567.057 949.084 566.594 947.883C566.143 949.16 565.193 950.186 563.975 950.672L563.471 949.957ZM565.24 954.727V951.48H566.154V953.953H572.295V954.727H565.24ZM582.643 944.531V954.949H581.764V949.488H580.229V954.41H579.385V944.766H580.229V948.727H581.764V944.531H582.643ZM574.123 952.371V945.809H578.025V946.57H575.037V951.586C576.473 951.58 577.463 951.527 578.623 951.293L578.705 952.066C577.451 952.324 576.391 952.365 574.791 952.371H574.123ZM588.912 951.082C591.051 951.082 592.346 951.785 592.346 953.004C592.346 954.234 591.051 954.938 588.912 954.949C586.768 954.938 585.461 954.234 585.455 953.004C585.461 951.785 586.768 951.082 588.912 951.082ZM584.553 949.992V945.188H585.455V946.781H588.49V945.188H589.404V949.992H584.553ZM585.455 949.242H588.49V947.508H585.455V949.242ZM586.381 953.004C586.369 953.754 587.342 954.199 588.912 954.199C590.488 954.199 591.449 953.754 591.455 953.004C591.449 952.26 590.488 951.82 588.912 951.809C587.342 951.82 586.369 952.26 586.381 953.004ZM591.338 950.801V944.531H592.252V947.156H593.822V947.941H592.252V950.801H591.338Z" fill="#9AA1B3"/>
<circle cx="673.5" cy="923" r="10.5" fill="#128B76" stroke="#11141A" stroke-width="5"/>
<path d="M672.152 944.543V952.184H671.238V944.543H672.152ZM663.656 949.957C665.232 949.342 666.305 947.818 666.305 946.172V945.129H667.242V946.172C667.23 947.76 668.314 949.184 669.867 949.746L669.387 950.484C668.18 950.021 667.242 949.084 666.779 947.883C666.328 949.16 665.379 950.186 664.16 950.672L663.656 949.957ZM665.426 954.727V951.48H666.34V953.953H672.48V954.727H665.426ZM682.523 944.543V950.719H681.609V944.543H682.523ZM674.449 945.914V945.176H679.207V948H675.363V949.441C677.227 949.453 678.615 949.395 680.309 949.113L680.414 949.887C678.662 950.156 677.238 950.215 675.316 950.215H674.473V947.273H678.293V945.914H674.449ZM675.75 954.809V951.281H682.523V954.809H675.75ZM676.652 954.059H681.621V952.031H676.652V954.059Z" fill="#9AA1B3"/>
<circle cx="768.5" cy="923" r="10.5" fill="#128B76" stroke="#11141A" stroke-width="5"/>
<path d="M768.043 949.758V950.52H758.551V949.758H762.84V948.633H759.816V944.812H760.73V945.984H765.887V944.812H766.801V948.633H763.754V949.758H768.043ZM759.699 953.109C759.705 951.943 761.035 951.293 763.297 951.293C765.529 951.293 766.871 951.943 766.883 953.109C766.871 954.281 765.529 954.926 763.297 954.926C761.035 954.926 759.705 954.281 759.699 953.109ZM760.637 953.109C760.631 953.807 761.627 954.217 763.297 954.211C764.949 954.217 765.945 953.807 765.945 953.109C765.945 952.406 764.949 952.014 763.297 952.008C761.627 952.014 760.631 952.406 760.637 953.109ZM760.73 947.906H765.887V946.711H760.73V947.906ZM772.473 947.027C772.479 948.416 773.574 949.623 775.121 950.109L774.664 950.848C773.463 950.455 772.508 949.629 772.039 948.557C771.588 949.705 770.639 950.596 769.414 951.023L768.957 950.309C770.498 949.793 771.564 948.498 771.57 947.027V946.688H769.215V945.938H771.57V944.602H772.496V945.938H774.828V946.688H772.473V947.027ZM770.867 954.727V951.621H771.793V953.953H777.852V954.727H770.867ZM774.465 948.516V947.754H776.633V944.543H777.559V952.324H776.633V948.516H774.465Z" fill="#9AA1B3"/>
<circle cx="863.5" cy="923" r="10.5" fill="#128B76" stroke="#11141A" stroke-width="5"/>
<path d="M841.662 947.332C841.656 949.219 842.869 951.117 844.381 951.809L843.83 952.559C842.646 951.949 841.668 950.707 841.205 949.225C840.742 950.783 839.764 952.119 838.58 952.746L837.982 952.008C839.512 951.258 840.719 949.254 840.725 947.332V945.434H841.662V947.332ZM843.244 948.844V948.094H845.717V944.531H846.631V954.973H845.717V948.844H843.244ZM853.111 944.66C855.426 944.66 856.785 945.305 856.791 946.465C856.785 947.637 855.426 948.275 853.111 948.281C850.785 948.275 849.42 947.637 849.42 946.465C849.42 945.305 850.785 944.66 853.111 944.66ZM848.365 949.711V948.973H857.857V949.711H853.557V950.695H856.639V953.027H850.451V954.105H856.955V954.832H849.537V952.348H855.736V951.398H849.514V950.695H852.643V949.711H848.365ZM850.381 946.465C850.369 947.18 851.383 947.566 853.111 947.578C854.84 947.566 855.848 947.18 855.854 946.465C855.848 945.779 854.84 945.375 853.111 945.363C851.383 945.375 850.369 945.779 850.381 946.465ZM867.643 944.531V954.949H866.764V949.488H865.229V954.41H864.385V944.766H865.229V948.727H866.764V944.531H867.643ZM859.123 952.371V945.809H863.025V946.57H860.037V951.586C861.473 951.58 862.463 951.527 863.623 951.293L863.705 952.066C862.451 952.324 861.391 952.365 859.791 952.371H859.123ZM877.709 944.531V950.121H876.795V944.531H877.709ZM869.354 947.438C869.348 946.014 870.502 945.035 872.084 945.047C873.666 945.035 874.809 946.014 874.814 947.438C874.809 948.855 873.666 949.834 872.084 949.828C870.502 949.834 869.348 948.855 869.354 947.438ZM870.256 947.438C870.244 948.387 871.012 949.061 872.084 949.066C873.145 949.061 873.912 948.387 873.912 947.438C873.912 946.482 873.145 945.814 872.084 945.82C871.012 945.814 870.244 946.482 870.256 947.438ZM870.959 954.809V950.648H871.873V951.914H876.795V950.648H877.709V954.809H870.959ZM871.873 954.059H876.795V952.652H871.873V954.059ZM887.717 945.211V946.125C887.717 947.109 887.717 948.193 887.418 949.688H888.971V950.449H884.67V954.973H883.744V950.449H879.479V949.688H886.486C886.803 948.188 886.803 947.098 886.803 946.125V945.973H880.674V945.211H887.717Z" fill="#9AA1B3"/>
<circle cx="958.5" cy="923" r="10.5" fill="#128B76" stroke="#11141A" stroke-width="5"/>
<path d="M951.51 944.531V947.121H953.08V947.895H951.51V950.52H950.596V944.531H951.51ZM943.869 949.77V945.141H944.795V948.973C946.283 948.973 947.812 948.879 949.494 948.527L949.611 949.289C947.842 949.658 946.266 949.758 944.701 949.77H943.869ZM944.725 951.855V951.094H951.51V954.949H950.596V951.855H944.725ZM957.322 946.172C957.311 947.66 958.371 948.967 959.9 949.488L959.385 950.203C958.236 949.775 957.334 948.926 956.883 947.83C956.438 949.078 955.488 950.045 954.229 950.52L953.725 949.77C955.33 949.207 956.396 947.824 956.408 946.207V945.129H957.322V946.172ZM955.424 952.98C955.418 951.727 956.748 951.006 958.916 951.012C961.078 951.006 962.408 951.727 962.408 952.98C962.408 954.223 961.078 954.926 958.916 954.926C956.748 954.926 955.418 954.223 955.424 952.98ZM956.338 952.98C956.332 953.736 957.316 954.193 958.916 954.188C960.51 954.193 961.494 953.736 961.494 952.98C961.494 952.201 960.51 951.738 958.916 951.738C957.316 951.738 956.332 952.201 956.338 952.98ZM959.127 947.531V946.77H961.447V944.531H962.373V950.707H961.447V947.531H959.127ZM973.014 944.531V954.949H972.135V949.488H970.6V954.41H969.756V944.766H970.6V948.727H972.135V944.531H973.014ZM964.494 952.371V945.809H968.396V946.57H965.408V951.586C966.844 951.58 967.834 951.527 968.994 951.293L969.076 952.066C967.822 952.324 966.762 952.365 965.162 952.371H964.494Z" fill="#9AA1B3"/>
<circle cx="1053.5" cy="923" r="10.5" fill="#128B76" stroke="#11141A" stroke-width="5"/>
<path d="M1047.04 947.332C1047.04 949.166 1048.26 951.059 1049.74 951.785L1049.18 952.523C1048.03 951.926 1047.07 950.689 1046.6 949.242C1046.14 950.777 1045.16 952.096 1043.98 952.723L1043.4 951.984C1044.92 951.234 1046.13 949.236 1046.14 947.332V945.434H1047.04V947.332ZM1050.7 954.949V944.531H1051.61V948.762H1053.36V949.559H1051.61V954.949H1050.7ZM1062.08 944.531V947.25H1063.64V948.023H1062.08V950.754H1061.15V944.531H1062.08ZM1054.4 949.898V945.328H1059.03V946.09H1055.3V949.148C1057.41 949.137 1058.63 949.072 1060.03 948.785L1060.12 949.547C1058.66 949.84 1057.41 949.898 1055.21 949.898H1054.4ZM1055.27 952.934C1055.28 951.686 1056.6 950.959 1058.73 950.953C1060.85 950.959 1062.16 951.686 1062.16 952.934C1062.16 954.199 1060.85 954.926 1058.73 954.926C1056.6 954.926 1055.28 954.199 1055.27 952.934ZM1056.17 952.934C1056.18 953.707 1057.16 954.182 1058.73 954.188C1060.29 954.182 1061.28 953.707 1061.27 952.934C1061.28 952.166 1060.29 951.703 1058.73 951.715C1057.16 951.703 1056.18 952.166 1056.17 952.934Z" fill="#9AA1B3"/>
<circle cx="1148.5" cy="923" r="10.5" fill="#128B76" stroke="#11141A" stroke-width="5"/>
<path d="M1143.36 951.082C1145.49 951.082 1146.79 951.785 1146.79 953.004C1146.79 954.234 1145.49 954.938 1143.36 954.949C1141.21 954.938 1139.9 954.234 1139.9 953.004C1139.9 951.785 1141.21 951.082 1143.36 951.082ZM1139 949.992V945.188H1139.9V946.781H1142.93V945.188H1143.85V949.992H1139ZM1139.9 949.242H1142.93V947.508H1139.9V949.242ZM1140.82 953.004C1140.81 953.754 1141.79 954.199 1143.36 954.199C1144.93 954.199 1145.89 953.754 1145.9 953.004C1145.89 952.26 1144.93 951.82 1143.36 951.809C1141.79 951.82 1140.81 952.26 1140.82 953.004ZM1145.78 950.801V944.531H1146.7V947.156H1148.27V947.941H1146.7V950.801H1145.78ZM1150.19 945.527V948.07H1152.45V945.527H1153.3V952.348H1149.31V945.527H1150.19ZM1150.19 951.586H1152.45V948.82H1150.19V951.586ZM1154.63 954.422V944.754H1155.51V948.668H1156.96V944.531H1157.85V954.949H1156.96V949.43H1155.51V954.422H1154.63Z" fill="#9AA1B3"/>
<circle cx="1243.5" cy="923" r="10.5" fill="#128B76" stroke="#11141A" stroke-width="5"/>
<path d="M1237.22 947.332C1237.21 949.219 1238.43 951.117 1239.94 951.809L1239.39 952.559C1238.2 951.949 1237.22 950.707 1236.76 949.225C1236.3 950.783 1235.32 952.119 1234.14 952.746L1233.54 952.008C1235.07 951.258 1236.28 949.254 1236.28 947.332V945.434H1237.22V947.332ZM1238.8 948.844V948.094H1241.27V944.531H1242.19V954.973H1241.27V948.844H1238.8ZM1253.46 952.863V953.637H1243.92V952.863H1248.22V950.473H1249.12V952.863H1253.46ZM1244.45 950.121C1246.46 949.799 1248.2 948.586 1248.21 946.957H1244.81V946.195H1248.22V944.754H1249.12V946.195H1252.55V946.957H1249.15C1249.15 948.586 1250.89 949.799 1252.89 950.121L1252.54 950.848C1250.87 950.555 1249.34 949.711 1248.67 948.404C1248.02 949.711 1246.49 950.555 1244.81 950.848L1244.45 950.121Z" fill="#9AA1B3"/>
<circle cx="1338.5" cy="923" r="10.5" fill="#128B76" stroke="#11141A" stroke-width="5"/>
<path d="M1336.92 945.586V946.746C1336.91 948.082 1336.91 949.424 1336.54 951.363L1335.64 951.258C1336.01 949.418 1336.01 948.047 1336.02 946.746V946.348H1329.55V945.586H1336.92ZM1328.55 953.473V952.711H1330.91V949.277H1331.82V952.711H1333.51V949.277H1334.41V952.711H1338.04V953.473H1328.55ZM1347.83 944.531V954.949H1346.95V949.488H1345.41V954.41H1344.57V944.766H1345.41V948.727H1346.95V944.531H1347.83ZM1339.31 952.371V945.809H1343.21V946.57H1340.22V951.586C1341.66 951.58 1342.65 951.527 1343.81 951.293L1343.89 952.066C1342.64 952.324 1341.58 952.365 1339.98 952.371H1339.31Z" fill="#9AA1B3"/>
<circle cx="1433.5" cy="923" r="10.5" fill="#128B76" stroke="#11141A" stroke-width="5"/>
<path d="M1431.7 944.531V947.25H1433.27V948.012H1431.7V950.789H1430.78V944.531H1431.7ZM1423.56 950.051C1426.08 949.324 1427.68 947.877 1427.87 946.066H1424.02V945.305H1428.86C1428.85 947.959 1426.98 949.904 1423.95 950.801L1423.56 950.051ZM1424.99 952.91C1424.99 951.662 1426.33 950.9 1428.4 950.906C1430.49 950.9 1431.81 951.662 1431.81 952.91C1431.81 954.176 1430.49 954.926 1428.4 954.926C1426.33 954.926 1424.99 954.176 1424.99 952.91ZM1425.91 952.91C1425.89 953.695 1426.87 954.193 1428.4 954.188C1429.93 954.193 1430.92 953.695 1430.92 952.91C1430.92 952.125 1429.93 951.639 1428.4 951.645C1426.87 951.639 1425.89 952.125 1425.91 952.91ZM1442.07 944.543V946.934H1443.65V947.707H1442.07V950.426H1441.15V944.543H1442.07ZM1434.43 949.629V945.07H1435.35V948.855C1436.84 948.85 1438.37 948.732 1440.05 948.387L1440.17 949.16C1438.4 949.518 1436.82 949.623 1435.26 949.629H1434.43ZM1435.47 954.809V951H1442.07V954.809H1435.47ZM1436.37 954.059H1441.18V951.727H1436.37V954.059Z" fill="#9AA1B3"/>
<circle cx="278" cy="558" r="10.5" fill="#232834" stroke="#11141A" stroke-width="5"/>
<circle cx="278" cy="644" r="10.5" fill="#232834" stroke="#11141A" stroke-width="5"/>
<circle cx="1256" cy="542" r="10.5" fill="#232834" stroke="#11141A" stroke-width="5"/>
<circle cx="1337" cy="441" r="10.5" fill="#232834" stroke="#11141A" stroke-width="5"/>
<circle cx="1337" cy="661" r="10.5" fill="#232834" stroke="#11141A" stroke-width="5"/>
<circle cx="962" cy="396" r="10.5" fill="#232834" stroke="#11141A" stroke-width="5"/>
<circle cx="962" cy="237" r="10.5" fill="#232834" stroke="#11141A" stroke-width="5"/>
<circle cx="718" cy="396" r="10.5" fill="#232834" stroke="#11141A" stroke-width="5"/>
<circle cx="277" cy="1000" r="10.5" fill="#232834" stroke="#11141A" stroke-width="5"/>
<circle cx="373" cy="1033" r="10.5" fill="#232834" stroke="#11141A" stroke-width="5"/>
<circle cx="668" cy="245" r="10.5" fill="#232834" stroke="#11141A" stroke-width="5"/>
<circle cx="374" cy="325" r="10.5" fill="#232834" stroke="#11141A" stroke-width="5"/>
<circle cx="955" cy="539" r="10.5" fill="#232834" stroke="#11141A" stroke-width="5"/>
<circle cx="962" cy="645" r="10.5" fill="#232834" stroke="#11141A" stroke-width="5"/>
<circle cx="962" cy="785" r="10.5" fill="#232834" stroke="#11141A" stroke-width="5"/>
</g>
<defs>
<clipPath id="clip0_146_1566">
<rect width="1728" height="1117" fill="white"/>
</clipPath>
</defs>
</svg>
