<svg width="20" height="20" viewBox="0 0 20 20" fill="none" xmlns="http://www.w3.org/2000/svg">
<g id="bxs:up-arrow">
<path id="Vector" d="M15.4654 6L5.84826 6C5.75089 6.00031 5.65545 6.02716 5.5722 6.07767C5.48896 6.12819 5.42107 6.20045 5.37584 6.28667C5.33061 6.3729 5.30976 6.46983 5.31552 6.56703C5.32128 6.66423 5.35344 6.75801 5.40854 6.8383L10.2171 13.784C10.4164 14.072 10.8962 14.072 11.096 13.784L15.9046 6.8383C15.9603 6.75818 15.9929 6.66435 15.999 6.56699C16.005 6.46963 15.9843 6.37246 15.939 6.28605C15.8938 6.19964 15.8257 6.12729 15.7422 6.07686C15.6587 6.02643 15.563 5.99985 15.4654 6Z" fill="#F0F3F9"/>
</g>
</svg>
