<svg width="60" height="60" viewBox="0 0 60 60" fill="none" xmlns="http://www.w3.org/2000/svg">
<path d="M4.76484 42.5231L7.4327 38.5199L13.1218 44.285C11.2767 44.5638 9.68368 45.7253 8.85398 47.3968L7.48985 50.1449C7.14895 50.8317 6.49443 51.3089 5.73633 51.4235L5.30468 51.4887C4.26 51.6466 3.28514 50.9276 3.12728 49.883C2.7387 47.3114 3.32255 44.6873 4.76484 42.5231Z" fill="url(#paint0_linear_387_12335)"/>
<path d="M55.1551 54.183C50.5982 49.7761 51.5186 44.1038 53.2294 37.6684C53.3197 37.375 53.4052 37.0799 53.4858 36.7832C54.1743 34.2387 54.4871 31.5459 54.3582 28.7708C53.6874 14.4359 41.5228 3.35813 27.1879 4.02893C12.8546 4.69972 1.77684 16.8626 2.44763 31.1976C2.7798 38.2973 5.93219 44.5956 10.7696 49.0654C11.5517 49.9716 12.4498 50.773 13.4496 51.4325C21.8667 57.7679 31.1868 59.0128 41.6115 58.9999L53.6281 58.0014C55.6259 57.9981 56.5918 55.5714 55.1551 54.183Z" fill="url(#paint1_linear_387_12335)"/>
<path d="M13.8583 37.1768C15.7537 37.1768 17.2903 34.872 17.2903 32.0288C17.2903 29.1857 15.7537 26.8809 13.8583 26.8809C11.9628 26.8809 10.4263 29.1857 10.4263 32.0288C10.4263 34.872 11.9628 37.1768 13.8583 37.1768Z" fill="#8284B9" fill-opacity="0.7"/>
<path d="M35.5943 37.1768C37.4898 37.1768 39.0263 34.872 39.0263 32.0288C39.0263 29.1857 37.4898 26.8809 35.5943 26.8809C33.6989 26.8809 32.1624 29.1857 32.1624 32.0288C32.1624 34.872 33.6989 37.1768 35.5943 37.1768Z" fill="#8284B9" fill-opacity="0.7"/>
<path d="M13.8338 32.36C15.9222 32.36 17.6151 30.6671 17.6151 28.5787C17.6151 26.4903 15.9222 24.7974 13.8338 24.7974C11.7454 24.7974 10.0525 26.4903 10.0525 28.5787C10.0525 30.6671 11.7454 32.36 13.8338 32.36Z" fill="#525252"/>
<path d="M35.5762 32.36C37.6646 32.36 39.3576 30.6671 39.3576 28.5787C39.3576 26.4903 37.6646 24.7974 35.5762 24.7974C33.4879 24.7974 31.7949 26.4903 31.7949 28.5787C31.7949 30.6671 33.4879 32.36 35.5762 32.36Z" fill="#525252"/>
<path d="M24.9367 39.8031C27.4667 39.8031 29.7 41.0689 31.0415 43.0006C31.4447 43.5811 32.3654 43.3005 32.367 42.5927C32.367 42.3879 32.3606 42.1815 32.3428 41.9735C32.0526 38.3244 29.0856 35.3946 25.4317 35.1559C21.1022 34.8737 17.5032 38.3019 17.5032 42.5717C17.5032 42.5798 17.5032 42.5878 17.5032 42.5959C17.5048 43.3021 18.4255 43.5795 18.8286 43.0006C20.1702 41.0689 22.4035 39.8031 24.9351 39.8031H24.9367Z" fill="#525252"/>
<path d="M38.4849 40.9068L41.721 37.3472L46.4849 43.8975C44.6188 43.8975 42.8701 44.808 41.8 46.3367L40.0406 48.8502C39.6009 49.4783 38.8824 49.8524 38.1157 49.8524H37.6791C36.6226 49.8524 35.7661 48.9959 35.7661 47.9394C35.7661 45.3386 36.7355 42.8312 38.4849 40.9068Z" fill="url(#paint2_linear_387_12335)" fill-opacity="0.8"/>
<defs>
<linearGradient id="paint0_linear_387_12335" x1="8.91124" y1="44.319" x2="10.9995" y2="42.1967" gradientUnits="userSpaceOnUse">
<stop stop-color="#ABE3D7"/>
<stop offset="1" stop-color="#D2FDF4" stop-opacity="0"/>
</linearGradient>
<linearGradient id="paint1_linear_387_12335" x1="30.6014" y1="4" x2="30.6014" y2="59" gradientUnits="userSpaceOnUse">
<stop stop-color="#E7EFEE"/>
<stop offset="1" stop-color="#CDFFF4"/>
</linearGradient>
<linearGradient id="paint2_linear_387_12335" x1="39.339" y1="46.2795" x2="46.4849" y2="39.7291" gradientUnits="userSpaceOnUse">
<stop stop-color="#AADFD4"/>
<stop offset="1" stop-color="#D2FDF4" stop-opacity="0"/>
</linearGradient>
</defs>
</svg>
