<svg width="60" height="60" viewBox="0 0 60 60" fill="none" xmlns="http://www.w3.org/2000/svg">
<path fill-rule="evenodd" clip-rule="evenodd" d="M11.9134 17.0998C11.9134 13.3659 20.2043 10.333 30.4319 10.333C40.6594 10.333 48.9504 13.3585 48.9504 17.0998V50.2328C48.9504 53.9667 40.6594 56.9996 30.4319 56.9996C20.2043 56.9996 11.9134 53.9741 11.9134 50.2328V47.3697H10.7149C7.70364 47.3697 5.24683 44.8137 5.24683 41.6744V26.3984C5.24683 23.2591 7.69511 20.7031 10.7149 20.7031H11.9134V17.0998ZM11.9134 24.9317H9.92159C9.23061 24.9317 8.66759 25.5921 8.66759 26.3984V41.6744C8.66759 42.4807 9.23061 43.1411 9.92159 43.1411H11.9134V24.9317Z" fill="url(#paint0_linear_387_12339)"/>
<path d="M30.5653 10.0073C21.5208 10.0073 14.1875 12.8295 14.1875 16.3184V47.1999C14.1875 50.6813 21.5208 53.511 30.5653 53.511C39.6097 53.511 46.943 50.6888 46.943 47.1999V16.3184C46.943 12.837 39.6097 10.0073 30.5653 10.0073Z" fill="url(#paint1_linear_387_12339)"/>
<path d="M47.2542 10.4374C47.1431 6.26701 43.7357 2.92627 39.5431 2.92627C38.5505 2.92627 37.6024 3.11886 36.7283 3.4596C35.2172 4.05219 33.5135 4.05219 32.0024 3.4596C31.1283 3.11886 30.1802 2.92627 29.1876 2.92627C28.0913 2.92627 27.0543 3.1559 26.1061 3.57071C25.158 3.98553 24.1506 4.05219 23.158 3.82997C22.6172 3.70405 22.0543 3.64479 21.4765 3.64479C18.0913 3.64479 15.2246 5.82256 14.1876 8.84478C13.9061 9.667 13.4246 10.4077 12.7802 10.9929C11.1728 12.4448 10.2691 14.667 10.6839 17.0892C11.1432 19.8077 13.3358 22.0003 16.0543 22.467C16.4098 22.5262 16.758 22.5633 17.1061 22.5707C19.3357 22.6151 21.158 24.304 21.158 26.5336V34.1929H21.2024C21.4691 36.1484 23.1432 37.6521 25.1728 37.6521C27.2024 37.6521 28.8765 36.1484 29.1431 34.1929H29.1876V28.304C29.1876 26.0299 31.032 24.1929 33.3061 24.2003H33.5209C34.6691 24.2003 35.7505 23.8966 36.6839 23.3633C37.7283 22.7707 39.0246 22.9781 39.9579 23.7485C41.5061 25.0225 43.5579 25.7114 45.7654 25.4596C49.2616 25.0596 52.1061 22.2299 52.5209 18.7337C52.9727 14.904 50.6172 11.5485 47.2468 10.4522L47.2542 10.4374Z" fill="url(#paint2_linear_387_12339)"/>
<circle cx="52.2769" cy="5.54127" r="3.50706" transform="rotate(-5.25444 52.2769 5.54127)" fill="white"/>
<circle cx="56.3662" cy="12.9933" r="1.85185" transform="rotate(-5.25444 56.3662 12.9933)" fill="white"/>
<defs>
<linearGradient id="paint0_linear_387_12339" x1="21.5648" y1="15.7064" x2="43.066" y2="54.196" gradientUnits="userSpaceOnUse">
<stop stop-color="#EEF8FF"/>
<stop offset="0.88034" stop-color="#CDE4F3"/>
</linearGradient>
<linearGradient id="paint1_linear_387_12339" x1="15.9874" y1="22.5554" x2="38.2096" y2="53.2961" gradientUnits="userSpaceOnUse">
<stop offset="0.03" stop-color="#FFD366"/>
<stop offset="0.96" stop-color="#FFB31F"/>
</linearGradient>
<linearGradient id="paint2_linear_387_12339" x1="31.58" y1="2.92627" x2="31.58" y2="37.6521" gradientUnits="userSpaceOnUse">
<stop stop-color="white"/>
<stop offset="1" stop-color="#FFF6D8"/>
</linearGradient>
</defs>
</svg>
