<svg width="60" height="60" viewBox="0 0 60 60" fill="none" xmlns="http://www.w3.org/2000/svg">
<g clip-path="url(#clip0_387_12336)">
<path d="M30 55.5C43.8071 55.5 55 44.3071 55 30.5C55 16.6929 43.8071 5.5 30 5.5C16.1929 5.5 5 16.6929 5 30.5C5 44.3071 16.1929 55.5 30 55.5Z" fill="url(#paint0_linear_387_12336)"/>
<path d="M12.9001 19.3853V48.6945C15.3454 50.9858 18.2353 52.7813 21.4501 53.9612V16.8203H15.4651C14.0458 16.8203 12.9001 17.966 12.9001 19.3853Z" fill="url(#paint1_linear_387_12336)"/>
<path d="M44.535 16.8203H38.55V53.9612C41.7648 52.7984 44.6547 50.9858 47.1 48.6945V19.3853C47.1 17.966 45.9543 16.8203 44.535 16.8203Z" fill="url(#paint2_linear_387_12336)"/>
<path d="M19.8253 15.4183C19.7398 15.6748 19.0729 16.8205 17.1748 16.8205C15.2767 16.8205 14.6098 15.6748 14.5243 15.4183C14.2336 14.5291 13.2589 14.0332 12.3527 14.341C11.4635 14.6317 10.9676 15.6064 11.2754 16.4956C11.7542 17.9491 13.6009 20.2234 17.1748 20.2234C20.7487 20.2234 22.5784 17.9491 23.0743 16.4956C23.365 15.6064 22.8862 14.6317 21.997 14.341C21.1078 14.0503 20.1331 14.5291 19.8424 15.4183H19.8253Z" fill="#4D4947"/>
<path d="M45.4752 15.4183C45.3897 15.6748 44.7228 16.8205 42.8247 16.8205C40.9266 16.8205 40.2597 15.6748 40.1742 15.4183C39.8835 14.5291 38.9088 14.0332 38.0196 14.341C37.1305 14.6317 36.6346 15.6064 36.9424 16.4956C37.4212 17.9491 39.2679 20.2234 42.8418 20.2234C46.4157 20.2234 48.2454 17.9491 48.7413 16.4956C49.032 15.6064 48.5532 14.6317 47.664 14.341C46.7748 14.0503 45.8001 14.5291 45.5094 15.4183H45.4752Z" fill="#4D4947"/>
<path d="M23.1602 28.7901C23.1602 25.0111 26.221 21.9502 30.0001 21.9502C33.7792 21.9502 36.84 25.0111 36.84 28.7901V32.2101C36.84 35.9892 33.7792 39.0501 30.0001 39.0501C26.221 39.0501 23.1602 35.9892 23.1602 32.2101V28.7901Z" fill="url(#paint3_linear_387_12336)"/>
<mask id="mask0_387_12336" style="mask-type:alpha" maskUnits="userSpaceOnUse" x="23" y="21" width="14" height="19">
<path d="M23.1602 28.7901C23.1602 25.0111 26.221 21.9502 30.0001 21.9502C33.7792 21.9502 36.84 25.0111 36.84 28.7901V32.2101C36.84 35.9892 33.7792 39.0501 30.0001 39.0501C26.221 39.0501 23.1602 35.9892 23.1602 32.2101V28.7901Z" fill="#3C3836"/>
</mask>
<g mask="url(#mask0_387_12336)">
<rect x="21.6667" y="14.3237" width="15.6863" height="10.7843" fill="#F0F3F9"/>
</g>
</g>
<defs>
<linearGradient id="paint0_linear_387_12336" x1="23.1373" y1="5.5" x2="36.8627" y2="42.2647" gradientUnits="userSpaceOnUse">
<stop offset="0.085" stop-color="#FFDA16"/>
<stop offset="1" stop-color="#FFAD0E"/>
</linearGradient>
<linearGradient id="paint1_linear_387_12336" x1="17.1751" y1="16.8203" x2="17.1751" y2="53.9612" gradientUnits="userSpaceOnUse">
<stop stop-color="#8FDDFF"/>
<stop offset="1" stop-color="#4685FF"/>
</linearGradient>
<linearGradient id="paint2_linear_387_12336" x1="42.825" y1="16.8203" x2="42.825" y2="53.9612" gradientUnits="userSpaceOnUse">
<stop stop-color="#8FDDFF"/>
<stop offset="1" stop-color="#4685FF"/>
</linearGradient>
<linearGradient id="paint3_linear_387_12336" x1="30.0001" y1="21.9502" x2="30.0001" y2="39.0501" gradientUnits="userSpaceOnUse">
<stop stop-color="#4D4947"/>
<stop offset="1" stop-color="#785F52"/>
</linearGradient>
<clipPath id="clip0_387_12336">
<rect width="50" height="50" fill="white" transform="translate(5 5.5)"/>
</clipPath>
</defs>
</svg>
