<svg width="60" height="60" viewBox="0 0 60 60" fill="none" xmlns="http://www.w3.org/2000/svg">
<path d="M30.2279 55.5436C44.1851 55.5436 55.4997 44.229 55.4997 30.2718C55.4997 16.3146 44.1851 5 30.2279 5C16.2706 5 4.95605 16.3146 4.95605 30.2718C4.95605 44.229 16.2706 55.5436 30.2279 55.5436Z" fill="url(#paint0_linear_387_12333)"/>
<path d="M30.2279 55.5436C44.1851 55.5436 55.4997 44.229 55.4997 30.2718C55.4997 16.3146 44.1851 5 30.2279 5C16.2706 5 4.95605 16.3146 4.95605 30.2718C4.95605 44.229 16.2706 55.5436 30.2279 55.5436Z" fill="url(#paint1_linear_387_12333)"/>
<rect x="2" y="34.0962" width="56.1134" height="16.4673" transform="rotate(-2.63 2 34.0962)" fill="#737C94"/>
<path fill-rule="evenodd" clip-rule="evenodd" d="M42.6888 17.3456C41.9589 17.2996 41.2726 17.3238 40.6484 17.4605L40.6471 17.4608C38.4697 17.935 36.8217 19.3318 36.2303 21.0883C36.0352 21.6677 35.4074 21.9792 34.828 21.7841C34.2486 21.589 33.9371 20.9612 34.1321 20.3818C35.0129 17.766 37.3719 15.9084 40.1755 15.2977C41.0676 15.1024 41.975 15.0823 42.8279 15.136C43.438 15.1744 43.9015 15.7002 43.8631 16.3103C43.8247 16.9205 43.299 17.384 42.6888 17.3456Z" fill="#574B42"/>
<path fill-rule="evenodd" clip-rule="evenodd" d="M17.6217 15.136C18.4746 15.0823 19.382 15.1024 20.2742 15.2977C23.0778 15.9085 25.4367 17.766 26.3174 20.3818C26.5125 20.9612 26.201 21.589 25.6216 21.7841C25.0422 21.9792 24.4143 21.6677 24.2193 21.0883C23.6278 19.3318 21.9799 17.935 19.8024 17.4608L19.8012 17.4605C19.177 17.3238 18.4906 17.2996 17.7608 17.3456C17.1506 17.384 16.6249 16.9205 16.5865 16.3103C16.5481 15.7002 17.0115 15.1744 17.6217 15.136Z" fill="#574B42"/>
<path d="M20.7963 30.2054C22.5447 30.2054 23.9622 28.5327 23.9622 26.4694C23.9622 24.4061 22.5447 22.7334 20.7963 22.7334C19.0478 22.7334 17.6304 24.4061 17.6304 26.4694C17.6304 28.5327 19.0478 30.2054 20.7963 30.2054Z" fill="#574B42"/>
<path d="M39.6539 30.2054C41.4024 30.2054 42.8198 28.5327 42.8198 26.4694C42.8198 24.4061 41.4024 22.7334 39.6539 22.7334C37.9055 22.7334 36.488 24.4061 36.488 26.4694C36.488 28.5327 37.9055 30.2054 39.6539 30.2054Z" fill="#574B42"/>
<path d="M52.6378 34.8574L52.6631 41.0357L50.7964 41.1213L50.2561 34.9666L52.6378 34.8574ZM51.9131 44.3727C51.5268 44.3904 51.2042 44.2934 50.9451 44.0817C50.6941 43.8609 50.561 43.5832 50.5456 43.2485C50.5299 42.9052 50.6368 42.6122 50.8665 42.3694C51.1048 42.1263 51.417 41.9959 51.8032 41.9782C52.1809 41.9609 52.4952 42.0625 52.7461 42.2833C53.0056 42.5036 53.1432 42.7854 53.159 43.1287C53.1743 43.4634 53.0629 43.7523 52.8246 43.9955C52.5945 44.2296 52.2907 44.3554 51.9131 44.3727Z" fill="white"/>
<path d="M47.1919 38.836L46.9088 40.539L48.4537 40.4681L48.5446 42.4507L46.5749 42.541L46.2404 44.5302L44.1806 44.6246L44.5151 42.6355L42.3781 42.7335L42.0436 44.7226L39.9838 44.8171L40.3183 42.8279L38.413 42.9153L38.322 40.9327L40.6522 40.8259L40.9353 39.1229L39.0686 39.2085L38.9777 37.2259L41.2564 37.1214L41.5809 35.1972L43.6407 35.1028L43.3162 37.027L45.4532 36.929L45.7778 35.0048L47.8376 34.9103L47.513 36.8345L49.1093 36.7613L49.2003 38.7439L47.1919 38.836ZM45.1321 38.9304L42.9951 39.0284L42.712 40.7314L44.849 40.6334L45.1321 38.9304Z" fill="white"/>
<path d="M27.6354 38.3397C27.6035 37.6445 27.7763 37.0991 28.1538 36.7034C28.5399 36.3072 29.0505 36.0946 29.6856 36.0655C30.3207 36.0363 30.8443 36.2015 31.2564 36.5611C31.6685 36.9206 31.8905 37.448 31.9224 38.1431C31.9543 38.8383 31.7815 39.3838 31.404 39.7795C31.0265 40.1752 30.5202 40.3877 29.8851 40.4168C29.25 40.4459 28.7221 40.2809 28.3014 39.9218C27.8893 39.5623 27.6673 39.0349 27.6354 38.3397ZM36.2834 35.9048L31.7426 45.1952L29.6185 45.2926L34.1592 36.0022L36.2834 35.9048ZM29.7317 37.3534C29.3198 37.3723 29.1274 37.6779 29.1545 38.2701C29.1813 38.8537 29.4006 39.136 29.8126 39.1171C30.01 39.1081 30.1611 39.0281 30.266 38.877C30.3709 38.726 30.4167 38.5046 30.4033 38.2128C30.3761 37.6206 30.1523 37.3342 29.7317 37.3534ZM33.9924 43.0537C33.9605 42.3585 34.1333 41.8131 34.5108 41.4173C34.8883 41.0216 35.3945 40.8092 36.0297 40.7801C36.6648 40.7509 37.1884 40.9161 37.6005 41.2757C38.0126 41.6352 38.2346 42.1625 38.2665 42.8577C38.2983 43.5529 38.1255 44.0984 37.7481 44.4941C37.3706 44.8898 36.8643 45.1023 36.2292 45.1314C35.5941 45.1605 35.0705 44.9953 34.6584 44.6358C34.2463 44.2763 34.0243 43.7489 33.9924 43.0537ZM36.0758 42.068C35.8784 42.0771 35.7273 42.1571 35.6224 42.3081C35.5261 42.4588 35.4848 42.6843 35.4986 42.9847C35.5254 43.5683 35.7447 43.8506 36.1567 43.8317C36.3541 43.8227 36.5052 43.7426 36.6101 43.5916C36.715 43.4406 36.7607 43.2192 36.7474 42.9274C36.734 42.6356 36.6682 42.4193 36.5499 42.2785C36.4312 42.1291 36.2732 42.059 36.0758 42.068Z" fill="white"/>
<path d="M24.1465 35.9828C25.0648 35.9407 25.8096 36.1474 26.3809 36.6028C26.9608 37.0579 27.2709 37.7231 27.311 38.5985C27.348 39.4053 27.1109 40.0483 26.5996 40.5275C26.0966 40.9978 25.4118 41.2572 24.5454 41.3055L24.5253 42.274L22.5942 42.3625L22.42 39.971L23.1925 39.9355C23.8533 39.9052 24.3517 39.8007 24.6875 39.6219C25.0319 39.4427 25.1942 39.1385 25.1746 38.7094C25.1608 38.409 25.0684 38.1767 24.8975 38.0125C24.7266 37.8484 24.4952 37.773 24.2034 37.7863C23.8944 37.8005 23.6582 37.9017 23.4948 38.0898C23.3311 38.2693 23.2561 38.5092 23.2698 38.8096L21.1972 38.9047C21.156 38.3819 21.2416 37.905 21.4541 37.4738C21.6751 37.0422 22.0118 36.6957 22.4643 36.4341C22.9249 36.1636 23.4856 36.0131 24.1465 35.9828ZM23.739 45.6642C23.3528 45.682 23.0301 45.5849 22.771 45.3732C22.52 45.1525 22.3869 44.8748 22.3716 44.5401C22.3558 44.1968 22.4628 43.9038 22.6925 43.661C22.9307 43.4179 23.243 43.2874 23.6292 43.2697C24.0068 43.2524 24.3211 43.3541 24.572 43.5748C24.8315 43.7951 24.9692 44.0769 24.9849 44.4202C25.0003 44.7549 24.8888 45.0439 24.6505 45.287C24.4205 45.5212 24.1166 45.6469 23.739 45.6642Z" fill="white"/>
<path d="M15.2508 35.8521C16.2635 35.8056 17.1564 35.9582 17.9294 36.3098C18.7019 36.6528 19.3059 37.1626 19.7411 37.8393C20.1846 38.507 20.4269 39.2914 20.4683 40.1926C20.5017 40.9221 20.4041 41.606 20.1753 42.2444C19.9552 42.8823 19.6049 43.4015 19.1244 43.802C18.6521 44.1934 18.077 44.4047 17.399 44.4358C16.9441 44.4567 16.5623 44.3839 16.2537 44.2174C15.9536 44.0506 15.7446 43.8064 15.6266 43.485C15.4017 43.8308 15.1047 44.1067 14.7357 44.3128C14.3664 44.5104 13.9586 44.6194 13.5123 44.6399C12.8772 44.669 12.3664 44.5032 11.9801 44.1425C11.6019 43.7728 11.3976 43.2575 11.3673 42.5967C11.3386 41.9702 11.4404 41.3764 11.6727 40.8153C11.9046 40.2456 12.2403 39.783 12.6798 39.4274C13.1193 39.0718 13.6223 38.881 14.1887 38.8551C14.9097 38.822 15.4107 39.0571 15.6918 39.5602L15.7763 38.8726L17.5529 38.7911L17.1347 42.0484C17.116 42.2041 17.1094 42.342 17.1149 42.4621C17.1322 42.8397 17.3083 43.0209 17.643 43.0055C18.0549 42.9866 18.3562 42.7105 18.5468 42.1771C18.7455 41.6348 18.8291 41.0203 18.7976 40.3337C18.7524 39.3467 18.4037 38.5887 17.7516 38.0595C17.1081 37.53 16.2242 37.291 15.0998 37.3426C14.1386 37.3867 13.2738 37.6585 12.5055 38.1582C11.7457 38.6575 11.1612 39.3207 10.7519 40.1479C10.3422 40.9666 10.1594 41.8565 10.2035 42.8178C10.2511 43.8562 10.5885 44.6492 11.2157 45.1967C11.8514 45.7438 12.7142 45.9923 13.8042 45.9424C14.6539 45.9034 15.4063 45.7141 16.0616 45.3744L16.4736 46.7617C15.6494 47.1693 14.7138 47.3971 13.6667 47.4452C12.6883 47.49 11.8171 47.3408 11.0531 46.9974C10.2977 46.6536 9.70237 46.1434 9.26711 45.4667C8.83185 44.79 8.59297 43.9882 8.55047 43.0613C8.49103 41.7653 8.74199 40.5798 9.30333 39.5048C9.86428 38.4212 10.6633 37.5589 11.7004 36.918C12.7456 36.268 13.9291 35.9127 15.2508 35.8521ZM14.1606 43.0233C14.4009 43.0123 14.6207 42.9291 14.82 42.7738C15.0278 42.618 15.1864 42.4172 15.2955 42.1714C15.4128 41.9166 15.465 41.6476 15.452 41.3644C15.4386 41.0726 15.3463 40.8403 15.1749 40.6676C15.0032 40.4862 14.7757 40.4021 14.4925 40.415C14.1149 40.4324 13.8091 40.6098 13.5751 40.9473C13.3412 41.2849 13.2345 41.6768 13.2549 42.1231C13.2679 42.4063 13.3513 42.6304 13.5051 42.7954C13.6589 42.9603 13.8774 43.0363 14.1606 43.0233Z" fill="white"/>
<defs>
<linearGradient id="paint0_linear_387_12333" x1="14.8113" y1="14.3016" x2="43.4317" y2="50.7926" gradientUnits="userSpaceOnUse">
<stop stop-color="#FFDA16"/>
<stop offset="1" stop-color="#FFAD0E"/>
</linearGradient>
<linearGradient id="paint1_linear_387_12333" x1="30.2279" y1="5" x2="31.6356" y2="32.4226" gradientUnits="userSpaceOnUse">
<stop stop-color="#FF4545"/>
<stop offset="1" stop-color="#FF4545" stop-opacity="0"/>
</linearGradient>
</defs>
</svg>
