<svg width="24" height="24" viewBox="0 0 24 24" fill="none" xmlns="http://www.w3.org/2000/svg">
<g clip-path="url(#clip0_154_427)">
<path d="M6.45761 1.6001C5.18036 1.60002 3.93178 1.97872 2.86977 2.68828C1.80775 3.39785 0.980005 4.40641 0.491213 5.58643C0.0024219 6.76645 -0.125461 8.06491 0.123738 9.31762C0.372937 10.5703 0.988024 11.721 1.89121 12.6241L11.4336 22.1665C11.5079 22.241 11.5962 22.3001 11.6934 22.3404C11.7906 22.3808 11.8948 22.4015 12 22.4015C12.1052 22.4015 12.2094 22.3808 12.3066 22.3404C12.4038 22.3001 12.4921 22.241 12.5664 22.1665L22.1088 12.6225C23.2871 11.405 23.9397 9.77309 23.9258 8.07881C23.9119 6.38452 23.2327 4.76357 22.0346 3.56549C20.8365 2.36741 19.2156 1.6882 17.5213 1.67432C15.827 1.66044 14.1952 2.31301 12.9776 3.4913L12 4.4673L11.024 3.4913C10.4241 2.89148 9.71196 2.41572 8.92817 2.09122C8.14437 1.76673 7.30592 1.59984 6.45761 1.6001Z" fill="#FF7066"/>
</g>
<defs>
<clipPath id="clip0_154_427">
<rect width="24" height="24" fill="white"/>
</clipPath>
</defs>
</svg>
