<svg width="85" height="24" viewBox="0 0 85 24" fill="none" xmlns="http://www.w3.org/2000/svg">
<g id="Frame 29439">
<g id="Group 803">
<g id="&#236;&#153;&#128;&#234;&#184;&#128;&#236;&#153;&#128;&#234;&#184;&#128;">
<path id="Vector" d="M81.6101 19.3861V21.9999H65.6475V16.0022H77.5961V15.1388H65.6475V12.5483H81.3768V18.4293H69.4514V19.3861H81.6101ZM77.2694 7.9509L77.5261 4.84705H65.3441V2.09326H81.5401L81.05 7.9509H77.2694ZM63.9438 11.4748V8.72103H82.8003V11.4748H63.9438Z" fill="#E2E6EF"/>
<path id="Vector_2" d="M43.6779 11.8016C43.6935 11.506 43.7091 11.0782 43.7246 10.5181C43.7557 9.95799 43.7791 9.37456 43.7946 8.7678C43.8257 8.16103 43.8569 7.59315 43.888 7.06418C43.9191 6.51964 43.9502 6.11513 43.9813 5.85064C44.0591 5.22832 44.2769 4.68378 44.6348 4.21704C44.9926 3.73473 45.4438 3.338 45.9883 3.02684C46.5484 2.70012 47.1707 2.45897 47.8553 2.30338C48.5554 2.13224 49.2789 2.04668 50.0257 2.04668C50.7725 2.04668 51.4648 2.14002 52.1027 2.32672C52.7406 2.51342 53.2929 2.78569 53.7596 3.14352C54.2264 3.4858 54.592 3.91365 54.8565 4.42707C55.121 4.92493 55.2454 5.49281 55.2299 6.13069C55.2299 6.41074 55.2143 6.83081 55.1832 7.3909C55.1521 7.93543 55.121 8.51109 55.0898 9.11785C55.0587 9.72462 55.0198 10.3003 54.9732 10.8448C54.942 11.3893 54.9031 11.8016 54.8565 12.0817C54.732 12.9529 54.3508 13.6453 53.7129 14.1587C53.0751 14.6566 52.3049 15.0144 51.4026 15.2322V18.2894H55.8833V21.5099H42.9312V18.2894H47.2019V15.3722C46.1284 15.17 45.2649 14.7732 44.6114 14.182C43.958 13.5753 43.6468 12.7818 43.6779 11.8016ZM63.2345 12.6184H60.5974V21.5099H56.8168V2H60.5974V9.3979H63.2345V12.6184ZM47.6686 6.73746C47.6375 6.87748 47.6064 7.14197 47.5753 7.53092C47.5441 7.90432 47.513 8.30883 47.4819 8.74446C47.4664 9.18009 47.4508 9.59238 47.4352 9.98133C47.4197 10.3703 47.4041 10.6426 47.3886 10.7981C47.3108 11.825 47.8942 12.3384 49.1389 12.3384C49.6678 12.3384 50.119 12.2528 50.4924 12.0817C50.8658 11.895 51.107 11.5527 51.2159 11.0548C51.2781 10.7592 51.3326 10.4014 51.3792 9.98133C51.4259 9.56126 51.457 9.14119 51.4726 8.72112C51.5037 8.30105 51.5193 7.91988 51.5193 7.5776C51.5348 7.23532 51.5426 6.99417 51.5426 6.85414C51.5426 6.3874 51.387 6.00622 51.0758 5.71062C50.7647 5.39946 50.3291 5.24387 49.769 5.24387C49.2244 5.24387 48.7655 5.36834 48.3921 5.61727C48.0342 5.8662 47.7931 6.2396 47.6686 6.73746Z" fill="#E2E6EF"/>
<path id="Vector_3" d="M40.6788 19.3861V21.9999H24.7162V16.0022H36.6648V15.1388H24.7162V12.5483H40.4455V18.4293H28.5202V19.3861H40.6788ZM36.3381 7.9509L36.5948 4.84705H24.4128V2.09326H40.6088L40.1188 7.9509H36.3381ZM23.0126 11.4748V8.72103H41.869V11.4748H23.0126Z" fill="#E2E6EF"/>
<path id="Vector_4" d="M2.74679 11.8016C2.76235 11.506 2.77791 11.0782 2.79347 10.5181C2.82458 9.95799 2.84792 9.37456 2.86348 8.7678C2.89459 8.16103 2.92571 7.59315 2.95683 7.06418C2.98794 6.51964 3.01906 6.11513 3.05017 5.85064C3.12797 5.22832 3.34578 4.68378 3.70362 4.21704C4.06145 3.73473 4.51264 3.338 5.05718 3.02684C5.61727 2.70012 6.2396 2.45897 6.92415 2.30338C7.62427 2.13224 8.34772 2.04668 9.09452 2.04668C9.84131 2.04668 10.5336 2.14002 11.1715 2.32672C11.8094 2.51342 12.3617 2.78569 12.8285 3.14352C13.2952 3.4858 13.6608 3.91365 13.9253 4.42707C14.1898 4.92493 14.3143 5.49281 14.2987 6.13069C14.2987 6.41074 14.2832 6.83081 14.252 7.3909C14.2209 7.93543 14.1898 8.51109 14.1587 9.11785C14.1276 9.72462 14.0887 10.3003 14.042 10.8448C14.0109 11.3893 13.972 11.8016 13.9253 12.0817C13.8009 12.9529 13.4197 13.6453 12.7818 14.1587C12.1439 14.6566 11.3738 15.0144 10.4714 15.2322V18.2894H14.9522V21.5099H2V18.2894H6.27071V15.3722C5.1972 15.17 4.33372 14.7732 3.68028 14.182C3.02684 13.5753 2.71567 12.7818 2.74679 11.8016ZM22.3034 12.6184H19.6663V21.5099H15.8856V2H19.6663V9.3979H22.3034V12.6184ZM6.73746 6.73746C6.70634 6.87748 6.67522 7.14197 6.64411 7.53092C6.61299 7.90432 6.58187 8.30883 6.55076 8.74446C6.5352 9.18009 6.51964 9.59238 6.50408 9.98133C6.48853 10.3703 6.47297 10.6426 6.45741 10.7981C6.37962 11.825 6.96305 12.3384 8.2077 12.3384C8.73668 12.3384 9.18786 12.2528 9.56126 12.0817C9.93466 11.895 10.1758 11.5527 10.2847 11.0548C10.3469 10.7592 10.4014 10.4014 10.4481 9.98133C10.4947 9.56126 10.5259 9.14119 10.5414 8.72112C10.5725 8.30105 10.5881 7.91988 10.5881 7.5776C10.6037 7.23532 10.6114 6.99417 10.6114 6.85414C10.6114 6.3874 10.4559 6.00622 10.1447 5.71062C9.83353 5.39946 9.3979 5.24387 8.83781 5.24387C8.29327 5.24387 7.83431 5.36834 7.46091 5.61727C7.10307 5.8662 6.86192 6.2396 6.73746 6.73746Z" fill="#E2E6EF"/>
</g>
</g>
</g>
</svg>
