<svg width="20" height="20" viewBox="0 0 20 20" fill="none" xmlns="http://www.w3.org/2000/svg">
<path fill-rule="evenodd" clip-rule="evenodd" d="M10.8026 1.90503C10.7524 1.83773 10.6891 1.78124 10.6165 1.73893C10.544 1.69662 10.4637 1.66937 10.3804 1.65879C10.2971 1.64821 10.2125 1.65453 10.1317 1.67736C10.0509 1.7002 9.97552 1.73908 9.91007 1.79169C8.31303 3.07384 7.25959 4.91222 6.9609 6.93836C6.41355 6.54144 5.93378 6.05886 5.54007 5.50919C5.4866 5.43444 5.4173 5.37241 5.3371 5.32751C5.25691 5.28261 5.16781 5.25594 5.07613 5.24942C4.98446 5.24289 4.89247 5.25666 4.80673 5.28975C4.72098 5.32285 4.64359 5.37444 4.58007 5.44086C3.4795 6.59216 2.77403 8.06393 2.56583 9.64297C2.35763 11.222 2.65752 12.8264 3.42207 14.2236C4.18661 15.6208 5.3761 16.7383 6.81824 17.4143C8.26038 18.0903 9.88028 18.2897 11.4433 17.9835C13.0063 17.6773 14.4312 16.8815 15.5117 15.7113C16.5922 14.5411 17.2721 13.0574 17.453 11.475C17.6338 9.89256 17.3062 8.29366 16.5176 6.90988C15.729 5.5261 14.5204 4.4293 13.0667 3.77836C12.1732 3.34383 11.3967 2.70144 10.8026 1.90503ZM13.1251 11.875C13.1248 12.3271 13.0264 12.7736 12.8367 13.1839C12.6471 13.5943 12.3707 13.9586 12.0266 14.2517C11.6825 14.5448 11.2789 14.7598 10.8437 14.8818C10.4084 15.0039 9.95189 15.03 9.50556 14.9585C9.05923 14.887 8.63373 14.7195 8.25842 14.4675C7.8831 14.2156 7.56691 13.8853 7.33166 13.4993C7.0964 13.1133 6.94768 12.6809 6.89576 12.2318C6.84383 11.7828 6.88994 11.3278 7.03091 10.8984C7.55424 11.2859 8.1559 11.5734 8.8084 11.7317C8.98531 10.5908 9.55221 9.54654 10.4126 8.77669C11.1634 8.87668 11.8524 9.24597 12.3513 9.81589C12.8503 10.3858 13.1252 11.1176 13.1251 11.875Z" fill="#FF88B3"/>
</svg>
