<svg width="117" height="24" viewBox="0 0 117 24" fill="none" xmlns="http://www.w3.org/2000/svg">
<g clip-path="url(#clip0_387_16088)">
<circle opacity="0.4" cx="6.49541" cy="6.49541" r="6.49541" fill="#6ADCC4"/>
<circle cx="14.5" cy="14.5093" r="9.5" fill="#6ADCC4"/>
</g>
<path d="M113.61 19.3861V21.9999H97.6475V16.0022H109.596V15.1388H97.6475V12.5483H113.377V18.4293H101.451V19.3861H113.61ZM109.269 7.9509L109.526 4.84705H97.3441V2.09326H113.54L113.05 7.9509H109.269ZM95.9438 11.4748V8.72103H114.8V11.4748H95.9438Z" fill="#E2E6EF"/>
<path d="M75.6779 11.8016C75.6935 11.506 75.7091 11.0782 75.7246 10.5181C75.7557 9.95799 75.7791 9.37456 75.7946 8.7678C75.8257 8.16103 75.8569 7.59315 75.888 7.06418C75.9191 6.51964 75.9502 6.11513 75.9813 5.85064C76.0591 5.22832 76.2769 4.68378 76.6348 4.21704C76.9926 3.73473 77.4438 3.338 77.9883 3.02684C78.5484 2.70012 79.1707 2.45897 79.8553 2.30338C80.5554 2.13224 81.2789 2.04668 82.0257 2.04668C82.7725 2.04668 83.4648 2.14002 84.1027 2.32672C84.7406 2.51342 85.2929 2.78569 85.7596 3.14352C86.2264 3.4858 86.592 3.91365 86.8565 4.42707C87.121 4.92493 87.2454 5.49281 87.2299 6.13069C87.2299 6.41074 87.2143 6.83081 87.1832 7.3909C87.1521 7.93543 87.121 8.51109 87.0898 9.11785C87.0587 9.72462 87.0198 10.3003 86.9732 10.8448C86.942 11.3893 86.9031 11.8016 86.8565 12.0817C86.732 12.9529 86.3508 13.6453 85.7129 14.1587C85.0751 14.6566 84.3049 15.0144 83.4026 15.2322V18.2894H87.8833V21.5099H74.9312V18.2894H79.2019V15.3722C78.1284 15.17 77.2649 14.7732 76.6114 14.182C75.958 13.5753 75.6468 12.7818 75.6779 11.8016ZM95.2345 12.6184H92.5974V21.5099H88.8168V2H92.5974V9.3979H95.2345V12.6184ZM79.6686 6.73746C79.6375 6.87748 79.6064 7.14197 79.5753 7.53092C79.5441 7.90432 79.513 8.30883 79.4819 8.74446C79.4664 9.18009 79.4508 9.59238 79.4352 9.98133C79.4197 10.3703 79.4041 10.6426 79.3886 10.7981C79.3108 11.825 79.8942 12.3384 81.1389 12.3384C81.6678 12.3384 82.119 12.2528 82.4924 12.0817C82.8658 11.895 83.107 11.5527 83.2159 11.0548C83.2781 10.7592 83.3326 10.4014 83.3792 9.98133C83.4259 9.56126 83.457 9.14119 83.4726 8.72112C83.5037 8.30105 83.5193 7.91988 83.5193 7.5776C83.5348 7.23532 83.5426 6.99417 83.5426 6.85414C83.5426 6.3874 83.387 6.00622 83.0758 5.71062C82.7647 5.39946 82.3291 5.24387 81.769 5.24387C81.2244 5.24387 80.7655 5.36834 80.3921 5.61727C80.0342 5.8662 79.7931 6.2396 79.6686 6.73746Z" fill="#E2E6EF"/>
<path d="M72.6787 19.3861V21.9999H56.7161V16.0022H68.6647V15.1388H56.7161V12.5483H72.4454V18.4293H60.52V19.3861H72.6787ZM68.338 7.9509L68.5947 4.84705H56.4127V2.09326H72.6087L72.1186 7.9509H68.338ZM55.0125 11.4748V8.72103H73.8689V11.4748H55.0125Z" fill="#E2E6EF"/>
<path d="M34.7468 11.8016C34.7623 11.506 34.7779 11.0782 34.7935 10.5181C34.8246 9.95799 34.8479 9.37456 34.8635 8.7678C34.8946 8.16103 34.9257 7.59315 34.9568 7.06418C34.9879 6.51964 35.0191 6.11513 35.0502 5.85064C35.128 5.22832 35.3458 4.68378 35.7036 4.21704C36.0615 3.73473 36.5126 3.338 37.0572 3.02684C37.6173 2.70012 38.2396 2.45897 38.9242 2.30338C39.6243 2.13224 40.3477 2.04668 41.0945 2.04668C41.8413 2.04668 42.5336 2.14002 43.1715 2.32672C43.8094 2.51342 44.3617 2.78569 44.8285 3.14352C45.2952 3.4858 45.6608 3.91365 45.9253 4.42707C46.1898 4.92493 46.3143 5.49281 46.2987 6.13069C46.2987 6.41074 46.2832 6.83081 46.252 7.3909C46.2209 7.93543 46.1898 8.51109 46.1587 9.11785C46.1276 9.72462 46.0887 10.3003 46.042 10.8448C46.0109 11.3893 45.972 11.8016 45.9253 12.0817C45.8009 12.9529 45.4197 13.6453 44.7818 14.1587C44.1439 14.6566 43.3738 15.0144 42.4714 15.2322V18.2894H46.9522V21.5099H34V18.2894H38.2707V15.3722C37.1972 15.17 36.3337 14.7732 35.6803 14.182C35.0268 13.5753 34.7157 12.7818 34.7468 11.8016ZM54.3034 12.6184H51.6663V21.5099H47.8856V2H51.6663V9.3979H54.3034V12.6184ZM38.7375 6.73746C38.7063 6.87748 38.6752 7.14197 38.6441 7.53092C38.613 7.90432 38.5819 8.30883 38.5508 8.74446C38.5352 9.18009 38.5196 9.59238 38.5041 9.98133C38.4885 10.3703 38.473 10.6426 38.4574 10.7981C38.3796 11.825 38.963 12.3384 40.2077 12.3384C40.7367 12.3384 41.1879 12.2528 41.5613 12.0817C41.9347 11.895 42.1758 11.5527 42.2847 11.0548C42.3469 10.7592 42.4014 10.4014 42.4481 9.98133C42.4947 9.56126 42.5259 9.14119 42.5414 8.72112C42.5725 8.30105 42.5881 7.91988 42.5881 7.5776C42.6037 7.23532 42.6114 6.99417 42.6114 6.85414C42.6114 6.3874 42.4559 6.00622 42.1447 5.71062C41.8335 5.39946 41.3979 5.24387 40.8378 5.24387C40.2933 5.24387 39.8343 5.36834 39.4609 5.61727C39.1031 5.8662 38.8619 6.2396 38.7375 6.73746Z" fill="#E2E6EF"/>
<defs>
<clipPath id="clip0_387_16088">
<rect width="24" height="24" fill="white"/>
</clipPath>
</defs>
</svg>
