<svg width="24" height="24" viewBox="0 0 24 24" fill="none" xmlns="http://www.w3.org/2000/svg">
<g id="ic:round-location-searching">
<path id="Vector" d="M19.3145 11.1818C19.1292 9.52264 18.3852 7.9758 17.2047 6.7953C16.0242 5.61479 14.4774 4.87078 12.8182 4.68545V3.81818C12.8182 3.36818 12.45 3 12 3C11.55 3 11.1818 3.36818 11.1818 3.81818V4.68545C9.52264 4.87078 7.9758 5.61479 6.7953 6.7953C5.61479 7.9758 4.87078 9.52264 4.68545 11.1818H3.81818C3.36818 11.1818 3 11.55 3 12C3 12.45 3.36818 12.8182 3.81818 12.8182H4.68545C4.87078 14.4774 5.61479 16.0242 6.7953 17.2047C7.9758 18.3852 9.52264 19.1292 11.1818 19.3145V20.1818C11.1818 20.6318 11.55 21 12 21C12.45 21 12.8182 20.6318 12.8182 20.1818V19.3145C14.4774 19.1292 16.0242 18.3852 17.2047 17.2047C18.3852 16.0242 19.1292 14.4774 19.3145 12.8182H20.1818C20.6318 12.8182 21 12.45 21 12C21 11.55 20.6318 11.1818 20.1818 11.1818H19.3145ZM12 17.7273C8.83364 17.7273 6.27273 15.1664 6.27273 12C6.27273 8.83364 8.83364 6.27273 12 6.27273C15.1664 6.27273 17.7273 8.83364 17.7273 12C17.7273 15.1664 15.1664 17.7273 12 17.7273Z" fill="#00C19F"/>
</g>
</svg>
