<svg width="24" height="24" viewBox="0 0 24 24" fill="none" xmlns="http://www.w3.org/2000/svg">
<g id="clarity:pencil-solid" clip-path="url(#clip0_154_683)">
<path id="Vector" d="M2.81332 15.4664L1.54665 20.9331C1.50296 21.1329 1.50445 21.34 1.55104 21.5392C1.59762 21.7384 1.68811 21.9246 1.81589 22.0844C1.94368 22.2441 2.10554 22.3733 2.28964 22.4625C2.47374 22.5516 2.67543 22.5985 2.87999 22.5998C2.9753 22.6094 3.07134 22.6094 3.16665 22.5998L8.66665 21.3331L19.2267 10.8131L13.3333 4.93311L2.81332 15.4664Z" fill="#232834"/>
<path id="Vector_2" d="M22.5466 5.54648L18.6133 1.61315C18.3547 1.35586 18.0048 1.21143 17.64 1.21143C17.2752 1.21143 16.9252 1.35586 16.6666 1.61315L14.48 3.79982L20.3666 9.68648L22.5533 7.49982C22.6813 7.3712 22.7826 7.21862 22.8516 7.05079C22.9205 6.88297 22.9557 6.7032 22.955 6.52177C22.9544 6.34034 22.918 6.16081 22.848 5.99346C22.7779 5.82611 22.6755 5.67422 22.5466 5.54648Z" fill="#232834"/>
</g>
<defs>
<clipPath id="clip0_154_683">
<rect width="24" height="24" fill="white"/>
</clipPath>
</defs>
</svg>
