<svg width="84" height="84" viewBox="0 0 84 84" fill="none" xmlns="http://www.w3.org/2000/svg">
<path d="M42 10C49.6913 10 57.0675 13.1653 62.5061 18.7996C67.9447 24.4338 71 32.0756 71 40.0436C71 52.739 62.3892 66.5745 45.3908 81.698C44.4456 82.5391 43.2405 83.0011 41.9944 83C40.7484 82.9989 39.5441 82.5347 38.6003 81.6918L37.476 80.6811C21.2301 65.952 13 52.4555 13 40.0436C13 32.0756 16.0553 24.4338 21.4939 18.7996C26.9325 13.1653 34.3087 10 42 10Z" fill="#2F2F2F"/>
<path d="M27.6743 9.46102C27.9667 9.17171 28.1959 8.82497 28.3476 8.44265C28.4993 8.06034 28.5701 7.65074 28.5556 7.23969C28.5411 6.82864 28.4416 6.42506 28.2633 6.05438C28.0851 5.68371 27.832 5.35398 27.5199 5.086C25.9497 3.74591 23.9548 3.0067 21.8905 3L21.4358 3.01252H21.369C16.6616 3.29899 12.9903 7.38754 13 12.3174C13 14.9597 14.1126 16.3587 14.9914 17.4782C15.2381 17.7912 15.5473 18.0493 15.8992 18.2361C16.2512 18.4228 16.6383 18.5341 17.0357 18.5629C17.0719 18.5629 17.1331 18.5699 17.3139 18.5699C17.6713 18.5693 18.025 18.4965 18.3536 18.3557C18.6823 18.215 18.979 18.0092 19.226 17.7508L27.6743 9.46102ZM62.4687 3.0153L62.014 3.00139H61.9416C59.8754 3.00677 57.8783 3.74607 56.3067 5.08739C55.9951 5.35535 55.7424 5.68492 55.5644 6.05534C55.3864 6.42577 55.287 6.82902 55.2725 7.23972C55.258 7.65043 55.3287 8.05969 55.4801 8.44174C55.6315 8.82379 55.8604 9.17036 56.1523 9.45963L64.6034 17.7549C64.8509 18.0143 65.1485 18.2207 65.4781 18.3618C65.8078 18.5028 66.1626 18.5755 66.5211 18.5754C66.6991 18.5754 66.7603 18.5754 66.7992 18.5685C67.1964 18.5395 67.5832 18.4281 67.9349 18.2413C68.2867 18.0546 68.5956 17.7966 68.8421 17.4838C69.7266 16.3643 70.828 14.9694 70.8335 12.323C70.8419 7.38754 67.1705 3.29899 62.4687 3.0153Z" fill="url(#paint0_linear_387_14665)"/>
<path d="M66.7289 32.9373C66.7289 46.6411 55.6198 57.7501 41.9161 57.7501C28.2123 57.7501 17.1033 46.6411 17.1033 32.9373C17.1033 19.2336 28.2123 8.12451 41.9161 8.12451C55.6198 8.12451 66.7289 19.2336 66.7289 32.9373Z" fill="url(#paint1_linear_387_14665)"/>
<path fill-rule="evenodd" clip-rule="evenodd" d="M41.9161 53.4349C53.2366 53.4349 62.4136 44.2578 62.4136 32.9373C62.4136 21.6168 53.2366 12.4398 41.9161 12.4398C30.5956 12.4398 21.4185 21.6168 21.4185 32.9373C21.4185 44.2578 30.5956 53.4349 41.9161 53.4349ZM41.9161 57.7501C55.6198 57.7501 66.7289 46.6411 66.7289 32.9373C66.7289 19.2336 55.6198 8.12451 41.9161 8.12451C28.2123 8.12451 17.1033 19.2336 17.1033 32.9373C17.1033 46.6411 28.2123 57.7501 41.9161 57.7501Z" fill="url(#paint2_linear_387_14665)"/>
<path d="M53.0739 28.1408H45.5306L52.3137 19.3682C52.4541 19.1825 52.3274 18.9126 52.098 18.9126H38.9666C38.8708 18.9126 38.7783 18.9652 38.7304 19.0528L29.8585 34.7368C29.7524 34.9226 29.8825 35.1574 30.0948 35.1574H36.0664L33.0053 47.6907C32.9402 47.964 33.2621 48.1568 33.4607 47.9605L53.2622 28.6209C53.4403 28.4492 53.3204 28.1408 53.0739 28.1408Z" fill="url(#paint3_linear_387_14665)"/>
<defs>
<linearGradient id="paint0_linear_387_14665" x1="41.9168" y1="3" x2="41.9168" y2="18.5754" gradientUnits="userSpaceOnUse">
<stop stop-color="#FF5E53"/>
<stop offset="1" stop-color="#F24A3F"/>
</linearGradient>
<linearGradient id="paint1_linear_387_14665" x1="30.0491" y1="14.058" x2="58.6377" y2="48.5802" gradientUnits="userSpaceOnUse">
<stop offset="0.256752" stop-color="white"/>
<stop offset="1" stop-color="#EAEAEA"/>
</linearGradient>
<linearGradient id="paint2_linear_387_14665" x1="41.9161" y1="8.12451" x2="41.9161" y2="57.7501" gradientUnits="userSpaceOnUse">
<stop stop-color="#FF5E53"/>
<stop offset="1" stop-color="#F24A3F"/>
</linearGradient>
<linearGradient id="paint3_linear_387_14665" x1="41.5841" y1="18.9126" x2="41.5841" y2="48.0407" gradientUnits="userSpaceOnUse">
<stop stop-color="#FFD600"/>
<stop offset="0.623942" stop-color="#FFB800"/>
</linearGradient>
</defs>
</svg>
