<svg width="84" height="84" viewBox="0 0 84 84" fill="none" xmlns="http://www.w3.org/2000/svg">
<path d="M42 10C49.6913 10 57.0675 13.1653 62.5061 18.7996C67.9447 24.4338 71 32.0756 71 40.0436C71 52.739 62.3892 66.5745 45.3908 81.698C44.4456 82.5391 43.2405 83.0011 41.9944 83C40.7484 82.9989 39.5441 82.5347 38.6003 81.6918L37.476 80.6811C21.2301 65.952 13 52.4555 13 40.0436C13 32.0756 16.0553 24.4338 21.4939 18.7996C26.9325 13.1653 34.3087 10 42 10Z" fill="#2F2F2F"/>
<path fill-rule="evenodd" clip-rule="evenodd" d="M23.9134 17.0998C23.9134 13.3659 32.2043 10.333 42.4319 10.333C52.6594 10.333 60.9504 13.3585 60.9504 17.0998V50.2328C60.9504 53.9667 52.6594 56.9996 42.4319 56.9996C32.2043 56.9996 23.9134 53.9741 23.9134 50.2328V47.3697H22.7149C19.7036 47.3697 17.2468 44.8137 17.2468 41.6744V26.3984C17.2468 23.2591 19.6951 20.7031 22.7149 20.7031H23.9134V17.0998ZM23.9134 24.9317H21.9216C21.2306 24.9317 20.6676 25.5921 20.6676 26.3984V41.6744C20.6676 42.4807 21.2306 43.1411 21.9216 43.1411H23.9134V24.9317Z" fill="url(#paint0_linear_387_14666)"/>
<path d="M42.5653 10.0073C33.5208 10.0073 26.1875 12.8295 26.1875 16.3184V47.1999C26.1875 50.6813 33.5208 53.511 42.5653 53.511C51.6097 53.511 58.943 50.6888 58.943 47.1999V16.3184C58.943 12.837 51.6097 10.0073 42.5653 10.0073Z" fill="url(#paint1_linear_387_14666)"/>
<path d="M59.2542 10.4374C59.1431 6.26701 55.7357 2.92627 51.5431 2.92627C50.5505 2.92627 49.6024 3.11886 48.7283 3.4596C47.2172 4.05219 45.5135 4.05219 44.0024 3.4596C43.1283 3.11886 42.1802 2.92627 41.1876 2.92627C40.0913 2.92627 39.0543 3.1559 38.1061 3.57071C37.158 3.98553 36.1506 4.05219 35.158 3.82997C34.6172 3.70405 34.0543 3.64479 33.4765 3.64479C30.0913 3.64479 27.2246 5.82256 26.1876 8.84478C25.9061 9.667 25.4246 10.4077 24.7802 10.9929C23.1728 12.4448 22.2691 14.667 22.6839 17.0892C23.1432 19.8077 25.3358 22.0003 28.0543 22.467C28.4098 22.5262 28.758 22.5633 29.1061 22.5707C31.3357 22.6151 33.158 24.304 33.158 26.5336V34.1929H33.2024C33.4691 36.1484 35.1432 37.6521 37.1728 37.6521C39.2024 37.6521 40.8765 36.1484 41.1431 34.1929H41.1876V28.304C41.1876 26.0299 43.032 24.1929 45.3061 24.2003H45.5209C46.6691 24.2003 47.7505 23.8966 48.6839 23.3633C49.7283 22.7707 51.0246 22.9781 51.9579 23.7485C53.5061 25.0225 55.5579 25.7114 57.7654 25.4596C61.2616 25.0596 64.1061 22.2299 64.5209 18.7337C64.9727 14.904 62.6172 11.5485 59.2468 10.4522L59.2542 10.4374Z" fill="url(#paint2_linear_387_14666)"/>
<circle cx="64.2769" cy="5.54127" r="3.50706" transform="rotate(-5.25444 64.2769 5.54127)" fill="white"/>
<circle cx="68.3662" cy="12.9933" r="1.85185" transform="rotate(-5.25444 68.3662 12.9933)" fill="white"/>
<defs>
<linearGradient id="paint0_linear_387_14666" x1="33.5648" y1="15.7064" x2="55.066" y2="54.196" gradientUnits="userSpaceOnUse">
<stop stop-color="#EEF8FF"/>
<stop offset="0.88034" stop-color="#CDE4F3"/>
</linearGradient>
<linearGradient id="paint1_linear_387_14666" x1="27.9874" y1="22.5554" x2="50.2096" y2="53.2961" gradientUnits="userSpaceOnUse">
<stop offset="0.03" stop-color="#FFD366"/>
<stop offset="0.96" stop-color="#FFB31F"/>
</linearGradient>
<linearGradient id="paint2_linear_387_14666" x1="43.58" y1="2.92627" x2="43.58" y2="37.6521" gradientUnits="userSpaceOnUse">
<stop stop-color="white"/>
<stop offset="1" stop-color="#FFF6D8"/>
</linearGradient>
</defs>
</svg>
