<svg width="84" height="84" viewBox="0 0 84 84" fill="none" xmlns="http://www.w3.org/2000/svg">
<path d="M42 10C49.6913 10 57.0675 13.1653 62.5061 18.7996C67.9447 24.4338 71 32.0756 71 40.0436C71 52.739 62.3892 66.5745 45.3908 81.698C44.4456 82.5391 43.2405 83.0011 41.9944 83C40.7484 82.9989 39.5441 82.5347 38.6003 81.6918L37.476 80.6811C21.2301 65.952 13 52.4555 13 40.0436C13 32.0756 16.0553 24.4338 21.4939 18.7996C26.9325 13.1653 34.3087 10 42 10Z" fill="#2F2F2F"/>
<g clip-path="url(#clip0_387_14731)">
<path fill-rule="evenodd" clip-rule="evenodd" d="M65.3692 7.04597C66.5609 8.45769 67.5839 10.0485 68.2905 11.8079H68.2694C70.7899 18.0448 69.6826 25.0507 65.8121 29.9391C64.6732 31.0137 62.9647 29.7916 63.3971 28.2218L63.4815 27.9163C63.7662 25.0402 63.2811 22.143 62.0683 19.5724C61.3828 18.1291 60.4231 16.8964 59.263 15.9167L52.4029 40.615C52.389 40.6676 52.3749 40.72 52.3605 40.7724C52.2775 41.1432 52.1839 41.5041 52.0601 41.865V41.8755C51.7169 42.8986 51.2622 43.8757 50.7092 44.7942C47.6272 50.2877 41.7471 54 35 54C25.0589 54 17 45.9411 17 36C17 26.0589 25.0589 18 35 18C42.2919 18 48.571 22.3359 51.3999 28.5702L59.59 4.24359C59.9169 3.25328 60.9188 2.75812 61.8152 3.11632C62.0683 3.22167 62.3003 3.39023 62.4901 3.61147L65.3692 7.04597Z" fill="url(#paint0_linear_387_14731)"/>
<ellipse cx="26.9287" cy="28.4468" rx="3.77299" ry="5.38998" transform="rotate(23.4724 26.9287 28.4468)" fill="white" fill-opacity="0.5"/>
<circle cx="22.617" cy="36.532" r="1.617" fill="white" fill-opacity="0.5"/>
<path d="M44.1656 0.866675C43.9316 0.304374 43.1064 0.404078 43.013 1.00594L42.9508 1.40705C42.4724 4.49057 40.7154 7.22922 38.112 8.94944C37.7292 9.20241 37.7994 9.78389 38.2315 9.93839C41.1697 10.989 43.5284 13.2303 44.7275 16.1112L44.8835 16.4859C45.1175 17.0482 45.9427 16.9485 46.0361 16.3467L46.0983 15.9456C46.5767 12.862 48.3337 10.1234 50.9371 8.40316C51.32 8.15019 51.2497 7.56871 50.8176 7.41421C47.8794 6.3636 45.5207 4.12225 44.3216 1.24142L44.1656 0.866675Z" fill="url(#paint1_linear_387_14731)"/>
<path d="M32.0096 2.52925C31.8796 2.21676 31.421 2.27217 31.3691 2.60665L31.3483 2.74082C31.126 4.17359 30.3096 5.44612 29.0999 6.24542C28.8825 6.38908 28.9224 6.71931 29.1678 6.80705C30.533 7.29523 31.629 8.33668 32.1862 9.67527L32.2384 9.80062C32.3684 10.1131 32.827 10.0577 32.8789 9.72323L32.8997 9.58905C33.122 8.15628 33.9384 6.88376 35.1481 6.08445C35.3655 5.94079 35.3256 5.61056 35.0802 5.52282C33.7149 5.03465 32.619 3.9932 32.0618 2.65461L32.0096 2.52925Z" fill="url(#paint2_linear_387_14731)"/>
</g>
<defs>
<linearGradient id="paint0_linear_387_14731" x1="52" y1="5.5" x2="36.5" y2="44" gradientUnits="userSpaceOnUse">
<stop stop-color="#B3FF53"/>
<stop offset="1" stop-color="#DDFF57"/>
</linearGradient>
<linearGradient id="paint1_linear_387_14731" x1="43.3417" y1="-1.11269" x2="45.7074" y2="18.4653" gradientUnits="userSpaceOnUse">
<stop stop-color="#EEFFD7"/>
<stop offset="1" stop-color="#C1FF6E"/>
</linearGradient>
<linearGradient id="paint2_linear_387_14731" x1="31.5518" y1="1.42924" x2="32.6962" y2="10.9006" gradientUnits="userSpaceOnUse">
<stop stop-color="#EEFFD7"/>
<stop offset="1" stop-color="#C1FF6E"/>
</linearGradient>
<clipPath id="clip0_387_14731">
<rect width="60" height="60" fill="white" transform="translate(12)"/>
</clipPath>
</defs>
</svg>
