<svg width="84" height="84" viewBox="0 0 84 84" fill="none" xmlns="http://www.w3.org/2000/svg">
<path d="M42 10C49.6913 10 57.0675 13.1653 62.5061 18.7996C67.9447 24.4338 71 32.0756 71 40.0436C71 52.739 62.3892 66.5745 45.3908 81.698C44.4456 82.5391 43.2405 83.0011 41.9944 83C40.7484 82.9989 39.5441 82.5347 38.6003 81.6918L37.476 80.6811C21.2301 65.952 13 52.4555 13 40.0436C13 32.0756 16.0553 24.4338 21.4939 18.7996C26.9325 13.1653 34.3087 10 42 10Z" fill="#2F2F2F"/>
<path d="M29.6514 8.71289L18.193 10.5693C15.264 11.0334 13.8716 12.8898 16.0972 19.0063L18.1929 23.5643L29.6514 8.71289Z" fill="#FF8D88"/>
<path d="M55.841 8.71289L67.2995 10.5693C70.2284 11.0334 71.6208 12.8898 69.3952 19.0063L67.2995 23.5643L55.841 8.71289Z" fill="#FF8D88"/>
<path d="M68.3763 30.86C68.3763 45.1359 56.8014 56.72 42.5163 56.72C28.2311 56.72 16.6562 45.1359 16.6562 30.86C16.6562 16.5841 28.2311 5 42.5163 5C56.8014 5 68.3763 16.5748 68.3763 30.86Z" fill="url(#paint0_linear_387_14667)"/>
<path d="M54.1188 37.8401C54.1188 42.8339 49.0601 46.8809 42.8132 46.8809C36.5663 46.8809 31.5076 42.8339 31.5076 37.8401C31.5076 32.8463 36.5756 28.7993 42.8132 28.7993C49.0508 28.7993 54.1188 32.8463 54.1188 37.8401Z" fill="url(#paint1_linear_387_14667)"/>
<path d="M40.5299 37.8404C40.5299 38.9171 39.7594 39.7989 38.8034 39.7989C37.8473 39.7989 37.0769 38.9264 37.0769 37.8404C37.0769 36.7544 37.8566 35.8818 38.8034 35.8818C39.7502 35.8818 40.5299 36.7544 40.5299 37.8404Z" fill="#6C4543"/>
<path d="M49.5242 37.8404C49.5242 38.9171 48.7538 39.7989 47.7978 39.7989C46.8417 39.7989 46.0713 38.9264 46.0713 37.8404C46.0713 36.7544 46.851 35.8818 47.7978 35.8818C48.7445 35.8818 49.5242 36.7544 49.5242 37.8404Z" fill="#6C4543"/>
<path d="M34.2922 24.9568C34.2922 26.7495 33.0497 28.2055 31.5075 28.2055C29.9654 28.2055 28.7229 26.7495 28.7229 24.9568C28.7229 23.164 29.9742 21.708 31.5075 21.708C33.0409 21.708 34.2922 23.164 34.2922 24.9568Z" fill="#43403E"/>
<path d="M57.4975 24.9568C57.4975 26.7495 56.255 28.2055 54.7129 28.2055C53.1707 28.2055 51.9282 26.7495 51.9282 24.9568C51.9282 23.164 53.1795 21.708 54.7129 21.708C56.2462 21.708 57.4975 23.164 57.4975 24.9568Z" fill="#43403E"/>
<defs>
<linearGradient id="paint0_linear_387_14667" x1="32.0554" y1="10.1052" x2="54.7966" y2="53.7312" gradientUnits="userSpaceOnUse">
<stop offset="0.427403" stop-color="#FFBAB7"/>
<stop offset="1" stop-color="#FF908A"/>
</linearGradient>
<linearGradient id="paint1_linear_387_14667" x1="40.242" y1="30.0618" x2="48.1318" y2="44.4491" gradientUnits="userSpaceOnUse">
<stop stop-color="#FF9A96"/>
<stop offset="1" stop-color="#FF7871"/>
</linearGradient>
</defs>
</svg>
