<svg width="84" height="84" viewBox="0 0 84 84" fill="none" xmlns="http://www.w3.org/2000/svg">
<path d="M42 10C49.6913 10 57.0675 13.1653 62.5061 18.7996C67.9447 24.4338 71 32.0756 71 40.0436C71 52.739 62.3892 66.5745 45.3908 81.698C44.4456 82.5391 43.2405 83.0011 41.9944 83C40.7484 82.9989 39.5441 82.5347 38.6003 81.6918L37.476 80.6811C21.2301 65.952 13 52.4555 13 40.0436C13 32.0756 16.0553 24.4338 21.4939 18.7996C26.9325 13.1653 34.3087 10 42 10Z" fill="#2F2F2F"/>
<path d="M41.5343 1C52.1856 1 60.8362 9.65055 60.8362 20.3019V41.08H22.2324V20.3019C22.2324 9.65055 30.883 1 41.5343 1Z" fill="url(#paint0_linear_387_14734)"/>
<path d="M22.0382 41.0801H61.0369C61.7815 41.0801 62.3772 41.6822 62.3772 42.4204V47.037H20.6914V42.4204C20.6914 41.6758 21.2936 41.0801 22.0317 41.0801H22.0382Z" fill="url(#paint1_linear_387_14734)"/>
<path d="M62.5323 47.043H20.5357C20.0064 47.043 19.5774 47.472 19.5774 48.0013V52.0416C19.5774 52.5709 20.0064 52.9999 20.5357 52.9999H62.5323C63.0616 52.9999 63.4906 52.5709 63.4906 52.0416V48.0013C63.4906 47.472 63.0616 47.043 62.5323 47.043Z" fill="#6E7E87"/>
<ellipse cx="32.2176" cy="13.0903" rx="3.847" ry="5.49571" transform="rotate(23.4724 32.2176 13.0903)" fill="#FF8B84" fill-opacity="0.5"/>
<circle cx="27.8216" cy="21.3343" r="1.64871" fill="#FF8B84" fill-opacity="0.5"/>
<defs>
<linearGradient id="paint0_linear_387_14734" x1="38.237" y1="1" x2="56.4724" y2="37.8948" gradientUnits="userSpaceOnUse">
<stop stop-color="#FF5E48"/>
<stop offset="1" stop-color="#FF2F2F"/>
</linearGradient>
<linearGradient id="paint1_linear_387_14734" x1="36.1166" y1="40.8635" x2="55.2001" y2="46.8006" gradientUnits="userSpaceOnUse">
<stop stop-color="#CAECFF"/>
<stop offset="1" stop-color="#ABD3E9"/>
</linearGradient>
</defs>
</svg>
