<svg width="84" height="84" viewBox="0 0 84 84" fill="none" xmlns="http://www.w3.org/2000/svg">
<path d="M42 10C49.6913 10 57.0675 13.1653 62.5061 18.7996C67.9447 24.4338 71 32.0756 71 40.0436C71 52.739 62.3892 66.5745 45.3908 81.698C44.4456 82.5391 43.2405 83.0011 41.9944 83C40.7484 82.9989 39.5441 82.5347 38.6003 81.6918L37.476 80.6811C21.2301 65.952 13 52.4555 13 40.0436C13 32.0756 16.0553 24.4338 21.4939 18.7996C26.9325 13.1653 34.3087 10 42 10Z" fill="#2F2F2F"/>
<path d="M42.2279 55.5436C56.1851 55.5436 67.4997 44.229 67.4997 30.2718C67.4997 16.3146 56.1851 5 42.2279 5C28.2706 5 16.9561 16.3146 16.9561 30.2718C16.9561 44.229 28.2706 55.5436 42.2279 55.5436Z" fill="url(#paint0_linear_387_14455)"/>
<path d="M42.2279 55.5436C56.1851 55.5436 67.4997 44.229 67.4997 30.2718C67.4997 16.3146 56.1851 5 42.2279 5C28.2706 5 16.9561 16.3146 16.9561 30.2718C16.9561 44.229 28.2706 55.5436 42.2279 55.5436Z" fill="url(#paint1_linear_387_14455)"/>
<rect x="14" y="34.0962" width="56.1134" height="16.4673" transform="rotate(-2.63 14 34.0962)" fill="#737C94"/>
<path fill-rule="evenodd" clip-rule="evenodd" d="M54.6888 17.3456C53.9589 17.2996 53.2726 17.3238 52.6484 17.4605L52.6471 17.4608C50.4697 17.935 48.8217 19.3318 48.2303 21.0883C48.0352 21.6677 47.4074 21.9792 46.828 21.7841C46.2486 21.589 45.9371 20.9612 46.1321 20.3818C47.0129 17.766 49.3719 15.9084 52.1755 15.2977C53.0676 15.1024 53.975 15.0823 54.8279 15.136C55.438 15.1744 55.9015 15.7002 55.8631 16.3103C55.8247 16.9205 55.299 17.384 54.6888 17.3456Z" fill="#574B42"/>
<path fill-rule="evenodd" clip-rule="evenodd" d="M29.6217 15.136C30.4746 15.0823 31.382 15.1024 32.2742 15.2977C35.0778 15.9085 37.4367 17.766 38.3174 20.3818C38.5125 20.9612 38.201 21.589 37.6216 21.7841C37.0422 21.9792 36.4143 21.6677 36.2193 21.0883C35.6278 19.3318 33.9799 17.935 31.8024 17.4608L31.8012 17.4605C31.177 17.3238 30.4906 17.2996 29.7608 17.3456C29.1506 17.384 28.6249 16.9205 28.5865 16.3103C28.5481 15.7002 29.0115 15.1744 29.6217 15.136Z" fill="#574B42"/>
<path d="M32.7963 30.2054C34.5447 30.2054 35.9622 28.5327 35.9622 26.4694C35.9622 24.4061 34.5447 22.7334 32.7963 22.7334C31.0478 22.7334 29.6304 24.4061 29.6304 26.4694C29.6304 28.5327 31.0478 30.2054 32.7963 30.2054Z" fill="#574B42"/>
<path d="M51.6539 30.2054C53.4024 30.2054 54.8198 28.5327 54.8198 26.4694C54.8198 24.4061 53.4024 22.7334 51.6539 22.7334C49.9055 22.7334 48.488 24.4061 48.488 26.4694C48.488 28.5327 49.9055 30.2054 51.6539 30.2054Z" fill="#574B42"/>
<path d="M64.6378 34.8574L64.6631 41.0357L62.7964 41.1213L62.2561 34.9666L64.6378 34.8574ZM63.9131 44.3727C63.5268 44.3904 63.2042 44.2934 62.9451 44.0817C62.6941 43.8609 62.561 43.5832 62.5456 43.2485C62.5299 42.9052 62.6368 42.6122 62.8665 42.3694C63.1048 42.1263 63.417 41.9959 63.8032 41.9782C64.1809 41.9609 64.4952 42.0625 64.7461 42.2833C65.0056 42.5036 65.1432 42.7854 65.159 43.1287C65.1743 43.4634 65.0629 43.7523 64.8246 43.9955C64.5945 44.2296 64.2907 44.3554 63.9131 44.3727Z" fill="white"/>
<path d="M59.1919 38.836L58.9088 40.539L60.4537 40.4681L60.5446 42.4507L58.5749 42.541L58.2404 44.5302L56.1806 44.6246L56.5151 42.6355L54.3781 42.7335L54.0436 44.7226L51.9838 44.8171L52.3183 42.8279L50.413 42.9153L50.322 40.9327L52.6522 40.8259L52.9353 39.1229L51.0686 39.2085L50.9777 37.2259L53.2564 37.1214L53.5809 35.1972L55.6407 35.1028L55.3162 37.027L57.4532 36.929L57.7778 35.0048L59.8376 34.9103L59.513 36.8345L61.1093 36.7613L61.2003 38.7439L59.1919 38.836ZM57.1321 38.9304L54.9951 39.0284L54.712 40.7314L56.849 40.6334L57.1321 38.9304Z" fill="white"/>
<path d="M39.6354 38.3397C39.6035 37.6445 39.7763 37.0991 40.1538 36.7034C40.5399 36.3072 41.0505 36.0946 41.6856 36.0655C42.3207 36.0363 42.8443 36.2015 43.2564 36.5611C43.6685 36.9206 43.8905 37.448 43.9224 38.1431C43.9543 38.8383 43.7815 39.3838 43.404 39.7795C43.0265 40.1752 42.5202 40.3877 41.8851 40.4168C41.25 40.4459 40.7221 40.2809 40.3014 39.9218C39.8893 39.5623 39.6673 39.0349 39.6354 38.3397ZM48.2834 35.9048L43.7426 45.1952L41.6185 45.2926L46.1592 36.0022L48.2834 35.9048ZM41.7317 37.3534C41.3198 37.3723 41.1274 37.6779 41.1545 38.2701C41.1813 38.8537 41.4006 39.136 41.8126 39.1171C42.01 39.1081 42.1611 39.0281 42.266 38.877C42.3709 38.726 42.4167 38.5046 42.4033 38.2128C42.3761 37.6206 42.1523 37.3342 41.7317 37.3534ZM45.9924 43.0537C45.9605 42.3585 46.1333 41.8131 46.5108 41.4173C46.8883 41.0216 47.3945 40.8092 48.0297 40.7801C48.6648 40.7509 49.1884 40.9161 49.6005 41.2757C50.0126 41.6352 50.2346 42.1625 50.2665 42.8577C50.2983 43.5529 50.1255 44.0984 49.7481 44.4941C49.3706 44.8898 48.8643 45.1023 48.2292 45.1314C47.5941 45.1605 47.0705 44.9953 46.6584 44.6358C46.2463 44.2763 46.0243 43.7489 45.9924 43.0537ZM48.0758 42.068C47.8784 42.0771 47.7273 42.1571 47.6224 42.3081C47.5261 42.4588 47.4848 42.6843 47.4986 42.9847C47.5254 43.5683 47.7447 43.8506 48.1567 43.8317C48.3541 43.8227 48.5052 43.7426 48.6101 43.5916C48.715 43.4406 48.7607 43.2192 48.7474 42.9274C48.734 42.6356 48.6682 42.4193 48.5499 42.2785C48.4312 42.1291 48.2732 42.059 48.0758 42.068Z" fill="white"/>
<path d="M36.1465 35.9828C37.0648 35.9407 37.8096 36.1474 38.3809 36.6028C38.9608 37.0579 39.2709 37.7231 39.311 38.5985C39.348 39.4053 39.1109 40.0483 38.5996 40.5275C38.0966 40.9978 37.4118 41.2572 36.5454 41.3055L36.5253 42.274L34.5942 42.3625L34.42 39.971L35.1925 39.9355C35.8533 39.9052 36.3517 39.8007 36.6875 39.6219C37.0319 39.4427 37.1942 39.1385 37.1746 38.7094C37.1608 38.409 37.0684 38.1767 36.8975 38.0125C36.7266 37.8484 36.4952 37.773 36.2034 37.7863C35.8944 37.8005 35.6582 37.9017 35.4948 38.0898C35.3311 38.2693 35.2561 38.5092 35.2698 38.8096L33.1972 38.9047C33.156 38.3819 33.2416 37.905 33.4541 37.4738C33.6751 37.0422 34.0118 36.6957 34.4643 36.4341C34.9249 36.1636 35.4856 36.0131 36.1465 35.9828ZM35.739 45.6642C35.3528 45.682 35.0301 45.5849 34.771 45.3732C34.52 45.1525 34.3869 44.8748 34.3716 44.5401C34.3558 44.1968 34.4628 43.9038 34.6925 43.661C34.9307 43.4179 35.243 43.2874 35.6292 43.2697C36.0068 43.2524 36.3211 43.3541 36.572 43.5748C36.8315 43.7951 36.9692 44.0769 36.9849 44.4202C37.0003 44.7549 36.8888 45.0439 36.6505 45.287C36.4205 45.5212 36.1166 45.6469 35.739 45.6642Z" fill="white"/>
<path d="M27.2508 35.8521C28.2635 35.8056 29.1564 35.9582 29.9294 36.3098C30.7019 36.6528 31.3059 37.1626 31.7411 37.8393C32.1846 38.507 32.4269 39.2914 32.4683 40.1926C32.5017 40.9221 32.4041 41.606 32.1753 42.2444C31.9552 42.8823 31.6049 43.4015 31.1244 43.802C30.6521 44.1934 30.077 44.4047 29.399 44.4358C28.9441 44.4567 28.5623 44.3839 28.2537 44.2174C27.9536 44.0506 27.7446 43.8064 27.6266 43.485C27.4017 43.8308 27.1047 44.1067 26.7357 44.3128C26.3664 44.5104 25.9586 44.6194 25.5123 44.6399C24.8772 44.669 24.3664 44.5032 23.9801 44.1425C23.6019 43.7728 23.3976 43.2575 23.3673 42.5967C23.3386 41.9702 23.4404 41.3764 23.6727 40.8153C23.9046 40.2456 24.2403 39.783 24.6798 39.4274C25.1193 39.0718 25.6223 38.881 26.1887 38.8551C26.9097 38.822 27.4107 39.0571 27.6918 39.5602L27.7763 38.8726L29.5529 38.7911L29.1347 42.0484C29.116 42.2041 29.1094 42.342 29.1149 42.4621C29.1322 42.8397 29.3083 43.0209 29.643 43.0055C30.0549 42.9866 30.3562 42.7105 30.5468 42.1771C30.7455 41.6348 30.8291 41.0203 30.7976 40.3337C30.7524 39.3467 30.4037 38.5887 29.7516 38.0595C29.1081 37.53 28.2242 37.291 27.0998 37.3426C26.1386 37.3867 25.2738 37.6585 24.5055 38.1582C23.7457 38.6575 23.1612 39.3207 22.7519 40.1479C22.3422 40.9666 22.1594 41.8565 22.2035 42.8178C22.2511 43.8562 22.5885 44.6492 23.2157 45.1967C23.8514 45.7438 24.7142 45.9923 25.8042 45.9424C26.6539 45.9034 27.4063 45.7141 28.0616 45.3744L28.4736 46.7617C27.6494 47.1693 26.7138 47.3971 25.6667 47.4452C24.6883 47.49 23.8171 47.3408 23.0531 46.9974C22.2977 46.6536 21.7024 46.1434 21.2671 45.4667C20.8319 44.79 20.593 43.9882 20.5505 43.0613C20.491 41.7653 20.742 40.5798 21.3033 39.5048C21.8643 38.4212 22.6633 37.5589 23.7004 36.918C24.7456 36.268 25.9291 35.9127 27.2508 35.8521ZM26.1606 43.0233C26.4009 43.0123 26.6207 42.9291 26.82 42.7738C27.0278 42.618 27.1864 42.4172 27.2955 42.1714C27.4128 41.9166 27.465 41.6476 27.452 41.3644C27.4386 41.0726 27.3463 40.8403 27.1749 40.6676C27.0032 40.4862 26.7757 40.4021 26.4925 40.415C26.1149 40.4324 25.8091 40.6098 25.5751 40.9473C25.3412 41.2849 25.2345 41.6768 25.2549 42.1231C25.2679 42.4063 25.3513 42.6304 25.5051 42.7954C25.6589 42.9603 25.8774 43.0363 26.1606 43.0233Z" fill="white"/>
<defs>
<linearGradient id="paint0_linear_387_14455" x1="26.8113" y1="14.3016" x2="55.4317" y2="50.7926" gradientUnits="userSpaceOnUse">
<stop stop-color="#FFDA16"/>
<stop offset="1" stop-color="#FFAD0E"/>
</linearGradient>
<linearGradient id="paint1_linear_387_14455" x1="42.2279" y1="5" x2="43.6356" y2="32.4226" gradientUnits="userSpaceOnUse">
<stop stop-color="#FF4545"/>
<stop offset="1" stop-color="#FF4545" stop-opacity="0"/>
</linearGradient>
</defs>
</svg>
