<svg width="84" height="84" viewBox="0 0 84 84" fill="none" xmlns="http://www.w3.org/2000/svg">
<path d="M42 10C49.6913 10 57.0675 13.1653 62.5061 18.7996C67.9447 24.4338 71 32.0756 71 40.0436C71 52.739 62.3892 66.5745 45.3908 81.698C44.4456 82.5391 43.2405 83.0011 41.9944 83C40.7484 82.9989 39.5441 82.5347 38.6003 81.6918L37.476 80.6811C21.2301 65.952 13 52.4555 13 40.0436C13 32.0756 16.0553 24.4338 21.4939 18.7996C26.9325 13.1653 34.3087 10 42 10Z" fill="#2F2F2F"/>
<path d="M16.7648 42.5231L19.4327 38.5199L25.1218 44.285C23.2767 44.5638 21.6837 45.7253 20.854 47.3968L19.4898 50.1449C19.149 50.8317 18.4944 51.3089 17.7363 51.4235L17.3047 51.4887C16.26 51.6466 15.2851 50.9276 15.1273 49.883C14.7387 47.3114 15.3226 44.6873 16.7648 42.5231Z" fill="url(#paint0_linear_387_14662)"/>
<path d="M67.1551 54.183C62.5982 49.7761 63.5186 44.1038 65.2294 37.6684C65.3197 37.375 65.4052 37.0799 65.4858 36.7832C66.1743 34.2387 66.4871 31.5459 66.3582 28.7708C65.6874 14.4359 53.5228 3.35813 39.1879 4.02893C24.8546 4.69972 13.7768 16.8626 14.4476 31.1976C14.7798 38.2973 17.9322 44.5956 22.7696 49.0654C23.5517 49.9716 24.4498 50.773 25.4496 51.4325C33.8667 57.7679 43.1868 59.0128 53.6115 58.9999L65.6281 58.0014C67.6259 57.9981 68.5918 55.5714 67.1551 54.183Z" fill="url(#paint1_linear_387_14662)"/>
<path d="M25.8583 37.1768C27.7537 37.1768 29.2903 34.872 29.2903 32.0288C29.2903 29.1857 27.7537 26.8809 25.8583 26.8809C23.9628 26.8809 22.4263 29.1857 22.4263 32.0288C22.4263 34.872 23.9628 37.1768 25.8583 37.1768Z" fill="#8284B9" fill-opacity="0.7"/>
<path d="M47.5943 37.1768C49.4898 37.1768 51.0263 34.872 51.0263 32.0288C51.0263 29.1857 49.4898 26.8809 47.5943 26.8809C45.6989 26.8809 44.1624 29.1857 44.1624 32.0288C44.1624 34.872 45.6989 37.1768 47.5943 37.1768Z" fill="#8284B9" fill-opacity="0.7"/>
<path d="M25.8338 32.36C27.9222 32.36 29.6151 30.6671 29.6151 28.5787C29.6151 26.4903 27.9222 24.7974 25.8338 24.7974C23.7454 24.7974 22.0525 26.4903 22.0525 28.5787C22.0525 30.6671 23.7454 32.36 25.8338 32.36Z" fill="#525252"/>
<path d="M47.5762 32.36C49.6646 32.36 51.3576 30.6671 51.3576 28.5787C51.3576 26.4903 49.6646 24.7974 47.5762 24.7974C45.4879 24.7974 43.7949 26.4903 43.7949 28.5787C43.7949 30.6671 45.4879 32.36 47.5762 32.36Z" fill="#525252"/>
<path d="M36.9367 39.8031C39.4667 39.8031 41.7 41.0689 43.0415 43.0006C43.4447 43.5811 44.3654 43.3005 44.367 42.5927C44.367 42.3879 44.3606 42.1815 44.3428 41.9735C44.0526 38.3244 41.0856 35.3946 37.4317 35.1559C33.1022 34.8737 29.5032 38.3019 29.5032 42.5717C29.5032 42.5798 29.5032 42.5878 29.5032 42.5959C29.5048 43.3021 30.4255 43.5795 30.8286 43.0006C32.1702 41.0689 34.4035 39.8031 36.9351 39.8031H36.9367Z" fill="#525252"/>
<path d="M50.4849 40.9068L53.721 37.3472L58.4849 43.8975C56.6188 43.8975 54.8701 44.808 53.8 46.3367L52.0406 48.8502C51.6009 49.4783 50.8824 49.8524 50.1157 49.8524H49.6791C48.6226 49.8524 47.7661 48.9959 47.7661 47.9394C47.7661 45.3386 48.7355 42.8312 50.4849 40.9068Z" fill="url(#paint2_linear_387_14662)" fill-opacity="0.8"/>
<defs>
<linearGradient id="paint0_linear_387_14662" x1="20.9112" y1="44.319" x2="22.9995" y2="42.1967" gradientUnits="userSpaceOnUse">
<stop stop-color="#ABE3D7"/>
<stop offset="1" stop-color="#D2FDF4" stop-opacity="0"/>
</linearGradient>
<linearGradient id="paint1_linear_387_14662" x1="42.6014" y1="4" x2="42.6014" y2="59" gradientUnits="userSpaceOnUse">
<stop stop-color="#E7EFEE"/>
<stop offset="1" stop-color="#CDFFF4"/>
</linearGradient>
<linearGradient id="paint2_linear_387_14662" x1="51.339" y1="46.2795" x2="58.4849" y2="39.7291" gradientUnits="userSpaceOnUse">
<stop stop-color="#AADFD4"/>
<stop offset="1" stop-color="#D2FDF4" stop-opacity="0"/>
</linearGradient>
</defs>
</svg>
