<svg width="84" height="84" viewBox="0 0 84 84" fill="none" xmlns="http://www.w3.org/2000/svg">
<path d="M42 10C49.6913 10 57.0675 13.1653 62.5061 18.7996C67.9447 24.4338 71 32.0756 71 40.0436C71 52.739 62.3892 66.5745 45.3908 81.698C44.4456 82.5391 43.2405 83.0011 41.9944 83C40.7484 82.9989 39.5441 82.5347 38.6003 81.6918L37.476 80.6811C21.2301 65.952 13 52.4555 13 40.0436C13 32.0756 16.0553 24.4338 21.4939 18.7996C26.9325 13.1653 34.3087 10 42 10Z" fill="#2F2F2F"/>
<g clip-path="url(#clip0_387_14663)">
<path d="M42 55.5C55.8071 55.5 67 44.3071 67 30.5C67 16.6929 55.8071 5.5 42 5.5C28.1929 5.5 17 16.6929 17 30.5C17 44.3071 28.1929 55.5 42 55.5Z" fill="url(#paint0_linear_387_14663)"/>
<path d="M24.9001 19.3853V48.6945C27.3454 50.9858 30.2353 52.7813 33.4501 53.9612V16.8203H27.4651C26.0458 16.8203 24.9001 17.966 24.9001 19.3853Z" fill="url(#paint1_linear_387_14663)"/>
<path d="M56.535 16.8203H50.55V53.9612C53.7648 52.7984 56.6547 50.9858 59.1 48.6945V19.3853C59.1 17.966 57.9543 16.8203 56.535 16.8203Z" fill="url(#paint2_linear_387_14663)"/>
<path d="M31.8253 15.4183C31.7398 15.6748 31.0729 16.8205 29.1748 16.8205C27.2767 16.8205 26.6098 15.6748 26.5243 15.4183C26.2336 14.5291 25.2589 14.0332 24.3527 14.341C23.4635 14.6317 22.9676 15.6064 23.2754 16.4956C23.7542 17.9491 25.6009 20.2234 29.1748 20.2234C32.7487 20.2234 34.5784 17.9491 35.0743 16.4956C35.365 15.6064 34.8862 14.6317 33.997 14.341C33.1078 14.0503 32.1331 14.5291 31.8424 15.4183H31.8253Z" fill="#4D4947"/>
<path d="M57.4752 15.4183C57.3897 15.6748 56.7228 16.8205 54.8247 16.8205C52.9266 16.8205 52.2597 15.6748 52.1742 15.4183C51.8835 14.5291 50.9088 14.0332 50.0196 14.341C49.1305 14.6317 48.6346 15.6064 48.9424 16.4956C49.4212 17.9491 51.2679 20.2234 54.8418 20.2234C58.4157 20.2234 60.2454 17.9491 60.7413 16.4956C61.032 15.6064 60.5532 14.6317 59.664 14.341C58.7748 14.0503 57.8001 14.5291 57.5094 15.4183H57.4752Z" fill="#4D4947"/>
<path d="M35.1602 28.7901C35.1602 25.0111 38.221 21.9502 42.0001 21.9502C45.7792 21.9502 48.84 25.0111 48.84 28.7901V32.2101C48.84 35.9892 45.7792 39.0501 42.0001 39.0501C38.221 39.0501 35.1602 35.9892 35.1602 32.2101V28.7901Z" fill="url(#paint3_linear_387_14663)"/>
<mask id="mask0_387_14663" style="mask-type:alpha" maskUnits="userSpaceOnUse" x="35" y="21" width="14" height="19">
<path d="M35.1602 28.7901C35.1602 25.0111 38.221 21.9502 42.0001 21.9502C45.7792 21.9502 48.84 25.0111 48.84 28.7901V32.2101C48.84 35.9892 45.7792 39.0501 42.0001 39.0501C38.221 39.0501 35.1602 35.9892 35.1602 32.2101V28.7901Z" fill="#3C3836"/>
</mask>
<g mask="url(#mask0_387_14663)">
<rect x="33.6667" y="14.3237" width="15.6863" height="10.7843" fill="#F0F3F9"/>
</g>
</g>
<defs>
<linearGradient id="paint0_linear_387_14663" x1="35.1373" y1="5.5" x2="48.8627" y2="42.2647" gradientUnits="userSpaceOnUse">
<stop offset="0.085" stop-color="#FFDA16"/>
<stop offset="1" stop-color="#FFAD0E"/>
</linearGradient>
<linearGradient id="paint1_linear_387_14663" x1="29.1751" y1="16.8203" x2="29.1751" y2="53.9612" gradientUnits="userSpaceOnUse">
<stop stop-color="#8FDDFF"/>
<stop offset="1" stop-color="#4685FF"/>
</linearGradient>
<linearGradient id="paint2_linear_387_14663" x1="54.825" y1="16.8203" x2="54.825" y2="53.9612" gradientUnits="userSpaceOnUse">
<stop stop-color="#8FDDFF"/>
<stop offset="1" stop-color="#4685FF"/>
</linearGradient>
<linearGradient id="paint3_linear_387_14663" x1="42.0001" y1="21.9502" x2="42.0001" y2="39.0501" gradientUnits="userSpaceOnUse">
<stop stop-color="#4D4947"/>
<stop offset="1" stop-color="#785F52"/>
</linearGradient>
<clipPath id="clip0_387_14663">
<rect width="50" height="50" fill="white" transform="translate(17 5.5)"/>
</clipPath>
</defs>
</svg>
