<svg width="84" height="84" viewBox="0 0 84 84" fill="none" xmlns="http://www.w3.org/2000/svg">
<path d="M42 10C49.6913 10 57.0675 13.1653 62.5061 18.7996C67.9447 24.4338 71 32.0756 71 40.0436C71 52.739 62.3892 66.5745 45.3908 81.698C44.4456 82.5391 43.2405 83.0011 41.9944 83C40.7484 82.9989 39.5441 82.5347 38.6003 81.6918L37.476 80.6811C21.2301 65.952 13 52.4555 13 40.0436C13 32.0756 16.0553 24.4338 21.4939 18.7996C26.9325 13.1653 34.3087 10 42 10Z" fill="#2F2F2F"/>
<g clip-path="url(#clip0_387_14493)">
<path d="M42.1727 56.9997C56.0367 56.9997 67.2756 45.7608 67.2756 31.8968C67.2756 18.0329 56.0367 6.79395 42.1727 6.79395C28.3088 6.79395 17.0698 18.0329 17.0698 31.8968C17.0698 45.7608 28.3088 56.9997 42.1727 56.9997Z" fill="url(#paint0_linear_387_14493)"/>
<ellipse cx="28.8801" cy="31.3415" rx="3.38889" ry="2.42063" fill="#FF5E53" fill-opacity="0.7"/>
<ellipse cx="55.0229" cy="31.3415" rx="3.38889" ry="2.42063" fill="#FF5E53" fill-opacity="0.7"/>
<path fill-rule="evenodd" clip-rule="evenodd" d="M31.8229 22.2329C31.0537 21.8405 30.1117 22.1544 29.7193 22.9394C29.3268 23.7086 29.6408 24.6505 30.4257 25.043L33.8951 26.7856L30.4257 28.5282C29.6565 28.9206 29.3425 29.8626 29.7193 30.6318C30.1117 31.401 31.0537 31.715 31.8229 31.3382L38.1024 28.1985C38.6362 27.9316 38.9659 27.3821 38.9659 26.8013C38.9659 26.2204 38.6362 25.6553 38.1024 25.4041L31.8229 22.2643V22.2329ZM52.3883 22.2329C53.1576 21.8405 54.0995 22.1544 54.492 22.9394C54.8845 23.7086 54.5705 24.6505 53.7855 25.043L50.3161 26.7856L53.7855 28.5282C54.5548 28.9206 54.8688 29.8626 54.492 30.6318C54.0995 31.401 53.1576 31.715 52.3883 31.3382L46.1088 28.1985C45.5751 27.9316 45.2454 27.3821 45.2454 26.8013C45.2454 26.2204 45.5751 25.6553 46.1088 25.4041L52.3883 22.2643V22.2329Z" fill="#4D4947"/>
<path fill-rule="evenodd" clip-rule="evenodd" d="M28.1655 36.9739C28.7464 40.4433 30.5988 43.4889 33.2205 45.6239C35.6538 47.5863 38.7308 48.7637 42.1061 48.7637C45.4813 48.7637 48.5583 47.5863 50.9916 45.6239C53.6133 43.5046 55.4657 40.459 56.0466 36.9739C56.2664 35.6866 55.1832 34.6348 53.8802 34.6348H30.3319C29.0289 34.6348 27.9614 35.7023 28.1655 36.9739Z" fill="#5D4D41"/>
<path d="M21.031 34.1185C19.2147 37.0065 16.1487 38.841 12.8433 38.9872L11.4809 39.0411L15.8186 45.6518L17.3326 45.2899C19.9249 44.6884 22.1826 43.0781 23.6669 40.7773L24.536 39.4296L21.0248 34.0772L21.031 34.1185Z" fill="#00C1AA"/>
<path d="M67.1365 17.5781C65.1444 19.0223 62.5612 19.3941 60.2226 18.5761L59.2681 18.2377L60.5621 23.9225L61.7002 24.106C63.6354 24.4224 65.6275 23.9613 67.2428 22.8393L68.1949 22.1725L67.1365 17.5781Z" fill="#CF4BFF"/>
<path d="M22.3502 2.29639C23.041 4.65135 24.9305 6.54304 27.3686 7.35377L28.3642 7.68192L23.5895 11.2916L22.533 10.7318C20.7451 9.78594 19.4041 8.18379 18.8149 6.31141L18.4695 5.21114L22.3298 2.29639H22.3502Z" fill="#FF6157"/>
<path d="M62.7046 41.5455C63.6559 44.8397 66.2185 47.4938 69.5577 48.6045L70.9361 49.0562L64.413 54.1011L62.9764 53.3105C60.5108 51.974 58.7053 49.7716 57.9093 47.1362L57.4434 45.5926L62.724 41.5078L62.7046 41.5455Z" fill="#FF6157"/>
<path d="M49.608 5.01649C51.434 7.68833 54.4144 9.29143 57.6257 9.29143H58.948L54.8972 15.7893L53.4279 15.5115C50.9303 15.0412 48.6845 13.6091 47.2153 11.493L46.3547 10.2533L49.629 4.99512L49.608 5.01649Z" fill="#00C1AA"/>
<mask id="mask0_387_14493" style="mask-type:alpha" maskUnits="userSpaceOnUse" x="28" y="34" width="29" height="15">
<path fill-rule="evenodd" clip-rule="evenodd" d="M28.1655 36.9739C28.7464 40.4433 30.5988 43.4889 33.2205 45.6239C35.6538 47.5863 38.7308 48.7637 42.1061 48.7637C45.4813 48.7637 48.5583 47.5863 50.9916 45.6239C53.6133 43.5046 55.4657 40.459 56.0466 36.9739C56.2664 35.6866 55.1832 34.6348 53.8802 34.6348H30.3319C29.0289 34.6348 27.9614 35.7023 28.1655 36.9739Z" fill="#5D4D41"/>
</mask>
<g mask="url(#mask0_387_14493)">
<rect x="26.4595" y="33.7622" width="30.0159" height="3.87302" fill="#F0F3F9"/>
</g>
</g>
<defs>
<linearGradient id="paint0_linear_387_14493" x1="42.1727" y1="10.2809" x2="42.1727" y2="56.9997" gradientUnits="userSpaceOnUse">
<stop stop-color="#FFDA16"/>
<stop offset="1" stop-color="#FFAD0E"/>
</linearGradient>
<clipPath id="clip0_387_14493">
<rect width="60" height="60" fill="white" transform="translate(12)"/>
</clipPath>
</defs>
</svg>
