<svg width="84" height="84" viewBox="0 0 84 84" fill="none" xmlns="http://www.w3.org/2000/svg">
<path d="M42 10C49.6913 10 57.0675 13.1653 62.5061 18.7996C67.9447 24.4338 71 32.0756 71 40.0436C71 52.739 62.3892 66.5745 45.3908 81.698C44.4456 82.5391 43.2405 83.0011 41.9944 83C40.7484 82.9989 39.5441 82.5347 38.6003 81.6918L37.476 80.6811C21.2301 65.952 13 52.4555 13 40.0436C13 32.0756 16.0553 24.4338 21.4939 18.7996C26.9325 13.1653 34.3087 10 42 10Z" fill="#2F2F2F"/>
<path d="M32.4877 14.1547C32.5703 13.8279 32.5723 7.75016 32.4877 7.42522C32.3781 7.00607 31.7955 6.71574 31.3821 6.80034C31.1321 6.85225 30.7149 7.36369 30.6611 7.61749C30.5938 7.93281 30.5823 13.7471 30.6611 14.0586C30.863 14.8565 32.2627 15.0411 32.4877 14.1547Z" fill="url(#paint0_linear_387_14732)"/>
<path d="M66.3642 28C65.4032 30.1805 63.5459 32.4422 64.1018 34.9476C64.9163 38.6245 73.0911 37.9575 66.3642 28Z" fill="url(#paint1_linear_387_14732)"/>
<path d="M19.4185 16C18.8419 17.4537 17.7275 18.9615 18.0611 20.6317C18.5498 23.083 23.4546 22.6384 19.4185 16Z" fill="url(#paint2_linear_387_14732)"/>
<path d="M25.7749 19.1873C26.4825 19.0219 26.2498 17.7818 25.3903 18.0336C24.8366 18.1971 24.7943 19.4161 25.7749 19.1873Z" fill="url(#paint3_linear_387_14732)"/>
<path d="M61.393 35.5542C61.2121 35.6161 61.081 35.7725 61.0443 35.9601C60.5167 38.6622 58.8384 41.6494 55.9097 41.5308L55.2827 40.5766L56.8576 37.931C64.4521 32.3157 65.0756 20.6379 59.4787 13.0947C58.6214 13.2218 61.7367 19.4586 56.0434 24.2721C56.0414 24.268 56.0373 24.2598 56.0311 24.2515C55.1226 22.8467 54.7001 21.1937 54.8232 19.5242C55.4282 11.3125 48.6253 6.02278 42.2512 1.58464C40.7728 0.555218 40.3946 1.03572 40.9275 2.75656C41.0196 3.05387 41.104 3.36567 41.1744 3.68681C41.8082 6.56831 41.1744 9.83607 39.2281 11.3658C39.2281 11.3658 39.4661 10.9884 39.3286 11.3494C39.2979 11.3555 39.2281 11.3658 39.2281 11.3658C36.6543 11.7226 34.4434 13.3757 33.4692 15.7875C32.9237 17.137 32.5279 18.5296 32.4581 19.8114C32.4233 20.4759 32.4581 22.825 32.9924 23.9635L33.9939 26.5374C33.8442 26.3467 33.6616 26.1478 33.4586 25.9427C32.5603 25.0362 31.2682 24.0374 30.7371 23.457C27.4126 25.836 27.1685 27.3598 28.2247 30.6146C28.4011 31.1622 27.6935 31.6319 27.1439 31.8041L27.0947 31.8185C26.4548 32.0195 25.7534 31.8164 25.3289 31.2976C22.7263 28.1207 24.0532 25.9857 24.5844 21.4061C20.6446 25.914 18.5931 33.4176 19.0405 38.7868C18.9585 39.0986 19.0405 38.473 19.0405 38.7868C19.6568 46.1818 27.1767 59.2984 39.601 59.9568C55.475 60.7976 62.5444 49.1704 62.5444 42.7327C62.8689 40.709 62.735 38.4373 62.0536 35.9008C61.9769 35.6151 61.6729 35.4582 61.393 35.5542Z" fill="url(#paint4_linear_387_14732)"/>
<path d="M41.3615 14.7539C31.8766 14.7539 24.1851 22.4433 24.1851 31.9303V40.408C24.1851 41.5427 24.7545 42.6029 25.7 43.2297L30.5423 46.4381V50.3603C30.5423 50.8129 30.9099 51.1805 31.3624 51.1805H34.0609C34.5134 51.1805 34.881 50.8129 34.881 50.3603V47.0415H39.1921V50.3603C39.1921 50.8129 39.5597 51.1805 40.0123 51.1805H42.7107C43.1633 51.1805 43.5308 50.8129 43.5308 50.3603V47.0415H47.7867V50.3603C47.7867 50.8129 48.1543 51.1805 48.6069 51.1805H51.6474C52.0999 51.1805 52.4675 50.8129 52.4675 50.3603V46.6399L57.142 43.2403C58.0173 42.6029 58.5358 41.5852 58.5358 40.5037V31.9325C58.5358 22.4455 50.8463 14.756 41.3594 14.756L41.3615 14.7539ZM32.735 41.0561C30.1343 41.0561 28.0266 38.9484 28.0266 36.3477C28.0266 33.747 30.1343 31.6392 32.735 31.6392C35.3357 31.6392 37.4435 33.747 37.4435 36.3477C37.4435 38.9484 35.3357 41.0561 32.735 41.0561ZM49.9879 41.0561C47.3873 41.0561 45.2795 38.9484 45.2795 36.3477C45.2795 33.747 47.3873 31.6392 49.9879 31.6392C52.5886 31.6392 54.6964 33.747 54.6964 36.3477C54.6964 38.9484 52.5886 41.0561 49.9879 41.0561Z" fill="url(#paint5_linear_387_14732)"/>
<path d="M35.9007 52.9233H47.2086C48.0968 52.9233 48.4728 54.0558 47.7611 54.587L46.5712 55.4752C43.843 57.5128 40.1396 57.6488 37.2691 55.8172L35.4035 54.6253C34.6259 54.1281 34.9765 52.9233 35.9007 52.9233Z" fill="url(#paint6_linear_387_14732)"/>
<defs>
<linearGradient id="paint0_linear_387_14732" x1="31.5783" y1="6.78564" x2="31.5783" y2="14.7426" gradientUnits="userSpaceOnUse">
<stop stop-color="#9D3BFF"/>
<stop offset="1" stop-color="#BB2CFF"/>
</linearGradient>
<linearGradient id="paint1_linear_387_14732" x1="66.5" y1="28" x2="66.5" y2="37" gradientUnits="userSpaceOnUse">
<stop stop-color="#9D3BFF"/>
<stop offset="1" stop-color="#BB2CFF"/>
</linearGradient>
<linearGradient id="paint2_linear_387_14732" x1="19.5" y1="16" x2="19.5" y2="22" gradientUnits="userSpaceOnUse">
<stop stop-color="#9D3BFF"/>
<stop offset="1" stop-color="#BB2CFF"/>
</linearGradient>
<linearGradient id="paint3_linear_387_14732" x1="25.5964" y1="18" x2="25.5964" y2="19.2158" gradientUnits="userSpaceOnUse">
<stop stop-color="#9D3BFF"/>
<stop offset="1" stop-color="#BB2CFF"/>
</linearGradient>
<linearGradient id="paint4_linear_387_14732" x1="41.3389" y1="-2.95082" x2="41.3389" y2="60.0034" gradientUnits="userSpaceOnUse">
<stop stop-color="#9D3BFF"/>
<stop offset="1" stop-color="#BB2CFF"/>
</linearGradient>
<linearGradient id="paint5_linear_387_14732" x1="41.3604" y1="14.7539" x2="41.3604" y2="51.1805" gradientUnits="userSpaceOnUse">
<stop stop-color="white"/>
<stop offset="1" stop-color="#F3DFFF"/>
</linearGradient>
<linearGradient id="paint6_linear_387_14732" x1="41.5545" y1="52.9233" x2="41.5545" y2="57.1027" gradientUnits="userSpaceOnUse">
<stop stop-color="white"/>
<stop offset="1" stop-color="#F3DFFF"/>
</linearGradient>
</defs>
</svg>
