<svg width="84" height="84" viewBox="0 0 84 84" fill="none" xmlns="http://www.w3.org/2000/svg">
<path d="M42 10C49.6913 10 57.0675 13.1653 62.5061 18.7996C67.9447 24.4338 71 32.0756 71 40.0436C71 52.739 62.3892 66.5745 45.3908 81.698C44.4456 82.5391 43.2405 83.0011 41.9944 83C40.7484 82.9989 39.5441 82.5347 38.6003 81.6918L37.476 80.6811C21.2301 65.952 13 52.4555 13 40.0436C13 32.0756 16.0553 24.4338 21.4939 18.7996C26.9325 13.1653 34.3087 10 42 10Z" fill="#2F2F2F"/>
<path d="M42.1029 55.2058C55.9668 55.2058 67.2058 43.9668 67.2058 30.1029C67.2058 16.2389 55.9668 5 42.1029 5C28.2389 5 17 16.2389 17 30.1029C17 43.9668 28.2389 55.2058 42.1029 55.2058Z" fill="#6ADCC4"/>
<circle opacity="0.4" cx="33.9312" cy="21.9312" r="8.93119" fill="white"/>
<circle cx="44.9375" cy="32.9502" r="13.0625" fill="white"/>
</svg>
