<svg width="84" height="84" viewBox="0 0 84 84" fill="none" xmlns="http://www.w3.org/2000/svg">
<path d="M42 10C49.6913 10 57.0675 13.1653 62.5061 18.7996C67.9447 24.4338 71 32.0756 71 40.0436C71 52.739 62.3892 66.5745 45.3908 81.698C44.4456 82.5391 43.2405 83.0011 41.9944 83C40.7484 82.9989 39.5441 82.5347 38.6003 81.6918L37.476 80.6811C21.2301 65.952 13 52.4555 13 40.0436C13 32.0756 16.0553 24.4338 21.4939 18.7996C26.9325 13.1653 34.3087 10 42 10Z" fill="#2F2F2F"/>
<g clip-path="url(#clip0_387_14664)">
<path d="M42.2058 54.8833C55.8986 54.8833 66.9987 43.7831 66.9987 30.0903C66.9987 16.3975 55.8986 5.29736 42.2058 5.29736C28.513 5.29736 17.4128 16.3975 17.4128 30.0903C17.4128 43.7831 28.513 54.8833 42.2058 54.8833Z" fill="url(#paint0_linear_387_14664)"/>
<path d="M27.6299 34.2093C30.4738 35.7803 34.4459 34.0385 36.5002 30.3196C38.5546 26.6006 37.9144 22.3109 35.0705 20.74C32.2266 19.169 28.2545 20.9108 26.2001 24.6297C24.1457 28.3486 24.786 32.6383 27.6299 34.2093Z" fill="#E2AC3B"/>
<path d="M56.1607 34.2093C53.3168 35.7803 49.3447 34.0385 47.2903 30.3196C45.2359 26.6006 45.8762 22.3109 48.7201 20.74C51.5639 19.169 55.536 20.9108 57.5904 24.6297C59.6448 28.3486 59.0045 32.6383 56.1607 34.2093Z" fill="#E2AC3B"/>
<path d="M18.2793 23.5986H66.1352C63.283 13.0564 53.6524 5.29736 42.2055 5.29736C30.7586 5.29736 21.1315 13.0564 18.2793 23.5986Z" fill="url(#paint1_linear_387_14664)"/>
<path d="M32.8307 31.2717C37.0676 31.2717 40.5033 27.8359 40.5033 23.599C40.5033 19.3621 37.0676 15.9263 32.8307 15.9263C28.5938 15.9263 25.158 19.3621 25.158 23.599C25.158 27.8359 28.5938 31.2717 32.8307 31.2717Z" fill="url(#paint2_linear_387_14664)"/>
<path d="M51.5841 31.2717C55.821 31.2717 59.2568 27.8359 59.2568 23.599C59.2568 19.3621 55.821 15.9263 51.5841 15.9263C47.3472 15.9263 43.9114 19.3621 43.9114 23.599C43.9114 27.8359 47.3472 31.2717 51.5841 31.2717Z" fill="url(#paint3_linear_387_14664)"/>
<path d="M37.0918 39.7971C37.0918 36.9725 39.3812 34.6831 42.2058 34.6831C45.0304 34.6831 47.3197 36.9725 47.3197 39.7971V44.9111C47.3197 47.7357 45.0304 50.025 42.2058 50.025C39.3812 50.025 37.0918 47.7357 37.0918 44.9111V39.7971Z" fill="#5D4D41"/>
<path d="M31.2699 52.2765V50.8953C31.2699 44.7109 28.2174 38.9235 23.1138 35.4325C21.5945 34.3931 19.5813 34.4415 18.1138 35.5499C16.5737 36.7136 16.004 38.7681 16.7222 40.5603C17.9584 43.6404 18.5143 46.9519 18.3555 50.2668L18.2761 51.9139C18.1345 54.7903 19.9266 57.4077 22.658 58.3228L22.8065 58.3711C24.1843 58.8304 25.676 58.8131 27.0434 58.3159C29.5814 57.3905 31.2734 54.9768 31.2734 52.2765H31.2699Z" fill="url(#paint4_linear_387_14664)"/>
<path d="M53.1451 52.2765V50.8953C53.1451 44.7109 56.1976 38.9235 61.3012 35.4325C62.8205 34.3931 64.8337 34.4415 66.3012 35.5499C67.8413 36.7136 68.411 38.7681 67.6928 40.5603C66.4566 43.6404 65.9006 46.9519 66.0595 50.2668L66.1389 51.9139C66.2805 54.7903 64.4883 57.4077 61.757 58.3228L61.6085 58.3711C60.2307 58.8304 58.739 58.8131 57.3716 58.3159C54.8336 57.3905 53.1416 54.9768 53.1416 52.2765H53.1451Z" fill="url(#paint5_linear_387_14664)"/>
</g>
<defs>
<linearGradient id="paint0_linear_387_14664" x1="42.2058" y1="22.2173" x2="42.2058" y2="54.8833" gradientUnits="userSpaceOnUse">
<stop stop-color="#FFDA16"/>
<stop offset="1" stop-color="#FFAD0E"/>
</linearGradient>
<linearGradient id="paint1_linear_387_14664" x1="42.2073" y1="5.29736" x2="42.2073" y2="23.5986" gradientUnits="userSpaceOnUse">
<stop offset="0.270678" stop-color="#4E91F2"/>
<stop offset="1" stop-color="#4E91F2" stop-opacity="0"/>
</linearGradient>
<linearGradient id="paint2_linear_387_14664" x1="32.8307" y1="15.9263" x2="32.8307" y2="31.2717" gradientUnits="userSpaceOnUse">
<stop stop-color="white"/>
<stop offset="1" stop-color="#E7E7E7"/>
</linearGradient>
<linearGradient id="paint3_linear_387_14664" x1="51.5841" y1="15.9263" x2="51.5841" y2="31.2717" gradientUnits="userSpaceOnUse">
<stop stop-color="white"/>
<stop offset="1" stop-color="#E7E7E7"/>
</linearGradient>
<linearGradient id="paint4_linear_387_14664" x1="24.0235" y1="40.0009" x2="21.8859" y2="58.4762" gradientUnits="userSpaceOnUse">
<stop stop-color="#FFA800"/>
<stop offset="1" stop-color="#FF7A00"/>
</linearGradient>
<linearGradient id="paint5_linear_387_14664" x1="60.7505" y1="40.0009" x2="58.6129" y2="58.4762" gradientUnits="userSpaceOnUse">
<stop stop-color="#FFA800"/>
<stop offset="1" stop-color="#FF7A00"/>
</linearGradient>
<clipPath id="clip0_387_14664">
<rect width="51.5852" height="53.405" fill="white" transform="translate(16.4148 5.29736)"/>
</clipPath>
</defs>
</svg>
